<?xml version="1.0" encoding="UTF-8" standalone="no"?>
<!-- Created with Inkscape (http://www.inkscape.org/) -->

<svg
   xmlns:dc="http://purl.org/dc/elements/1.1/"
   xmlns:cc="http://creativecommons.org/ns#"
   xmlns:rdf="http://www.w3.org/1999/02/22-rdf-syntax-ns#"
   xmlns:svg="http://www.w3.org/2000/svg"
   xmlns="http://www.w3.org/2000/svg"
   xmlns:sodipodi="http://sodipodi.sourceforge.net/DTD/sodipodi-0.dtd"
   xmlns:inkscape="http://www.inkscape.org/namespaces/inkscape"
   id="svg2"
   version="1.1"
   inkscape:version="0.48.4 r9939"
   width="536.81104"
   height="478.34644"
   xml:space="preserve"
   sodipodi:docname="chap04_1_lattice.eps"><metadata
     id="metadata8"><rdf:RDF><cc:Work
         rdf:about=""><dc:format>image/svg+xml</dc:format><dc:type
           rdf:resource="http://purl.org/dc/dcmitype/StillImage" /><dc:title></dc:title></cc:Work></rdf:RDF></metadata><defs
     id="defs6" /><sodipodi:namedview
     pagecolor="#ffffff"
     bordercolor="#666666"
     borderopacity="1"
     objecttolerance="10"
     gridtolerance="10"
     guidetolerance="10"
     inkscape:pageopacity="0"
     inkscape:pageshadow="2"
     inkscape:window-width="2160"
     inkscape:window-height="1191"
     id="namedview4"
     showgrid="false"
     units="cm"
     inkscape:zoom="1.1477204"
     inkscape:cx="250.625"
     inkscape:cy="272.51995"
     inkscape:window-x="0"
     inkscape:window-y="50"
     inkscape:window-maximized="1"
     inkscape:current-layer="g10" /><g
     id="g10"
     inkscape:groupmode="layer"
     inkscape:label="ink_ext_XXXXXX"
     transform="matrix(1.25,0,0,-1.25,0,478.34697)"><g
       id="g12"
       transform="matrix(0.1,0,0,0.1,20.213983,50.883475)"><path
         d="M 2735.82,3223.81 3530.51,2335.8"
         style="fill:none;stroke:#00ff00;stroke-width:16;stroke-linecap:butt;stroke-linejoin:miter;stroke-miterlimit:4;stroke-opacity:1;stroke-dasharray:96, 32;stroke-dashoffset:0"
         id="path14"
         inkscape:connector-curvature="0" /><path
         d="M 3549.8,3233.46 2739.02,2326.15"
         style="fill:none;stroke:#00ff00;stroke-width:16;stroke-linecap:butt;stroke-linejoin:miter;stroke-miterlimit:4;stroke-opacity:1;stroke-dasharray:96, 32;stroke-dashoffset:0"
         id="path16"
         inkscape:connector-curvature="0" /><path
         d="m 3131.56,3233.46 3.21,-910.51"
         style="fill:none;stroke:#ff00ff;stroke-width:16;stroke-linecap:butt;stroke-linejoin:miter;stroke-miterlimit:4;stroke-opacity:1;stroke-dasharray:none"
         id="path18"
         inkscape:connector-curvature="0" /><path
         d="m 3546.6,2776.58 -810.78,3.21"
         style="fill:none;stroke:#ff00ff;stroke-width:16;stroke-linecap:butt;stroke-linejoin:miter;stroke-miterlimit:4;stroke-opacity:1;stroke-dasharray:none"
         id="path20"
         inkscape:connector-curvature="0" /><path
         d="M 58.5195,2571.55 C 475.59,3183.93 857.34,2582.29 857.34,2582.29"
         style="fill:none;stroke:#00ff00;stroke-width:16;stroke-linecap:butt;stroke-linejoin:miter;stroke-miterlimit:4;stroke-opacity:1;stroke-dasharray:96, 32;stroke-dashoffset:0"
         id="path22"
         inkscape:connector-curvature="0" /><path
         d="m 883.789,2558.97 c 417.031,612.38 798.791,10.74 798.791,10.74"
         style="fill:none;stroke:#00ff00;stroke-width:16;stroke-linecap:butt;stroke-linejoin:miter;stroke-miterlimit:4;stroke-opacity:1;stroke-dasharray:96, 32;stroke-dashoffset:0"
         id="path24"
         inkscape:connector-curvature="0" /><path
         d="m 467.578,2564.24 813.982,0"
         style="fill:none;stroke:#ff00ff;stroke-width:16;stroke-linecap:butt;stroke-linejoin:miter;stroke-miterlimit:4;stroke-opacity:1;stroke-dasharray:none"
         id="path26"
         inkscape:connector-curvature="0" /><path
         d="M 696.02,1113.23 1921.84,408.621"
         style="fill:none;stroke:#00ff00;stroke-width:16;stroke-linecap:butt;stroke-linejoin:miter;stroke-miterlimit:4;stroke-opacity:1;stroke-dasharray:96, 32;stroke-dashoffset:0"
         id="path28"
         inkscape:connector-curvature="0" /><path
         d="M 1316.95,1451.04 1307.3,61.1602"
         style="fill:none;stroke:#00ff00;stroke-width:16;stroke-linecap:butt;stroke-linejoin:miter;stroke-miterlimit:4;stroke-opacity:1;stroke-dasharray:96, 32;stroke-dashoffset:0"
         id="path30"
         inkscape:connector-curvature="0" /><path
         d="m 689.57,411.82 1225.82,704.61"
         style="fill:none;stroke:#00ff00;stroke-width:16;stroke-linecap:butt;stroke-linejoin:miter;stroke-miterlimit:4;stroke-opacity:1;stroke-dasharray:96, 32;stroke-dashoffset:0"
         id="path32"
         inkscape:connector-curvature="0" /><path
         d="M 1094.96,1122.87 1510,418.262"
         style="fill:none;stroke:#ff00ff;stroke-width:16;stroke-linecap:butt;stroke-linejoin:miter;stroke-miterlimit:4;stroke-opacity:1;stroke-dasharray:none"
         id="path34"
         inkscape:connector-curvature="0" /><path
         d="m 905.23,756.191 781.8,6.411"
         style="fill:none;stroke:#ff00ff;stroke-width:16;stroke-linecap:butt;stroke-linejoin:miter;stroke-miterlimit:4;stroke-opacity:1;stroke-dasharray:none"
         id="path36"
         inkscape:connector-curvature="0" /><path
         d="M 1506.8,1122.87 1104.61,408.621"
         style="fill:none;stroke:#ff00ff;stroke-width:16;stroke-linecap:butt;stroke-linejoin:miter;stroke-miterlimit:4;stroke-opacity:1;stroke-dasharray:none"
         id="path38"
         inkscape:connector-curvature="0" /><path
         d="m 114.488,2563.19 c 0,-31.61 -25.6169,-57.23 -57.2575,-57.23 C 25.6211,2505.96 0,2531.58 0,2563.19 c 0,31.64 25.6211,57.26 57.2305,57.26 31.6406,0 57.2575,-25.62 57.2575,-57.26 z"
         style="fill:#000000;fill-opacity:1;fill-rule:nonzero;stroke:none"
         id="path40"
         inkscape:connector-curvature="0" /><path
         d="m 1334.96,2563.19 c 0,-31.61 -25.62,-57.23 -57.23,-57.23 -31.64,0 -57.26,25.62 -57.26,57.23 0,31.64 25.62,57.26 57.26,57.26 31.61,0 57.23,-25.62 57.23,-57.26 z"
         style="fill:#000000;fill-opacity:1;fill-rule:nonzero;stroke:none"
         id="path42"
         inkscape:connector-curvature="0" /><path
         d="m 521.328,2563.19 c 0,-31.61 -25.629,-57.23 -57.269,-57.23 -31.598,0 -57.219,25.62 -57.219,57.23 0,31.64 25.621,57.26 57.219,57.26 31.64,0 57.269,-25.62 57.269,-57.26 z"
         style="fill:#000000;fill-opacity:1;fill-rule:nonzero;stroke:none"
         id="path44"
         inkscape:connector-curvature="0" /><path
         d="m 1741.8,2563.19 c 0,-31.61 -25.63,-57.23 -57.27,-57.23 -31.6,0 -57.23,25.62 -57.23,57.23 0,31.64 25.63,57.26 57.23,57.26 31.64,0 57.27,-25.62 57.27,-57.26 z"
         style="fill:#000000;fill-opacity:1;fill-rule:nonzero;stroke:none"
         id="path46"
         inkscape:connector-curvature="0" /><path
         d="m 928.121,2563.19 c 0,-31.61 -25.582,-57.23 -57.223,-57.23 -31.636,0 -57.226,25.62 -57.226,57.23 0,31.64 25.59,57.26 57.226,57.26 31.641,0 57.223,-25.62 57.223,-57.26 z"
         style="fill:#000000;fill-opacity:1;fill-rule:nonzero;stroke:none"
         id="path48"
         inkscape:connector-curvature="0" /><path
         d="m 2378.44,3225.33 c 0,-31.6 -25.59,-57.22 -57.23,-57.22 -31.64,0 -57.26,25.62 -57.26,57.22 0,31.65 25.62,57.27 57.26,57.27 31.64,0 57.23,-25.62 57.23,-57.27 z"
         style="fill:#000000;fill-opacity:1;fill-rule:nonzero;stroke:none"
         id="path50"
         inkscape:connector-curvature="0" /><path
         d="m 3598.95,3225.33 c 0,-31.6 -25.63,-57.22 -57.27,-57.22 -31.6,0 -57.23,25.62 -57.23,57.22 0,31.65 25.63,57.27 57.23,57.27 31.64,0 57.27,-25.62 57.27,-57.27 z"
         style="fill:#000000;fill-opacity:1;fill-rule:nonzero;stroke:none"
         id="path52"
         inkscape:connector-curvature="0" /><path
         d="m 2785.27,3225.33 c 0,-31.6 -25.58,-57.22 -57.22,-57.22 -31.64,0 -57.27,25.62 -57.27,57.22 0,31.65 25.63,57.27 57.27,57.27 31.64,0 57.22,-25.62 57.22,-57.27 z"
         style="fill:#000000;fill-opacity:1;fill-rule:nonzero;stroke:none"
         id="path54"
         inkscape:connector-curvature="0" /><path
         d="m 4005.78,3225.33 c 0,-31.6 -25.62,-57.22 -57.26,-57.22 -31.61,0 -57.23,25.62 -57.23,57.22 0,31.65 25.62,57.27 57.23,57.27 31.64,0 57.26,-25.62 57.26,-57.27 z"
         style="fill:#000000;fill-opacity:1;fill-rule:nonzero;stroke:none"
         id="path56"
         inkscape:connector-curvature="0" /><path
         d="m 3192.11,3225.33 c 0,-31.6 -25.63,-57.22 -57.27,-57.22 -31.6,0 -57.22,25.62 -57.22,57.22 0,31.65 25.62,57.27 57.22,57.27 31.64,0 57.27,-25.62 57.27,-57.27 z"
         style="fill:#000000;fill-opacity:1;fill-rule:nonzero;stroke:none"
         id="path58"
         inkscape:connector-curvature="0" /><path
         d="m 2378.44,2780.61 c 0,-31.6 -25.59,-57.23 -57.23,-57.23 -31.64,0 -57.26,25.63 -57.26,57.23 0,31.64 25.62,57.26 57.26,57.26 31.64,0 57.23,-25.62 57.23,-57.26 z"
         style="fill:#000000;fill-opacity:1;fill-rule:nonzero;stroke:none"
         id="path60"
         inkscape:connector-curvature="0" /><path
         d="m 3598.95,2780.61 c 0,-31.6 -25.63,-57.23 -57.27,-57.23 -31.6,0 -57.23,25.63 -57.23,57.23 0,31.64 25.63,57.26 57.23,57.26 31.64,0 57.27,-25.62 57.27,-57.26 z"
         style="fill:#000000;fill-opacity:1;fill-rule:nonzero;stroke:none"
         id="path62"
         inkscape:connector-curvature="0" /><path
         d="m 2785.27,2780.61 c 0,-31.6 -25.58,-57.23 -57.22,-57.23 -31.64,0 -57.27,25.63 -57.27,57.23 0,31.64 25.63,57.26 57.27,57.26 31.64,0 57.22,-25.62 57.22,-57.26 z"
         style="fill:#000000;fill-opacity:1;fill-rule:nonzero;stroke:none"
         id="path64"
         inkscape:connector-curvature="0" /><path
         d="m 4005.78,2780.61 c 0,-31.6 -25.62,-57.23 -57.26,-57.23 -31.61,0 -57.23,25.63 -57.23,57.23 0,31.64 25.62,57.26 57.23,57.26 31.64,0 57.26,-25.62 57.26,-57.26 z"
         style="fill:#000000;fill-opacity:1;fill-rule:nonzero;stroke:none"
         id="path66"
         inkscape:connector-curvature="0" /><path
         d="m 3192.11,2780.61 c 0,-31.6 -25.63,-57.23 -57.27,-57.23 -31.6,0 -57.22,25.63 -57.22,57.23 0,31.64 25.62,57.26 57.22,57.26 31.64,0 57.27,-25.62 57.27,-57.26 z"
         style="fill:#000000;fill-opacity:1;fill-rule:nonzero;stroke:none"
         id="path68"
         inkscape:connector-curvature="0" /><path
         d="m 2378.44,2335.88 c 0,-31.6 -25.59,-57.22 -57.23,-57.22 -31.64,0 -57.26,25.62 -57.26,57.22 0,31.64 25.62,57.27 57.26,57.27 31.64,0 57.23,-25.63 57.23,-57.27 z"
         style="fill:#000000;fill-opacity:1;fill-rule:nonzero;stroke:none"
         id="path70"
         inkscape:connector-curvature="0" /><path
         d="m 3598.95,2335.88 c 0,-31.6 -25.63,-57.22 -57.27,-57.22 -31.6,0 -57.23,25.62 -57.23,57.22 0,31.64 25.63,57.27 57.23,57.27 31.64,0 57.27,-25.63 57.27,-57.27 z"
         style="fill:#000000;fill-opacity:1;fill-rule:nonzero;stroke:none"
         id="path72"
         inkscape:connector-curvature="0" /><path
         d="m 2785.27,2335.88 c 0,-31.6 -25.58,-57.22 -57.22,-57.22 -31.64,0 -57.27,25.62 -57.27,57.22 0,31.64 25.63,57.27 57.27,57.27 31.64,0 57.22,-25.63 57.22,-57.27 z"
         style="fill:#000000;fill-opacity:1;fill-rule:nonzero;stroke:none"
         id="path74"
         inkscape:connector-curvature="0" /><path
         d="m 4005.78,2335.88 c 0,-31.6 -25.62,-57.22 -57.26,-57.22 -31.61,0 -57.23,25.62 -57.23,57.22 0,31.64 25.62,57.27 57.23,57.27 31.64,0 57.26,-25.63 57.26,-57.27 z"
         style="fill:#000000;fill-opacity:1;fill-rule:nonzero;stroke:none"
         id="path76"
         inkscape:connector-curvature="0" /><path
         d="m 3192.11,2335.88 c 0,-31.6 -25.63,-57.22 -57.27,-57.22 -31.6,0 -57.22,25.62 -57.22,57.22 0,31.64 25.62,57.27 57.22,57.27 31.64,0 57.27,-25.63 57.27,-57.27 z"
         style="fill:#000000;fill-opacity:1;fill-rule:nonzero;stroke:none"
         id="path78"
         inkscape:connector-curvature="0" /><path
         d="m 2378.44,1891.12 c 0,-31.57 -25.59,-57.19 -57.23,-57.19 -31.64,0 -57.26,25.62 -57.26,57.19 0,31.64 25.62,57.3 57.26,57.3 31.64,0 57.23,-25.66 57.23,-57.3 z"
         style="fill:#000000;fill-opacity:1;fill-rule:nonzero;stroke:none"
         id="path80"
         inkscape:connector-curvature="0" /><path
         d="m 3598.95,1891.12 c 0,-31.57 -25.63,-57.19 -57.27,-57.19 -31.6,0 -57.23,25.62 -57.23,57.19 0,31.64 25.63,57.3 57.23,57.3 31.64,0 57.27,-25.66 57.27,-57.3 z"
         style="fill:#000000;fill-opacity:1;fill-rule:nonzero;stroke:none"
         id="path82"
         inkscape:connector-curvature="0" /><path
         d="m 2785.27,1891.12 c 0,-31.57 -25.58,-57.19 -57.22,-57.19 -31.64,0 -57.27,25.62 -57.27,57.19 0,31.64 25.63,57.3 57.27,57.3 31.64,0 57.22,-25.66 57.22,-57.3 z"
         style="fill:#000000;fill-opacity:1;fill-rule:nonzero;stroke:none"
         id="path84"
         inkscape:connector-curvature="0" /><path
         d="m 4005.78,1891.12 c 0,-31.57 -25.62,-57.19 -57.26,-57.19 -31.61,0 -57.23,25.62 -57.23,57.19 0,31.64 25.62,57.3 57.23,57.3 31.64,0 57.26,-25.66 57.26,-57.3 z"
         style="fill:#000000;fill-opacity:1;fill-rule:nonzero;stroke:none"
         id="path86"
         inkscape:connector-curvature="0" /><path
         d="m 3192.11,1891.12 c 0,-31.57 -25.63,-57.19 -57.27,-57.19 -31.6,0 -57.22,25.62 -57.22,57.19 0,31.64 25.62,57.3 57.22,57.3 31.64,0 57.27,-25.66 57.27,-57.3 z"
         style="fill:#000000;fill-opacity:1;fill-rule:nonzero;stroke:none"
         id="path88"
         inkscape:connector-curvature="0" /><path
         d="m 3234.84,691.352 15.9,0 c 3.36,0 5.08,0 5.08,3.398 0,1.871 -1.72,1.871 -4.73,1.871 l -14.92,0 c 6.1,24.07 6.92,27.457 6.92,28.438 0,2.89 -2,4.613 -4.85,4.613 -0.54,0 -5.27,-0.192 -6.79,-6.133 l -6.61,-26.918 -15.93,0 c -3.4,0 -5.08,0 -5.08,-3.199 0,-2.07 1.37,-2.07 4.76,-2.07 l 14.85,0 c -12.15,-48.09 -12.82,-50.942 -12.82,-54.024 0,-9.137 6.41,-15.547 15.55,-15.547 17.27,0 26.92,24.688 26.92,26.047 0,1.723 -1.33,1.723 -2,1.723 -1.56,0 -1.71,-0.5 -2.54,-2.379 -7.3,-17.582 -16.25,-21.684 -21.99,-21.684 -3.59,0 -5.27,2.231 -5.27,7.813 0,4.027 0.31,5.277 1.01,8.129 l 12.54,49.922 z"
         style="fill:#000000;fill-opacity:1;fill-rule:nonzero;stroke:none"
         id="path90"
         inkscape:connector-curvature="0" /><path
         d="m 3295.47,623.809 0,1.019 -0.04,1.012 -0.04,0.98 -0.12,0.981 -0.07,0.89 -0.16,0.899 -0.12,0.859 -0.39,1.641 -0.23,0.781 -0.47,1.488 -0.63,1.332 -0.31,0.618 -0.31,0.589 -0.78,1.09 -0.39,0.473 -0.39,0.43 -0.47,0.468 -0.43,0.352 -0.47,0.348 -0.51,0.351 -0.51,0.238 -0.51,0.274 -0.54,0.199 -0.55,0.149 -0.58,0.16 -0.59,0.082 -0.63,0.039 -0.58,0.027 c -5.59,0 -8.99,-4.25 -8.99,-8.976 0,-4.532 3.4,-8.942 8.99,-8.942 2.03,0 4.26,0.66 5.94,2.141 0.46,0.39 0.66,0.551 0.86,0.551 0.15,0 0.35,-0.161 0.35,-2.543 0,-12.539 -5.94,-22.688 -11.57,-28.278 -1.83,-1.84 -1.83,-2.23 -1.83,-2.703 0,-1.207 0.82,-1.867 1.68,-1.867 1.83,0 15.39,13.051 15.39,32.848 z"
         style="fill:#000000;fill-opacity:1;fill-rule:nonzero;stroke:none"
         id="path92"
         inkscape:connector-curvature="0" /><path
         d="m 3442.5,719.98 0.78,1.211 0.74,1.137 0.78,1.051 0.75,0.98 0.74,0.942 0.74,0.859 0.78,0.82 0.71,0.739 0.74,0.66 0.7,0.672 0.74,0.578 0.67,0.551 0.7,0.468 0.7,0.43 0.67,0.434 0.66,0.347 0.7,0.313 0.67,0.308 0.66,0.239 0.63,0.23 0.7,0.199 0.59,0.192 0.66,0.121 0.63,0.117 0.62,0.082 0.66,0.11 1.22,0.121 1.17,0.078 1.21,0.082 c 1.99,0.148 2.19,3 2.19,3.238 0,1.332 -0.86,2.031 -2.19,2.031 -4.42,0 -9.34,-0.55 -13.91,-0.55 -5.62,0 -11.4,0.55 -16.79,0.55 -1.02,0 -3.21,0 -3.21,-3.242 0,-1.879 1.53,-2.027 2.74,-2.027 4.57,-0.321 7.81,-2.039 7.81,-5.59 0,-2.539 -2.54,-6.25 -2.54,-6.41 l -52.03,-82.653 -11.52,89.532 c 0,2.89 3.9,5.121 11.68,5.121 2.42,0 4.25,0 4.25,3.39 0,1.489 -1.36,1.879 -2.38,1.879 -6.72,0 -14.06,-0.55 -20.98,-0.55 -3.08,0 -6.25,0.16 -9.33,0.16 -3.05,0 -6.29,0.39 -9.14,0.39 -1.17,0 -3.21,0 -3.21,-3.242 0,-2.027 1.49,-2.027 4.22,-2.027 9.5,0 9.65,-1.531 10.2,-5.711 l 13.32,-104.531 c 0.55,-3.399 1.21,-3.868 3.4,-3.868 2.69,0 3.4,0.821 4.8,3.008 l 60.9,97.031 z"
         style="fill:#000000;fill-opacity:1;fill-rule:nonzero;stroke:none"
         id="path94"
         inkscape:connector-curvature="0" /><path
         d="m 3478.59,623.809 0,1.019 -0.04,1.012 -0.07,0.98 -0.04,0.981 -0.24,1.789 -0.19,0.859 -0.16,0.821 -0.19,0.82 -0.24,0.781 -0.23,0.75 -0.28,0.738 -0.54,1.332 -0.35,0.618 -0.36,0.589 -0.35,0.543 -0.39,0.547 -0.39,0.473 -0.43,0.43 -0.43,0.468 -1.4,1.051 -0.51,0.238 -0.51,0.274 -0.55,0.199 -0.58,0.149 -0.55,0.16 -0.59,0.082 -0.58,0.039 -0.63,0.027 c -5.54,0 -8.94,-4.25 -8.94,-8.976 0,-4.532 3.4,-8.942 8.94,-8.942 2.03,0 4.26,0.66 5.98,2.141 0.47,0.39 0.66,0.551 0.82,0.551 0.16,0 0.31,-0.161 0.31,-2.543 0,-12.539 -5.86,-22.688 -11.52,-28.278 -1.88,-1.84 -1.88,-2.23 -1.88,-2.703 0,-1.207 0.86,-1.867 1.72,-1.867 1.88,0 15.39,13.051 15.39,32.848 z"
         style="fill:#000000;fill-opacity:1;fill-rule:nonzero;stroke:none"
         id="path96"
         inkscape:connector-curvature="0" /><path
         d="m 3610.94,726.941 0.08,0.5 0.15,0.469 0.08,0.469 0.16,0.473 0.07,0.386 0.16,0.434 0.12,0.348 0.15,0.39 0.12,0.32 0.2,0.309 0.11,0.313 0.39,0.546 0.47,0.473 0.24,0.188 0.27,0.242 0.63,0.308 0.35,0.153 0.43,0.117 0.39,0.16 0.43,0.082 0.23,0.039 0.28,0.07 0.23,0.04 0.27,0.039 0.32,0.043 0.27,0 0.94,0.117 0.31,0 0.35,0.043 0.39,0 0.35,0.039 2.03,0 c 2.7,0 4.54,0 4.54,3.238 0,1.481 -0.98,2.031 -2.31,2.031 -4.26,0 -14.57,-0.55 -18.83,-0.55 -5.54,0 -19.29,0.55 -24.88,0.55 -1.56,0 -3.55,0 -3.55,-3.398 0,-1.871 1.36,-1.871 5.78,-1.871 3.86,0 5.54,0 9.76,-0.321 4.1,-0.539 5.24,-1.05 5.24,-3.402 0,-1.008 -0.32,-2.219 -0.63,-3.547 l -19.49,-77.73 c -4.06,-16.449 -15.59,-25.391 -24.38,-25.391 -4.37,0 -13.39,1.668 -16.05,10.461 0.47,-0.109 1.68,-0.109 1.99,-0.109 6.6,0 10.98,5.699 10.98,10.816 0,5.434 -4.57,7.07 -7.42,7.07 -3.01,0 -11.37,-2.027 -11.37,-13.558 0,-10.469 8.98,-18.399 22.34,-18.399 15.67,0 33.21,11.137 37.46,27.887 l 19.85,79.113 z"
         style="fill:#000000;fill-opacity:1;fill-rule:nonzero;stroke:none"
         id="path98"
         inkscape:connector-curvature="0" /><path
         d="m 973.16,1450.02 c 0,-31.56 -25.582,-57.19 -57.219,-57.19 -31.64,0 -57.23,25.63 -57.23,57.19 0,31.64 25.59,57.31 57.23,57.31 31.637,0 57.219,-25.67 57.219,-57.31 z"
         style="fill:#000000;fill-opacity:1;fill-rule:nonzero;stroke:none"
         id="path100"
         inkscape:connector-curvature="0" /><path
         d="m 2193.67,1450.02 c 0,-31.56 -25.62,-57.19 -57.26,-57.19 -31.61,0 -57.23,25.63 -57.23,57.19 0,31.64 25.62,57.31 57.23,57.31 31.64,0 57.26,-25.67 57.26,-57.31 z"
         style="fill:#000000;fill-opacity:1;fill-rule:nonzero;stroke:none"
         id="path102"
         inkscape:connector-curvature="0" /><path
         d="m 1380,1450.02 c 0,-31.56 -25.59,-57.19 -57.23,-57.19 -31.64,0 -57.26,25.63 -57.26,57.19 0,31.64 25.62,57.31 57.26,57.31 31.64,0 57.23,-25.67 57.23,-57.31 z"
         style="fill:#000000;fill-opacity:1;fill-rule:nonzero;stroke:none"
         id="path104"
         inkscape:connector-curvature="0" /><path
         d="m 2600.51,1450.02 c 0,-31.56 -25.63,-57.19 -57.27,-57.19 -31.6,0 -57.22,25.63 -57.22,57.19 0,31.64 25.62,57.31 57.22,57.31 31.64,0 57.27,-25.67 57.27,-57.31 z"
         style="fill:#000000;fill-opacity:1;fill-rule:nonzero;stroke:none"
         id="path106"
         inkscape:connector-curvature="0" /><path
         d="m 1786.84,1450.02 c 0,-31.56 -25.63,-57.19 -57.27,-57.19 -31.6,0 -57.23,25.63 -57.23,57.19 0,31.64 25.63,57.31 57.23,57.31 31.64,0 57.27,-25.67 57.27,-57.31 z"
         style="fill:#000000;fill-opacity:1;fill-rule:nonzero;stroke:none"
         id="path108"
         inkscape:connector-curvature="0" /><path
         d="m 745.121,1120.65 c 0,-31.6 -25.633,-57.23 -57.269,-57.23 -31.602,0 -57.231,25.63 -57.231,57.23 0,31.64 25.629,57.22 57.231,57.22 31.636,0 57.269,-25.58 57.269,-57.22 z"
         style="fill:#000000;fill-opacity:1;fill-rule:nonzero;stroke:none"
         id="path110"
         inkscape:connector-curvature="0" /><path
         d="m 1965.62,1120.65 c 0,-31.6 -25.62,-57.23 -57.26,-57.23 -31.6,0 -57.23,25.63 -57.23,57.23 0,31.64 25.63,57.22 57.23,57.22 31.64,0 57.26,-25.58 57.26,-57.22 z"
         style="fill:#000000;fill-opacity:1;fill-rule:nonzero;stroke:none"
         id="path112"
         inkscape:connector-curvature="0" /><path
         d="m 1151.95,1120.65 c 0,-31.6 -25.62,-57.23 -57.26,-57.23 -31.6,0 -57.23,25.63 -57.23,57.23 0,31.64 25.63,57.22 57.23,57.22 31.64,0 57.26,-25.58 57.26,-57.22 z"
         style="fill:#000000;fill-opacity:1;fill-rule:nonzero;stroke:none"
         id="path114"
         inkscape:connector-curvature="0" /><path
         d="m 2372.46,1120.65 c 0,-31.6 -25.62,-57.23 -57.26,-57.23 -31.61,0 -57.23,25.63 -57.23,57.23 0,31.64 25.62,57.22 57.23,57.22 31.64,0 57.26,-25.58 57.26,-57.22 z"
         style="fill:#000000;fill-opacity:1;fill-rule:nonzero;stroke:none"
         id="path116"
         inkscape:connector-curvature="0" /><path
         d="m 1558.79,1120.65 c 0,-31.6 -25.63,-57.23 -57.27,-57.23 -31.6,0 -57.22,25.63 -57.22,57.23 0,31.64 25.62,57.22 57.22,57.22 31.64,0 57.27,-25.58 57.27,-57.22 z"
         style="fill:#000000;fill-opacity:1;fill-rule:nonzero;stroke:none"
         id="path118"
         inkscape:connector-curvature="0" /><path
         d="m 550.512,764.359 c 0,-31.597 -25.59,-57.23 -57.231,-57.23 -31.64,0 -57.23,25.633 -57.23,57.23 0,31.641 25.59,57.262 57.23,57.262 31.641,0 57.231,-25.621 57.231,-57.262 z"
         style="fill:#000000;fill-opacity:1;fill-rule:nonzero;stroke:none"
         id="path120"
         inkscape:connector-curvature="0" /><path
         d="m 1771.02,764.359 c 0,-31.597 -25.63,-57.23 -57.23,-57.23 -31.64,0 -57.27,25.633 -57.27,57.23 0,31.641 25.63,57.262 57.27,57.262 31.6,0 57.23,-25.621 57.23,-57.262 z"
         style="fill:#000000;fill-opacity:1;fill-rule:nonzero;stroke:none"
         id="path122"
         inkscape:connector-curvature="0" /><path
         d="m 957.34,764.359 c 0,-31.597 -25.578,-57.23 -57.219,-57.23 -31.641,0 -57.269,25.633 -57.269,57.23 0,31.641 25.628,57.262 57.269,57.262 31.641,0 57.219,-25.621 57.219,-57.262 z"
         style="fill:#000000;fill-opacity:1;fill-rule:nonzero;stroke:none"
         id="path124"
         inkscape:connector-curvature="0" /><path
         d="m 2177.85,764.359 c 0,-31.597 -25.62,-57.23 -57.26,-57.23 -31.61,0 -57.23,25.633 -57.23,57.23 0,31.641 25.62,57.262 57.23,57.262 31.64,0 57.26,-25.621 57.26,-57.262 z"
         style="fill:#000000;fill-opacity:1;fill-rule:nonzero;stroke:none"
         id="path126"
         inkscape:connector-curvature="0" /><path
         d="m 1364.22,764.359 c 0,-31.597 -25.67,-57.23 -57.31,-57.23 -31.6,0 -57.22,25.633 -57.22,57.23 0,31.641 25.62,57.262 57.22,57.262 31.64,0 57.31,-25.621 57.31,-57.262 z"
         style="fill:#000000;fill-opacity:1;fill-rule:nonzero;stroke:none"
         id="path128"
         inkscape:connector-curvature="0" /><path
         d="m 350.551,418.379 c 0,-31.598 -25.629,-57.219 -57.27,-57.219 -31.601,0 -57.23,25.621 -57.23,57.219 0,31.601 25.629,57.269 57.23,57.269 31.641,0 57.27,-25.668 57.27,-57.269 z"
         style="fill:#000000;fill-opacity:1;fill-rule:nonzero;stroke:none"
         id="path130"
         inkscape:connector-curvature="0" /><path
         d="m 1571.05,418.379 c 0,-31.598 -25.62,-57.219 -57.26,-57.219 -31.6,0 -57.23,25.621 -57.23,57.219 0,31.601 25.63,57.269 57.23,57.269 31.64,0 57.26,-25.668 57.26,-57.269 z"
         style="fill:#000000;fill-opacity:1;fill-rule:nonzero;stroke:none"
         id="path132"
         inkscape:connector-curvature="0" /><path
         d="m 757.379,418.379 c 0,-31.598 -25.617,-57.219 -57.258,-57.219 -31.601,0 -57.23,25.621 -57.23,57.219 0,31.601 25.629,57.269 57.23,57.269 31.641,0 57.258,-25.668 57.258,-57.269 z"
         style="fill:#000000;fill-opacity:1;fill-rule:nonzero;stroke:none"
         id="path134"
         inkscape:connector-curvature="0" /><path
         d="m 1977.89,418.379 c 0,-31.598 -25.62,-57.219 -57.27,-57.219 -31.6,0 -57.22,25.621 -57.22,57.219 0,31.601 25.62,57.269 57.22,57.269 31.65,0 57.27,-25.668 57.27,-57.269 z"
         style="fill:#000000;fill-opacity:1;fill-rule:nonzero;stroke:none"
         id="path136"
         inkscape:connector-curvature="0" /><path
         d="m 1164.22,418.379 c 0,-31.598 -25.63,-57.219 -57.27,-57.219 -31.6,0 -57.22,25.621 -57.22,57.219 0,31.601 25.62,57.269 57.22,57.269 31.64,0 57.27,-25.668 57.27,-57.269 z"
         style="fill:#000000;fill-opacity:1;fill-rule:nonzero;stroke:none"
         id="path138"
         inkscape:connector-curvature="0" /><path
         d="M 140.59,67.25 C 140.59,35.6484 115,9.98047 83.3594,9.98047 51.7188,9.98047 26.1289,35.6484 26.1289,67.25 c 0,31.6406 25.5899,57.262 57.2305,57.262 C 115,124.512 140.59,98.8906 140.59,67.25 z"
         style="fill:#000000;fill-opacity:1;fill-rule:nonzero;stroke:none"
         id="path140"
         inkscape:connector-curvature="0" /><path
         d="m 1361.09,67.25 c 0,-31.6016 -25.62,-57.26953 -57.26,-57.26953 -31.6,0 -57.23,25.66793 -57.23,57.26953 0,31.6406 25.63,57.262 57.23,57.262 31.64,0 57.26,-25.6214 57.26,-57.262 z"
         style="fill:#000000;fill-opacity:1;fill-rule:nonzero;stroke:none"
         id="path142"
         inkscape:connector-curvature="0" /><path
         d="m 547.422,67.25 c 0,-31.6016 -25.582,-57.26953 -57.223,-57.26953 -31.648,0 -57.269,25.66793 -57.269,57.26953 0,31.6406 25.621,57.262 57.269,57.262 31.641,0 57.223,-25.6214 57.223,-57.262 z"
         style="fill:#000000;fill-opacity:1;fill-rule:nonzero;stroke:none"
         id="path144"
         inkscape:connector-curvature="0" /><path
         d="m 1767.93,67.25 c 0,-31.6016 -25.63,-57.26953 -57.27,-57.26953 -31.6,0 -57.22,25.66793 -57.22,57.26953 0,31.6406 25.62,57.262 57.22,57.262 31.64,0 57.27,-25.6214 57.27,-57.262 z"
         style="fill:#000000;fill-opacity:1;fill-rule:nonzero;stroke:none"
         id="path146"
         inkscape:connector-curvature="0" /><path
         d="m 954.262,67.25 c 0,-31.6016 -25.633,-57.26953 -57.274,-57.26953 -31.597,0 -57.218,25.66793 -57.218,57.26953 0,31.6406 25.621,57.262 57.218,57.262 31.641,0 57.274,-25.6214 57.274,-57.262 z"
         style="fill:#000000;fill-opacity:1;fill-rule:nonzero;stroke:none"
         id="path148"
         inkscape:connector-curvature="0" /><path
         d="m 3233.52,342.012 15.19,0 c 3.24,0 4.88,0 4.88,3.25 0,1.789 -1.64,1.789 -4.53,1.789 l -14.29,0 c 5.85,23.008 6.64,26.25 6.64,27.23 0,2.731 -1.92,4.379 -4.65,4.379 -0.51,0 -5.04,-0.16 -6.49,-5.859 l -6.32,-25.75 -15.24,0 c -3.24,0 -4.88,0 -4.88,-3.039 0,-2 1.33,-2 4.61,-2 l 14.18,0 c -11.64,-45.934 -12.31,-48.711 -12.31,-51.641 0,-8.75 6.17,-14.883 14.92,-14.883 16.53,0 25.75,23.633 25.75,24.922 0,1.641 -1.29,1.641 -1.92,1.641 -1.48,0 -1.64,-0.5 -2.46,-2.301 -6.95,-16.801 -15.51,-20.699 -21.01,-20.699 -3.44,0 -5.04,2.109 -5.04,7.461 0,3.859 0.27,5.039 0.97,7.769 l 12,47.731 z"
         style="fill:#000000;fill-opacity:1;fill-rule:nonzero;stroke:none"
         id="path150"
         inkscape:connector-curvature="0" /><path
         d="m 3291.48,389.238 0.08,0.203 0.08,0.149 0.08,0.199 0.08,0.152 0.04,0.118 0.07,0.16 0.08,0.109 0.08,0.16 0,0.16 0.08,0.114 0.12,0.359 0,0.109 0.07,0.239 0.04,0.082 0,0.109 0.04,0.121 0.04,0.078 0,0.121 0.04,0.071 0,0.82 c 0,3.481 -3.16,6.25 -6.68,6.25 -4.34,0 -5.66,-3.551 -6.21,-5.351 l -15,-49.059 c -0.08,-0.199 -0.55,-1.68 -0.55,-1.801 0,-1.332 3.52,-2.5 4.42,-2.5 0.82,0 0.9,0.238 1.72,1.918 l 21.28,46.91 z"
         style="fill:#000000;fill-opacity:1;fill-rule:nonzero;stroke:none"
         id="path152"
         inkscape:connector-curvature="0" /><path
         d="m 3337.15,277.441 -0.08,1.957 -0.04,0.93 -0.08,0.902 -0.35,2.579 -0.19,0.781 -0.16,0.781 -0.23,0.75 -0.24,0.699 -0.51,1.371 -0.31,0.579 -0.27,0.628 -0.35,0.543 -0.36,0.508 -0.35,0.551 -0.78,0.859 -0.43,0.43 -0.43,0.352 -0.43,0.308 -0.51,0.352 -0.46,0.238 -0.51,0.231 -0.51,0.199 -0.51,0.152 -0.54,0.16 -0.55,0.078 -1.21,0.082 c -5.31,0 -8.56,-4.07 -8.56,-8.601 0,-4.328 3.25,-8.551 8.56,-8.551 1.95,0 4.06,0.621 5.7,2.07 0.47,0.352 0.66,0.512 0.82,0.512 0.16,0 0.31,-0.16 0.31,-2.43 0,-11.992 -5.62,-21.711 -11.05,-27.07 -1.76,-1.711 -1.76,-2.109 -1.76,-2.57 0,-1.18 0.82,-1.762 1.64,-1.762 1.76,0 14.73,12.422 14.73,31.402 z"
         style="fill:#000000;fill-opacity:1;fill-rule:nonzero;stroke:none"
         id="path154"
         inkscape:connector-curvature="0" /><path
         d="m 3477.73,369.398 0.75,1.172 0.7,1.051 0.78,1.02 1.41,1.871 0.74,0.789 0.7,0.777 0.67,0.742 1.4,1.25 0.67,0.551 0.66,0.5 0.7,0.469 0.63,0.43 0.66,0.39 0.67,0.352 1.29,0.59 0.62,0.226 0.59,0.242 0.62,0.192 0.63,0.16 1.25,0.238 1.17,0.192 1.21,0.117 2.27,0.109 c 1.91,0.203 2.07,2.902 2.07,3.133 0,1.289 -0.82,1.91 -2.07,1.91 -4.22,0 -8.95,-0.5 -13.32,-0.5 -5.36,0 -10.86,0.5 -16.06,0.5 -0.98,0 -3.05,0 -3.05,-3.082 0,-1.758 1.49,-1.961 2.62,-1.961 4.34,-0.269 7.42,-1.906 7.42,-5.308 0,-2.418 -2.42,-5.969 -2.42,-6.129 l -49.73,-79.02 -10.97,85.578 c 0,2.781 3.67,4.879 11.13,4.879 2.31,0 4.06,0 4.06,3.293 0,1.399 -1.29,1.75 -2.26,1.75 -6.45,0 -13.48,-0.5 -20.08,-0.5 -2.97,0 -5.98,0.149 -8.95,0.149 -2.89,0 -5.97,0.351 -8.75,0.351 -1.09,0 -3.04,0 -3.04,-3.082 0,-1.961 1.44,-1.961 4.02,-1.961 9.1,0 9.26,-1.437 9.77,-5.418 l 12.73,-99.969 c 0.51,-3.281 1.17,-3.711 3.28,-3.711 2.58,0 3.2,0.821 4.57,2.891 l 58.24,92.777 z"
         style="fill:#000000;fill-opacity:1;fill-rule:nonzero;stroke:none"
         id="path156"
         inkscape:connector-curvature="0" /><path
         d="m 3539.61,389.238 0.08,0.203 0.08,0.149 0.07,0.199 0.04,0.152 0.08,0.118 0.08,0.16 0.04,0.109 0.08,0.16 0.04,0.16 0.23,0.704 0,0.117 0.08,0.191 0,0.121 0.04,0.078 0,0.121 0.04,0.071 0,0.16 0.03,0.199 0,0.461 c 0,3.481 -3.2,6.25 -6.71,6.25 -4.34,0 -5.63,-3.551 -6.21,-5.351 l -15,-49.059 c -0.08,-0.199 -0.55,-1.68 -0.55,-1.801 0,-1.332 3.51,-2.5 4.45,-2.5 0.78,0 0.9,0.238 1.68,1.918 l 21.33,46.91 z"
         style="fill:#000000;fill-opacity:1;fill-rule:nonzero;stroke:none"
         id="path158"
         inkscape:connector-curvature="0" /><path
         d="m 3584.84,277.441 0,0.981 -0.04,0.976 -0.07,0.93 -0.08,0.902 -0.35,2.579 -0.16,0.781 -0.19,0.781 -0.2,0.75 -0.27,0.699 -0.24,0.66 -0.27,0.711 -0.27,0.579 -0.32,0.628 -0.35,0.543 -0.35,0.508 -0.35,0.551 -1.17,1.289 -0.43,0.352 -0.9,0.66 -0.51,0.238 -0.55,0.231 -0.5,0.199 -0.51,0.152 -0.55,0.16 -0.55,0.078 -1.17,0.082 c -5.35,0 -8.59,-4.07 -8.59,-8.601 0,-4.328 3.24,-8.551 8.59,-8.551 1.92,0 4.03,0.621 5.67,2.07 0.46,0.352 0.7,0.512 0.82,0.512 0.15,0 0.31,-0.16 0.31,-2.43 0,-11.992 -5.63,-21.711 -11.02,-27.07 -1.75,-1.711 -1.75,-2.109 -1.75,-2.57 0,-1.18 0.78,-1.762 1.6,-1.762 1.79,0 14.72,12.422 14.72,31.402 z"
         style="fill:#000000;fill-opacity:1;fill-rule:nonzero;stroke:none"
         id="path160"
         inkscape:connector-curvature="0" /><path
         d="m 3711.37,376.078 0.23,0.934 0.24,0.859 0.11,0.391 0.08,0.398 0.16,0.352 0.11,0.386 0.12,0.313 0.2,0.269 0.15,0.321 0.16,0.23 0.19,0.27 0.2,0.238 0.43,0.43 0.27,0.191 0.63,0.32 0.35,0.11 0.35,0.16 0.43,0.121 0.43,0.07 0.24,0.039 0.19,0.079 0.55,0.082 0.27,0 0.24,0.039 0.31,0.039 0.27,0.043 0.35,0.039 0.32,0 0.31,0.027 2.62,0 c 2.57,0 4.37,0 4.37,3.133 0,1.41 -0.98,1.91 -2.23,1.91 -4.06,0 -13.9,-0.5 -17.97,-0.5 -5.35,0 -18.51,0.5 -23.82,0.5 -1.49,0 -3.44,0 -3.44,-3.242 0,-1.801 1.33,-1.801 5.55,-1.801 3.71,0 5.35,0 9.33,-0.269 3.91,-0.508 5.04,-1.008 5.04,-3.278 0,-0.941 -0.31,-2.109 -0.62,-3.402 l -18.64,-74.328 c -3.9,-15.711 -14.88,-24.262 -23.32,-24.262 -4.18,0 -12.77,1.602 -15.39,10 0.47,-0.117 1.64,-0.117 1.96,-0.117 6.28,0 10.5,5.469 10.5,10.348 0,5.199 -4.37,6.761 -7.11,6.761 -2.89,0 -10.86,-1.91 -10.86,-12.929 0,-10.043 8.6,-17.622 21.37,-17.622 14.96,0 31.76,10.668 35.82,26.68 l 18.95,75.668 z"
         style="fill:#000000;fill-opacity:1;fill-rule:nonzero;stroke:none"
         id="path162"
         inkscape:connector-curvature="0" /><path
         d="m 3761.95,389.238 0.04,0.203 0.12,0.149 0.08,0.199 0.04,0.152 0.07,0.118 0.08,0.16 0.04,0.109 0.08,0.16 0.04,0.16 0.27,0.821 0,0.191 0.08,0.199 0,0.192 0.04,0.121 0,0.039 0.04,0.199 0,0.461 c 0,3.481 -3.2,6.25 -6.72,6.25 -4.3,0 -5.63,-3.551 -6.21,-5.351 l -14.96,-49.059 c -0.12,-0.199 -0.55,-1.68 -0.55,-1.801 0,-1.332 3.48,-2.5 4.42,-2.5 0.82,0 0.89,0.238 1.64,1.918 l 21.36,46.91 z"
         style="fill:#000000;fill-opacity:1;fill-rule:nonzero;stroke:none"
         id="path164"
         inkscape:connector-curvature="0" /><g
         id="g166"
         transform="scale(10,10)"><text
           transform="matrix(1,0,0,-1,0.757031,310.436)"
           id="text168"><tspan
             style="font-size:19.20000076px;font-variant:normal;font-weight:normal;writing-mode:lr-tb;fill:#000000;fill-opacity:1;fill-rule:nonzero;stroke:none;font-family:Cmr10;-inkscape-font-specification:Cmr10"
             x="0"
             y="0"
             id="tspan170">(</tspan></text>
<text
           transform="matrix(1,0,0,-1,8.210161,310.436)"
           id="text172"><tspan
             style="font-size:19.20000076px;font-variant:normal;font-weight:normal;writing-mode:lr-tb;fill:#000000;fill-opacity:1;fill-rule:nonzero;stroke:none;font-family:Cmmi10;-inkscape-font-specification:Cmmi10"
             x="0"
             y="0"
             id="tspan174">a</tspan></text>
<text
           transform="matrix(1,0,0,-1,18.344561,310.436)"
           id="text176"><tspan
             style="font-size:19.20000076px;font-variant:normal;font-weight:normal;writing-mode:lr-tb;fill:#000000;fill-opacity:1;fill-rule:nonzero;stroke:none;font-family:Cmr10;-inkscape-font-specification:Cmr10"
             x="0"
             y="0"
             id="tspan178">)</tspan><tspan
             style="font-size:19.20000076px;font-variant:normal;font-weight:normal;writing-mode:lr-tb;fill:#000000;fill-opacity:1;fill-rule:nonzero;stroke:none;font-family:Cmr10;-inkscape-font-specification:Cmr10"
             x="162.88699"
             y="-2.9000001"
             id="tspan180">(</tspan></text>
<text
           transform="matrix(1,0,0,-1,188.68469,313.336)"
           id="text182"><tspan
             style="font-size:19.20000076px;font-variant:normal;font-weight:normal;writing-mode:lr-tb;fill:#000000;fill-opacity:1;fill-rule:nonzero;stroke:none;font-family:Cmmi10;-inkscape-font-specification:Cmmi10"
             x="0"
             y="0"
             id="tspan184">b</tspan></text>
<text
           transform="matrix(1,0,0,-1,196.92531,313.336)"
           id="text186"><tspan
             style="font-size:19.20000076px;font-variant:normal;font-weight:normal;writing-mode:lr-tb;fill:#000000;fill-opacity:1;fill-rule:nonzero;stroke:none;font-family:Cmr10;-inkscape-font-specification:Cmr10"
             x="0"
             y="0"
             id="tspan188">)</tspan><tspan
             style="font-size:19.20000076px;font-variant:normal;font-weight:normal;writing-mode:lr-tb;fill:#000000;fill-opacity:1;fill-rule:nonzero;stroke:none;font-family:Cmr10;-inkscape-font-specification:Cmr10"
             x="-195.21899"
             y="180.175"
             id="tspan190">(</tspan></text>
<text
           transform="matrix(1,0,0,-1,9.159441,133.161)"
           id="text192"><tspan
             style="font-size:19.20000076px;font-variant:normal;font-weight:normal;writing-mode:lr-tb;fill:#000000;fill-opacity:1;fill-rule:nonzero;stroke:none;font-family:Cmmi10;-inkscape-font-specification:Cmmi10"
             x="0"
             y="0"
             id="tspan194">c</tspan></text>
<text
           transform="matrix(1,0,0,-1,17.456321,133.161)"
           id="text196"><tspan
             style="font-size:19.20000076px;font-variant:normal;font-weight:normal;writing-mode:lr-tb;fill:#000000;fill-opacity:1;fill-rule:nonzero;stroke:none;font-family:Cmr10;-inkscape-font-specification:Cmr10"
             x="0"
             y="0"
             id="tspan198">)</tspan></text>
</g><path
         d="m 2546.02,660.328 553.36,9.652"
         style="fill:none;stroke:#ff00ff;stroke-width:16;stroke-linecap:butt;stroke-linejoin:miter;stroke-miterlimit:4;stroke-opacity:1;stroke-dasharray:none"
         id="path200"
         inkscape:connector-curvature="0" /><path
         d="m 2546.02,317.762 553.36,9.648"
         style="fill:none;stroke:#00ff00;stroke-width:16;stroke-linecap:butt;stroke-linejoin:miter;stroke-miterlimit:4;stroke-opacity:1;stroke-dasharray:96, 32;stroke-dashoffset:0"
         id="path202"
         inkscape:connector-curvature="0" /></g><path
       style="fill:none;stroke:#000000;stroke-width:1.51999998;stroke-linecap:butt;stroke-linejoin:miter;stroke-miterlimit:4;stroke-opacity:1;stroke-dasharray:none"
       d="m 15.261678,56.11443 c -16.6240739,10.21427 40.980756,74.98239 23.546536,93.15956 24.967001,-7.80733 55.036111,74.50299 74.743986,63.69285"
       id="path3307-0"
       inkscape:connector-curvature="0"
       sodipodi:nodetypes="ccc" /><path
       style="fill:none;stroke:#000000;stroke-width:1.51999998;stroke-linecap:butt;stroke-linejoin:miter;stroke-miterlimit:4;stroke-opacity:1;stroke-dasharray:none"
       d="m 17.450857,48.040394 c 1.043338,-25.423437 87.870533,5.63537 95.074063,-19.755576 7.39911,26.660338 90.94739,-5.516524 90.63372,19.407059"
       id="path3307"
       inkscape:connector-curvature="0"
       sodipodi:nodetypes="ccc" /><text
       xml:space="preserve"
       style="font-size:38.40000153px;font-style:normal;font-variant:normal;font-weight:normal;font-stretch:normal;line-height:125%;letter-spacing:0px;word-spacing:0px;fill:#000000;fill-opacity:1;stroke:none;font-family:'Takao Pゴシック';-inkscape-font-specification:'Takao Pゴシック'"
       x="102.143"
       y="-7.6839623"
       id="text3299"
       sodipodi:linespacing="125%"
       inkscape:transform-center-x="-20.167524"
       inkscape:transform-center-y="7.6507965"
       transform="scale(1,-1)"><tspan
         sodipodi:role="line"
         id="tspan3301"
         x="102.143"
         y="-7.6839623"
         style="font-size:22.39999962px;font-style:normal;font-variant:normal;font-weight:normal;font-stretch:normal;font-family:cmmi10;-inkscape-font-specification:cmmi10">L</tspan></text>
<text
       xml:space="preserve"
       style="font-size:38.40000153px;font-style:normal;font-variant:normal;font-weight:normal;font-stretch:normal;line-height:125%;letter-spacing:0px;word-spacing:0px;fill:#000000;fill-opacity:1;stroke:none;font-family:'Takao Pゴシック';-inkscape-font-specification:'Takao Pゴシック'"
       x="16.604633"
       y="-143.51541"
       id="text3303"
       sodipodi:linespacing="125%"
       transform="scale(1,-1)"><tspan
         sodipodi:role="line"
         id="tspan3305"
         x="16.604633"
         y="-143.51541"
         style="font-size:19.20000076px;font-style:normal;font-variant:normal;font-weight:normal;font-stretch:normal;font-family:cmmi10;-inkscape-font-specification:cmmi10">W</tspan></text>
</g></svg>