<?xml version="1.0" encoding="UTF-8" standalone="no"?>
<!-- Created with Inkscape (http://www.inkscape.org/) -->

<svg
   xmlns:dc="http://purl.org/dc/elements/1.1/"
   xmlns:cc="http://creativecommons.org/ns#"
   xmlns:rdf="http://www.w3.org/1999/02/22-rdf-syntax-ns#"
   xmlns:svg="http://www.w3.org/2000/svg"
   xmlns="http://www.w3.org/2000/svg"
   xmlns:sodipodi="http://sodipodi.sourceforge.net/DTD/sodipodi-0.dtd"
   xmlns:inkscape="http://www.inkscape.org/namespaces/inkscape"
   id="svg2"
   version="1.1"
   inkscape:version="0.48.4 r9939"
   width="850.39368"
   height="347.24408"
   xml:space="preserve"
   sodipodi:docname="chap04_1_honeycomb.svg"><sodipodi:namedview
     pagecolor="#ffffff"
     bordercolor="#666666"
     borderopacity="1"
     objecttolerance="10"
     gridtolerance="10"
     guidetolerance="10"
     inkscape:pageopacity="0"
     inkscape:pageshadow="2"
     inkscape:window-width="2160"
     inkscape:window-height="1191"
     id="namedview4"
     showgrid="false"
     inkscape:zoom="2.1023899"
     inkscape:cx="384.22469"
     inkscape:cy="219.09224"
     inkscape:window-x="0"
     inkscape:window-y="50"
     inkscape:window-maximized="1"
     inkscape:current-layer="g10"
     units="cm" /><metadata
     id="metadata8"><rdf:RDF><cc:Work
         rdf:about=""><dc:format>image/svg+xml</dc:format><dc:type
           rdf:resource="http://purl.org/dc/dcmitype/StillImage" /><dc:title /></cc:Work></rdf:RDF></metadata><defs
     id="defs6"><clipPath
       id="clipPath224"
       clipPathUnits="userSpaceOnUse"><path
         id="path226"
         d="m 1580,2128.84 1620,0 0,410 -1620,0 0,-410 z"
         inkscape:connector-curvature="0" /></clipPath><clipPath
       id="clipPath236"
       clipPathUnits="userSpaceOnUse"><path
         id="path238"
         d="m 790,1718.84 3210,0 0,410 -3210,0 0,-410 z"
         inkscape:connector-curvature="0" /></clipPath><clipPath
       id="clipPath248"
       clipPathUnits="userSpaceOnUse"><path
         id="path250"
         d="m 0,1708.84 4000,0 0,10 -4000,0 0,-10 z"
         inkscape:connector-curvature="0" /></clipPath><clipPath
       id="clipPath260"
       clipPathUnits="userSpaceOnUse"><path
         id="path262"
         d="m 0,888.84 4810,0 0,820 -4810,0 0,-820 z"
         inkscape:connector-curvature="0" /></clipPath><clipPath
       id="clipPath272"
       clipPathUnits="userSpaceOnUse"><path
         id="path274"
         d="m 790,878.84 4020,0 0,10 -4020,0 0,-10 z"
         inkscape:connector-curvature="0" /></clipPath><clipPath
       id="clipPath284"
       clipPathUnits="userSpaceOnUse"><path
         id="path286"
         d="m 790,468.84 3210,0 0,410 -3210,0 0,-410 z"
         inkscape:connector-curvature="0" /></clipPath><clipPath
       id="clipPath296"
       clipPathUnits="userSpaceOnUse"><path
         id="path298"
         d="m 1590,58.8398 1620,0 0,410 -1620,0 0,-410 z"
         inkscape:connector-curvature="0" /></clipPath></defs><g
     transform="matrix(1.25,0,0,-1.25,0,347.2441)"
     inkscape:label="ink_ext_XXXXXX"
     inkscape:groupmode="layer"
     id="g10"><path
       inkscape:connector-curvature="0"
       id="path3332"
       d="M 35.502597,130.89865 272.56614,253.80639"
       style="fill:none;stroke:#000000;stroke-width:1.51999998;stroke-linecap:butt;stroke-linejoin:miter;stroke-miterlimit:4;stroke-opacity:1;stroke-dasharray:1.52, 1.52;stroke-dashoffset:0" /><path
       inkscape:connector-curvature="0"
       id="path3332-4"
       d="M 112.55776,88.470745 349.6213,211.37848"
       style="fill:none;stroke:#000000;stroke-width:1.51999998;stroke-linecap:butt;stroke-linejoin:miter;stroke-miterlimit:4;stroke-opacity:1;stroke-dasharray:1.52, 1.52;stroke-dashoffset:0" /><path
       inkscape:connector-curvature="0"
       id="path3332-5"
       d="M 194.36942,47.755179 431.43296,170.66292"
       style="fill:none;stroke:#000000;stroke-width:1.51999998;stroke-linecap:butt;stroke-linejoin:miter;stroke-miterlimit:4;stroke-opacity:1;stroke-dasharray:1.52, 1.52;stroke-dashoffset:0" /><path
       inkscape:connector-curvature="0"
       id="path3332-56"
       d="M 273.96678,6.0538963 511.03032,128.96164"
       style="fill:none;stroke:#000000;stroke-width:1.51999998;stroke-linecap:butt;stroke-linejoin:miter;stroke-miterlimit:4;stroke-opacity:1;stroke-dasharray:1.52, 1.52;stroke-dashoffset:0" /><path
       sodipodi:nodetypes="cc"
       inkscape:connector-curvature="0"
       id="path3332-56-3"
       d="M 33.712338,130.70839 272.67847,7.0396063"
       style="fill:none;stroke:#000000;stroke-width:1.51999998;stroke-linecap:butt;stroke-linejoin:miter;stroke-miterlimit:4;stroke-opacity:1;stroke-dasharray:1.52, 1.52;stroke-dashoffset:0" /><path
       sodipodi:nodetypes="cc"
       inkscape:connector-curvature="0"
       id="path3332-56-3-1"
       d="M 112.3675,171.42396 351.33364,47.755179"
       style="fill:none;stroke:#000000;stroke-width:1.51999998;stroke-linecap:butt;stroke-linejoin:miter;stroke-miterlimit:4;stroke-opacity:1;stroke-dasharray:1.52, 1.52;stroke-dashoffset:0" /><path
       sodipodi:nodetypes="cc"
       inkscape:connector-curvature="0"
       id="path3332-56-3-5"
       d="M 191.81812,212.52004 430.78426,88.851264"
       style="fill:none;stroke:#000000;stroke-width:1.51999998;stroke-linecap:butt;stroke-linejoin:miter;stroke-miterlimit:4;stroke-opacity:1;stroke-dasharray:1.52, 1.52;stroke-dashoffset:0" /><path
       sodipodi:nodetypes="cc"
       inkscape:connector-curvature="0"
       id="path3332-56-3-51"
       d="M 273.23106,252.5525 512.1972,128.88372"
       style="fill:none;stroke:#000000;stroke-width:1.51999998;stroke-linecap:butt;stroke-linejoin:miter;stroke-miterlimit:4;stroke-opacity:1;stroke-dasharray:1.52, 1.52;stroke-dashoffset:0" /><path
       sodipodi:nodetypes="cc"
       inkscape:connector-curvature="0"
       id="path3332-56-3-9"
       d="M 64.42206,174.84863 83.44804,131.46942"
       style="fill:none;stroke:#0011f4;stroke-width:1.60000002;stroke-linecap:butt;stroke-linejoin:miter;stroke-miterlimit:4;stroke-opacity:1;stroke-dasharray:6.4, 3.2, 1.6, 3.2;stroke-dashoffset:0" /><path
       sodipodi:nodetypes="cc"
       inkscape:connector-curvature="0"
       id="path3332-56-3-9-4"
       d="m 143.9506,213.47135 19.02598,-43.37921"
       style="fill:none;stroke:#0011f4;stroke-width:1.60000002;stroke-linecap:butt;stroke-linejoin:miter;stroke-miterlimit:4;stroke-opacity:1;stroke-dasharray:6.4, 3.2, 1.6, 3.2;stroke-dashoffset:0" /><path
       sodipodi:nodetypes="cc"
       inkscape:connector-curvature="0"
       id="path3332-56-3-9-42"
       d="m 222.7181,255.70899 19.02598,-43.37921"
       style="fill:none;stroke:#0011f4;stroke-width:1.60000002;stroke-linecap:butt;stroke-linejoin:miter;stroke-miterlimit:4;stroke-opacity:1;stroke-dasharray:6.4, 3.2, 1.6, 3.2;stroke-dashoffset:0" /><path
       sodipodi:nodetypes="cc"
       inkscape:connector-curvature="0"
       id="path3332-56-3-9-5"
       d="M 144.33111,130.13761 163.35709,86.758403"
       style="fill:none;stroke:#0011f4;stroke-width:1.60000002;stroke-linecap:butt;stroke-linejoin:miter;stroke-miterlimit:4;stroke-opacity:1;stroke-dasharray:6.4, 3.2, 1.6, 3.2;stroke-dashoffset:0" /><path
       sodipodi:nodetypes="cc"
       inkscape:connector-curvature="0"
       id="path3332-56-3-9-3"
       d="M 223.09862,173.1363 242.1246,129.75709"
       style="fill:none;stroke:#0011f4;stroke-width:1.60000002;stroke-linecap:butt;stroke-linejoin:miter;stroke-miterlimit:4;stroke-opacity:1;stroke-dasharray:6.4, 3.2, 1.6, 3.2;stroke-dashoffset:0" /><path
       sodipodi:nodetypes="cc"
       inkscape:connector-curvature="0"
       id="path3332-56-3-9-7"
       d="m 302.24663,215.37394 19.02598,-43.37921"
       style="fill:none;stroke:#0011f4;stroke-width:1.60000002;stroke-linecap:butt;stroke-linejoin:miter;stroke-miterlimit:4;stroke-opacity:1;stroke-dasharray:6.4, 3.2, 1.6, 3.2;stroke-dashoffset:0" /><path
       sodipodi:nodetypes="cc"
       inkscape:connector-curvature="0"
       id="path3332-56-3-9-0"
       d="m 225.00121,91.324642 19.02598,-43.37921"
       style="fill:none;stroke:#0011f4;stroke-width:1.60000002;stroke-linecap:butt;stroke-linejoin:miter;stroke-miterlimit:4;stroke-opacity:1;stroke-dasharray:6.4, 3.2, 1.6, 3.2;stroke-dashoffset:0" /><path
       sodipodi:nodetypes="cc"
       inkscape:connector-curvature="0"
       id="path3332-56-3-9-2"
       d="M 302.62716,133.18177 321.65314,89.802558"
       style="fill:none;stroke:#0011f4;stroke-width:1.60000002;stroke-linecap:butt;stroke-linejoin:miter;stroke-miterlimit:4;stroke-opacity:1;stroke-dasharray:6.4, 3.2, 1.6, 3.2;stroke-dashoffset:0" /><path
       sodipodi:nodetypes="cc"
       inkscape:connector-curvature="0"
       id="path3332-56-3-9-9"
       d="m 382.53621,174.27786 19.02598,-43.37921"
       style="fill:none;stroke:#0011f4;stroke-width:1.60000002;stroke-linecap:butt;stroke-linejoin:miter;stroke-miterlimit:4;stroke-opacity:1;stroke-dasharray:6.4, 3.2, 1.6, 3.2;stroke-dashoffset:0" /><path
       sodipodi:nodetypes="cc"
       inkscape:connector-curvature="0"
       id="path3332-56-3-9-75"
       d="M 305.29079,47.564919 324.31677,4.1857092"
       style="fill:none;stroke:#0011f4;stroke-width:1.60000002;stroke-linecap:butt;stroke-linejoin:miter;stroke-miterlimit:4;stroke-opacity:1;stroke-dasharray:6.4, 3.2, 1.6, 3.2;stroke-dashoffset:0" /><path
       sodipodi:nodetypes="cc"
       inkscape:connector-curvature="0"
       id="path3332-56-3-9-6"
       d="m 383.29726,87.519448 19.02598,-43.37921"
       style="fill:none;stroke:#0011f4;stroke-width:1.60000002;stroke-linecap:butt;stroke-linejoin:miter;stroke-miterlimit:4;stroke-opacity:1;stroke-dasharray:6.4, 3.2, 1.6, 3.2;stroke-dashoffset:0" /><path
       sodipodi:nodetypes="cc"
       inkscape:connector-curvature="0"
       id="path3332-56-3-9-05"
       d="M 465.48943,129.37657 484.51541,85.997364"
       style="fill:none;stroke:#0011f4;stroke-width:1.60000002;stroke-linecap:butt;stroke-linejoin:miter;stroke-miterlimit:4;stroke-opacity:1;stroke-dasharray:6.4, 3.2, 1.6, 3.2;stroke-dashoffset:0" /><path
       sodipodi:nodetypes="cc"
       inkscape:connector-curvature="0"
       id="path3332-56-3-9-05-3"
       d="m 242.5051,212.3296 62.02466,0"
       style="fill:none;stroke:#e511f4;stroke-width:1.60000002;stroke-linecap:butt;stroke-linejoin:miter;stroke-miterlimit:4;stroke-opacity:1;stroke-dasharray:none;stroke-dashoffset:0" /><path
       sodipodi:nodetypes="cc"
       inkscape:connector-curvature="0"
       id="path3332-56-3-9-05-3-3"
       d="m 162.40579,170.47266 62.02466,0"
       style="fill:none;stroke:#e511f4;stroke-width:1.60000002;stroke-linecap:butt;stroke-linejoin:miter;stroke-miterlimit:4;stroke-opacity:1;stroke-dasharray:none;stroke-dashoffset:0" /><path
       sodipodi:nodetypes="cc"
       inkscape:connector-curvature="0"
       id="path3332-56-3-9-05-3-9"
       d="m 320.70183,170.09214 62.02466,0"
       style="fill:none;stroke:#e511f4;stroke-width:1.60000002;stroke-linecap:butt;stroke-linejoin:miter;stroke-miterlimit:4;stroke-opacity:1;stroke-dasharray:none;stroke-dashoffset:0" /><path
       sodipodi:nodetypes="cc"
       inkscape:connector-curvature="0"
       id="path3332-56-3-9-05-3-32"
       d="m 83.638286,130.51813 62.024664,0"
       style="fill:none;stroke:#e511f4;stroke-width:1.60000002;stroke-linecap:butt;stroke-linejoin:miter;stroke-miterlimit:4;stroke-opacity:1;stroke-dasharray:none;stroke-dashoffset:0" /><path
       sodipodi:nodetypes="cc"
       inkscape:connector-curvature="0"
       id="path3332-56-3-9-05-3-5"
       d="m 241.17329,128.99605 62.02466,0"
       style="fill:none;stroke:#e511f4;stroke-width:1.60000002;stroke-linecap:butt;stroke-linejoin:miter;stroke-miterlimit:4;stroke-opacity:1;stroke-dasharray:none;stroke-dashoffset:0" /><path
       sodipodi:nodetypes="cc"
       inkscape:connector-curvature="0"
       id="path3332-56-3-9-05-3-57"
       d="m 402.13297,128.61553 62.02466,0"
       style="fill:none;stroke:#e511f4;stroke-width:1.60000002;stroke-linecap:butt;stroke-linejoin:miter;stroke-miterlimit:4;stroke-opacity:1;stroke-dasharray:none;stroke-dashoffset:0" /><path
       sodipodi:nodetypes="cc"
       inkscape:connector-curvature="0"
       id="path3332-56-3-9-05-3-0"
       d="m 162.78631,88.280484 62.02466,0"
       style="fill:none;stroke:#e511f4;stroke-width:1.60000002;stroke-linecap:butt;stroke-linejoin:miter;stroke-miterlimit:4;stroke-opacity:1;stroke-dasharray:none;stroke-dashoffset:0" /><path
       sodipodi:nodetypes="cc"
       inkscape:connector-curvature="0"
       id="path3332-56-3-9-05-3-8"
       d="m 323.74598,86.758407 62.02466,0"
       style="fill:none;stroke:#e511f4;stroke-width:1.60000002;stroke-linecap:butt;stroke-linejoin:miter;stroke-miterlimit:4;stroke-opacity:1;stroke-dasharray:none;stroke-dashoffset:0" /><path
       sodipodi:nodetypes="cc"
       inkscape:connector-curvature="0"
       id="path3332-56-3-9-05-3-6"
       d="m 241.93433,46.423358 62.02466,0"
       style="fill:none;stroke:#e511f4;stroke-width:1.60000002;stroke-linecap:butt;stroke-linejoin:miter;stroke-miterlimit:4;stroke-opacity:1;stroke-dasharray:none;stroke-dashoffset:0" /><path
       sodipodi:nodetypes="cc"
       inkscape:connector-curvature="0"
       id="path3332-56-3-9-05-3-32-1"
       d="m 224.04992,171.99473 18.64546,40.71557"
       style="fill:none;stroke:#0cc419;stroke-width:1.60000002;stroke-linecap:butt;stroke-linejoin:miter;stroke-miterlimit:4;stroke-opacity:1;stroke-dasharray:4.8, 4.8;stroke-dashoffset:0" /><path
       sodipodi:nodetypes="cc"
       inkscape:connector-curvature="0"
       id="path3332-56-3-9-05-3-32-1-7"
       d="m 143.76034,130.70839 18.64546,40.71557"
       style="fill:none;stroke:#0cc419;stroke-width:1.60000002;stroke-linecap:butt;stroke-linejoin:miter;stroke-miterlimit:4;stroke-opacity:1;stroke-dasharray:4.8, 4.8;stroke-dashoffset:0" /><path
       sodipodi:nodetypes="cc"
       inkscape:connector-curvature="0"
       id="path3332-56-3-9-05-3-32-1-3"
       d="m 66.134396,90.753859 18.64546,40.715571"
       style="fill:none;stroke:#0cc419;stroke-width:1.60000002;stroke-linecap:butt;stroke-linejoin:miter;stroke-miterlimit:4;stroke-opacity:1;stroke-dasharray:4.8, 4.8;stroke-dashoffset:0" /><path
       sodipodi:nodetypes="cc"
       inkscape:connector-curvature="0"
       id="path3332-56-3-9-05-3-32-1-6"
       d="m 143.76034,49.657771 18.64546,40.71557"
       style="fill:none;stroke:#0cc419;stroke-width:1.60000002;stroke-linecap:butt;stroke-linejoin:miter;stroke-miterlimit:4;stroke-opacity:1;stroke-dasharray:4.8, 4.8;stroke-dashoffset:0" /><path
       sodipodi:nodetypes="cc"
       inkscape:connector-curvature="0"
       id="path3332-56-3-9-05-3-32-1-2"
       d="M 224.81095,8.1811644 243.45641,48.896734"
       style="fill:none;stroke:#0cc419;stroke-width:1.60000002;stroke-linecap:butt;stroke-linejoin:miter;stroke-miterlimit:4;stroke-opacity:1;stroke-dasharray:4.8, 4.8;stroke-dashoffset:0" /><path
       sodipodi:nodetypes="cc"
       inkscape:connector-curvature="0"
       id="path3332-56-3-9-05-3-32-1-8"
       d="m 222.90836,88.470743 18.64546,40.715577"
       style="fill:none;stroke:#0cc419;stroke-width:1.60000002;stroke-linecap:butt;stroke-linejoin:miter;stroke-miterlimit:4;stroke-opacity:1;stroke-dasharray:4.8, 4.8;stroke-dashoffset:0" /><path
       sodipodi:nodetypes="cc"
       inkscape:connector-curvature="0"
       id="path3332-56-3-9-05-3-32-1-1"
       d="M 305.10054,47.374655 323.746,88.090225"
       style="fill:none;stroke:#0cc419;stroke-width:1.60000002;stroke-linecap:butt;stroke-linejoin:miter;stroke-miterlimit:4;stroke-opacity:1;stroke-dasharray:4.8, 4.8;stroke-dashoffset:0" /><path
       sodipodi:nodetypes="cc"
       inkscape:connector-curvature="0"
       id="path3332-56-3-9-05-3-32-1-9"
       d="m 304.72002,132.23046 18.64546,40.71557"
       style="fill:none;stroke:#0cc419;stroke-width:1.60000002;stroke-linecap:butt;stroke-linejoin:miter;stroke-miterlimit:4;stroke-opacity:1;stroke-dasharray:4.8, 4.8;stroke-dashoffset:0" /><path
       sodipodi:nodetypes="cc"
       inkscape:connector-curvature="0"
       id="path3332-56-3-9-05-3-32-1-95"
       d="m 384.62907,171.42395 18.64546,40.71557"
       style="fill:none;stroke:#0cc419;stroke-width:1.60000002;stroke-linecap:butt;stroke-linejoin:miter;stroke-miterlimit:4;stroke-opacity:1;stroke-dasharray:4.8, 4.8;stroke-dashoffset:0" /><path
       sodipodi:nodetypes="cc"
       inkscape:connector-curvature="0"
       id="path3332-56-3-9-05-3-32-1-88"
       d="m 385.0096,88.090223 18.64546,40.715567"
       style="fill:none;stroke:#0cc419;stroke-width:1.60000002;stroke-linecap:butt;stroke-linejoin:miter;stroke-miterlimit:4;stroke-opacity:1;stroke-dasharray:4.8, 4.8;stroke-dashoffset:0" /><path
       sodipodi:nodetypes="cc"
       inkscape:connector-curvature="0"
       id="path3332-56-3-9-05-3-32-1-0"
       d="m 465.29917,128.8058 18.64546,40.71557"
       style="fill:none;stroke:#0cc419;stroke-width:1.60000002;stroke-linecap:butt;stroke-linejoin:miter;stroke-miterlimit:4;stroke-opacity:1;stroke-dasharray:4.8, 4.8;stroke-dashoffset:0" /><path
       sodipodi:nodetypes="cc"
       inkscape:connector-curvature="0"
       id="path3332-56-3-9-05-3-32-1-4"
       d="m 303.57846,213.28109 18.64546,40.71557"
       style="fill:none;stroke:#0cc419;stroke-width:1.60000002;stroke-linecap:butt;stroke-linejoin:miter;stroke-miterlimit:4;stroke-opacity:1;stroke-dasharray:4.8, 4.8;stroke-dashoffset:0" /><path
       sodipodi:type="arc"
       style="opacity:0.98999999;fill:#000000;fill-opacity:1;stroke:#040000;stroke-width:1.5;stroke-linecap:butt;stroke-linejoin:bevel;stroke-miterlimit:4;stroke-opacity:1;stroke-dasharray:none;stroke-dashoffset:0"
       id="path3016"
       sodipodi:cx="129.04698"
       sodipodi:cy="-14.122453"
       sodipodi:rx="9.3439112"
       sodipodi:ry="9.3439112"
       d="m 138.39089,-14.122453 a 9.3439112,9.3439112 0 1 1 -18.68782,0 9.3439112,9.3439112 0 1 1 18.68782,0 z"
       transform="matrix(0.8,0,0,-0.8,-19.469947,119.50724)" /><path
       sodipodi:type="arc"
       style="opacity:0.98999999;fill:#000000;fill-opacity:1;stroke:#040000;stroke-width:1.5;stroke-linecap:butt;stroke-linejoin:bevel;stroke-miterlimit:4;stroke-opacity:1;stroke-dasharray:none;stroke-dashoffset:0"
       id="path3016-0"
       sodipodi:cx="129.04698"
       sodipodi:cy="-14.122453"
       sodipodi:rx="9.3439112"
       sodipodi:ry="9.3439112"
       d="m 138.39089,-14.122453 a 9.3439112,9.3439112 0 1 1 -18.68782,0 9.3439112,9.3439112 0 1 1 18.68782,0 z"
       transform="matrix(0.8,0,0,-0.8,40.713019,118.83965)" /><path
       sodipodi:type="arc"
       style="opacity:0.98999999;fill:#000000;fill-opacity:1;stroke:#040000;stroke-width:1.5;stroke-linecap:butt;stroke-linejoin:bevel;stroke-miterlimit:4;stroke-opacity:1;stroke-dasharray:none;stroke-dashoffset:0"
       id="path3016-0-8"
       sodipodi:cx="129.04698"
       sodipodi:cy="-14.122453"
       sodipodi:rx="9.3439112"
       sodipodi:ry="9.3439112"
       d="m 138.39089,-14.122453 a 9.3439112,9.3439112 0 1 1 -18.68782,0 9.3439112,9.3439112 0 1 1 18.68782,0 z"
       transform="matrix(0.8,0,0,-0.8,60.119505,159.1747)" /><path
       sodipodi:type="arc"
       style="opacity:0.98999999;fill:#000000;fill-opacity:1;stroke:#040000;stroke-width:1.5;stroke-linecap:butt;stroke-linejoin:bevel;stroke-miterlimit:4;stroke-opacity:1;stroke-dasharray:none;stroke-dashoffset:0"
       id="path3016-0-7"
       sodipodi:cx="129.04698"
       sodipodi:cy="-14.122453"
       sodipodi:rx="9.3439112"
       sodipodi:ry="9.3439112"
       d="m 138.39089,-14.122453 a 9.3439112,9.3439112 0 1 1 -18.68782,0 9.3439112,9.3439112 0 1 1 18.68782,0 z"
       transform="matrix(0.8,0,0,-0.8,118.71948,160.31625)" /><path
       sodipodi:type="arc"
       style="opacity:0.98999999;fill:#000000;fill-opacity:1;stroke:#040000;stroke-width:1.5;stroke-linecap:butt;stroke-linejoin:bevel;stroke-miterlimit:4;stroke-opacity:1;stroke-dasharray:none;stroke-dashoffset:0"
       id="path3016-0-9"
       sodipodi:cx="129.04698"
       sodipodi:cy="-14.122453"
       sodipodi:rx="9.3439112"
       sodipodi:ry="9.3439112"
       d="m 138.39089,-14.122453 a 9.3439112,9.3439112 0 1 1 -18.68782,0 9.3439112,9.3439112 0 1 1 18.68782,0 z"
       transform="matrix(0.8,0,0,-0.8,139.64804,201.41234)" /><path
       sodipodi:type="arc"
       style="opacity:0.98999999;fill:#000000;fill-opacity:1;stroke:#040000;stroke-width:1.5;stroke-linecap:butt;stroke-linejoin:bevel;stroke-miterlimit:4;stroke-opacity:1;stroke-dasharray:none;stroke-dashoffset:0"
       id="path3016-0-5"
       sodipodi:cx="129.04698"
       sodipodi:cy="-14.122453"
       sodipodi:rx="9.3439112"
       sodipodi:ry="9.3439112"
       d="m 138.39089,-14.122453 a 9.3439112,9.3439112 0 1 1 -18.68782,0 9.3439112,9.3439112 0 1 1 18.68782,0 z"
       transform="matrix(0.8,0,0,-0.8,200.53114,201.03182)" /><path
       sodipodi:type="arc"
       style="opacity:0.98999999;fill:#000000;fill-opacity:1;stroke:#040000;stroke-width:1.5;stroke-linecap:butt;stroke-linejoin:bevel;stroke-miterlimit:4;stroke-opacity:1;stroke-dasharray:none;stroke-dashoffset:0"
       id="path3016-0-6"
       sodipodi:cx="129.04698"
       sodipodi:cy="-14.122453"
       sodipodi:rx="9.3439112"
       sodipodi:ry="9.3439112"
       d="m 138.39089,-14.122453 a 9.3439112,9.3439112 0 1 1 -18.68782,0 9.3439112,9.3439112 0 1 1 18.68782,0 z"
       transform="matrix(0.8,0,0,-0.8,137.74545,117.31757)" /><path
       sodipodi:type="arc"
       style="opacity:0.98999999;fill:#000000;fill-opacity:1;stroke:#040000;stroke-width:1.5;stroke-linecap:butt;stroke-linejoin:bevel;stroke-miterlimit:4;stroke-opacity:1;stroke-dasharray:none;stroke-dashoffset:0"
       id="path3016-0-3"
       sodipodi:cx="129.04698"
       sodipodi:cy="-14.122453"
       sodipodi:rx="9.3439112"
       sodipodi:ry="9.3439112"
       d="m 138.39089,-14.122453 a 9.3439112,9.3439112 0 1 1 -18.68782,0 9.3439112,9.3439112 0 1 1 18.68782,0 z"
       transform="matrix(0.8,0,0,-0.8,59.738986,77.74356)" /><path
       sodipodi:type="arc"
       style="opacity:0.98999999;fill:#000000;fill-opacity:1;stroke:#040000;stroke-width:1.5;stroke-linecap:butt;stroke-linejoin:bevel;stroke-miterlimit:4;stroke-opacity:1;stroke-dasharray:none;stroke-dashoffset:0"
       id="path3016-0-32"
       sodipodi:cx="129.04698"
       sodipodi:cy="-14.122453"
       sodipodi:rx="9.3439112"
       sodipodi:ry="9.3439112"
       d="m 138.39089,-14.122453 a 9.3439112,9.3439112 0 1 1 -18.68782,0 9.3439112,9.3439112 0 1 1 18.68782,0 z"
       transform="matrix(0.8,0,0,-0.8,119.86104,77.363041)" /><path
       sodipodi:type="arc"
       style="opacity:0.98999999;fill:#000000;fill-opacity:1;stroke:#040000;stroke-width:1.5;stroke-linecap:butt;stroke-linejoin:bevel;stroke-miterlimit:4;stroke-opacity:1;stroke-dasharray:none;stroke-dashoffset:0"
       id="path3016-0-39"
       sodipodi:cx="129.04698"
       sodipodi:cy="-14.122453"
       sodipodi:rx="9.3439112"
       sodipodi:ry="9.3439112"
       d="m 138.39089,-14.122453 a 9.3439112,9.3439112 0 1 1 -18.68782,0 9.3439112,9.3439112 0 1 1 18.68782,0 z"
       transform="matrix(0.8,0,0,-0.8,200.91166,118.45913)" /><path
       sodipodi:type="arc"
       style="opacity:0.98999999;fill:#000000;fill-opacity:1;stroke:#040000;stroke-width:1.5;stroke-linecap:butt;stroke-linejoin:bevel;stroke-miterlimit:4;stroke-opacity:1;stroke-dasharray:none;stroke-dashoffset:0"
       id="path3016-0-4"
       sodipodi:cx="129.04698"
       sodipodi:cy="-14.122453"
       sodipodi:rx="9.3439112"
       sodipodi:ry="9.3439112"
       d="m 138.39089,-14.122453 a 9.3439112,9.3439112 0 1 1 -18.68782,0 9.3439112,9.3439112 0 1 1 18.68782,0 z"
       transform="matrix(0.8,0,0,-0.8,217.65451,159.93574)" /><path
       sodipodi:type="arc"
       style="opacity:0.98999999;fill:#000000;fill-opacity:1;stroke:#040000;stroke-width:1.5;stroke-linecap:butt;stroke-linejoin:bevel;stroke-miterlimit:4;stroke-opacity:1;stroke-dasharray:none;stroke-dashoffset:0"
       id="path3016-0-0"
       sodipodi:cx="129.04698"
       sodipodi:cy="-14.122453"
       sodipodi:rx="9.3439112"
       sodipodi:ry="9.3439112"
       d="m 138.39089,-14.122453 a 9.3439112,9.3439112 0 1 1 -18.68782,0 9.3439112,9.3439112 0 1 1 18.68782,0 z"
       transform="matrix(0.8,0,0,-0.8,280.82072,159.1747)" /><path
       sodipodi:type="arc"
       style="opacity:0.98999999;fill:#000000;fill-opacity:1;stroke:#040000;stroke-width:1.5;stroke-linecap:butt;stroke-linejoin:bevel;stroke-miterlimit:4;stroke-opacity:1;stroke-dasharray:none;stroke-dashoffset:0"
       id="path3016-0-63"
       sodipodi:cx="129.04698"
       sodipodi:cy="-14.122453"
       sodipodi:rx="9.3439112"
       sodipodi:ry="9.3439112"
       d="m 138.39089,-14.122453 a 9.3439112,9.3439112 0 1 1 -18.68782,0 9.3439112,9.3439112 0 1 1 18.68782,0 z"
       transform="matrix(0.8,0,0,-0.8,219.93762,74.318886)" /><path
       sodipodi:type="arc"
       style="opacity:0.98999999;fill:#000000;fill-opacity:1;stroke:#040000;stroke-width:1.5;stroke-linecap:butt;stroke-linejoin:bevel;stroke-miterlimit:4;stroke-opacity:1;stroke-dasharray:none;stroke-dashoffset:0"
       id="path3016-0-06"
       sodipodi:cx="129.04698"
       sodipodi:cy="-14.122453"
       sodipodi:rx="9.3439112"
       sodipodi:ry="9.3439112"
       d="m 138.39089,-14.122453 a 9.3439112,9.3439112 0 1 1 -18.68782,0 9.3439112,9.3439112 0 1 1 18.68782,0 z"
       transform="matrix(0.8,0,0,-0.8,200.91166,36.647473)" /><path
       sodipodi:type="arc"
       style="opacity:0.98999999;fill:#000000;fill-opacity:1;stroke:#040000;stroke-width:1.5;stroke-linecap:butt;stroke-linejoin:bevel;stroke-miterlimit:4;stroke-opacity:1;stroke-dasharray:none;stroke-dashoffset:0"
       id="path3016-0-1"
       sodipodi:cx="129.04698"
       sodipodi:cy="-14.122453"
       sodipodi:rx="9.3439112"
       sodipodi:ry="9.3439112"
       d="m 138.39089,-14.122453 a 9.3439112,9.3439112 0 1 1 -18.68782,0 9.3439112,9.3439112 0 1 1 18.68782,0 z"
       transform="matrix(0.8,0,0,-0.8,140.40908,35.886434)" /><path
       sodipodi:type="arc"
       style="opacity:0.98999999;fill:#000000;fill-opacity:1;stroke:#040000;stroke-width:1.5;stroke-linecap:butt;stroke-linejoin:bevel;stroke-miterlimit:4;stroke-opacity:1;stroke-dasharray:none;stroke-dashoffset:0"
       id="path3016-0-34"
       sodipodi:cx="129.04698"
       sodipodi:cy="-14.122453"
       sodipodi:rx="9.3439112"
       sodipodi:ry="9.3439112"
       d="m 138.39089,-14.122453 a 9.3439112,9.3439112 0 1 1 -18.68782,0 9.3439112,9.3439112 0 1 1 18.68782,0 z"
       transform="matrix(0.8,0,0,-0.8,279.29864,76.982522)" /><path
       sodipodi:type="arc"
       style="opacity:0.98999999;fill:#000000;fill-opacity:1;stroke:#040000;stroke-width:1.5;stroke-linecap:butt;stroke-linejoin:bevel;stroke-miterlimit:4;stroke-opacity:1;stroke-dasharray:none;stroke-dashoffset:0"
       id="path3016-0-49"
       sodipodi:cx="129.04698"
       sodipodi:cy="-14.122453"
       sodipodi:rx="9.3439112"
       sodipodi:ry="9.3439112"
       d="m 138.39089,-14.122453 a 9.3439112,9.3439112 0 1 1 -18.68782,0 9.3439112,9.3439112 0 1 1 18.68782,0 z"
       transform="matrix(0.8,0,0,-0.8,299.46616,117.69809)" /><path
       sodipodi:type="arc"
       style="opacity:0.98999999;fill:#000000;fill-opacity:1;stroke:#040000;stroke-width:1.5;stroke-linecap:butt;stroke-linejoin:bevel;stroke-miterlimit:4;stroke-opacity:1;stroke-dasharray:none;stroke-dashoffset:0"
       id="path3016-0-83"
       sodipodi:cx="129.04698"
       sodipodi:cy="-14.122453"
       sodipodi:rx="9.3439112"
       sodipodi:ry="9.3439112"
       d="m 138.39089,-14.122453 a 9.3439112,9.3439112 0 1 1 -18.68782,0 9.3439112,9.3439112 0 1 1 18.68782,0 z"
       transform="matrix(0.8,0,0,-0.8,361.49081,117.69809)" /><g
       id="g5812"
       transform="matrix(1,0,0,-1,367.7822,488.98809)"><g
         word-spacing="normal"
         letter-spacing="normal"
         font-size-adjust="none"
         font-stretch="normal"
         font-weight="normal"
         font-variant="normal"
         font-style="normal"
         stroke-miterlimit="10.433"
         xml:space="preserve"
         transform="matrix(0.45357143,0,0,-0.45357143,-79.375,605.625)"
         id="content"
         style="font-style:normal;font-variant:normal;font-weight:normal;font-stretch:normal;letter-spacing:normal;word-spacing:normal;text-anchor:start;fill:none;stroke:#000000;stroke-linecap:butt;stroke-linejoin:miter;stroke-miterlimit:10.43299961;stroke-opacity:1;stroke-dasharray:none;stroke-dashoffset:0"><path
           id="path5815"
           d="m 465.79,426.12 h 4.68 c 0.99,0 1.49,0 1.49,1 0,0.55 -0.5,0.55 -1.39,0.55 h -4.39 c 1.79,7.08 2.04,8.08 2.04,8.37 0,0.85 -0.59,1.35 -1.43,1.35 -0.16,0 -1.55,-0.05 -2,-1.8 l -1.94,-7.92 h -4.69 c -1,0 -1.5,0 -1.5,-0.94 0,-0.61 0.41,-0.61 1.41,-0.61 h 4.37 c -3.58,-14.14 -3.78,-14.98 -3.78,-15.89 0,-2.69 1.89,-4.58 4.58,-4.58 5.08,0 7.92,7.27 7.92,7.67 0,0.5 -0.39,0.5 -0.59,0.5 -0.46,0 -0.5,-0.15 -0.75,-0.7 -2.14,-5.17 -4.78,-6.37 -6.47,-6.37 -1.05,0 -1.55,0.65 -1.55,2.29 0,1.19 0.09,1.55 0.3,2.39 z"
           inkscape:connector-curvature="0"
           style="fill:#000000;stroke-width:0" /><path
           id="path5817"
           d="m 491.5,409.87 0,0.71 -0.02,0.68 -0.03,0.66 -0.04,0.64 -0.06,0.62 -0.07,0.6 -0.1,0.57 -0.1,0.56 -0.13,0.55 -0.15,0.53 -0.17,0.51 -0.19,0.5 -0.21,0.49 -0.24,0.48 -0.26,0.47 -0.14,0.23 -0.15,0.23 c -1.08,1.61 -3.23,3 -6.03,3 v -0.98 c 1.89,0 3.7,-1.14 4.33,-3.17 0.56,-1.88 0.59,-4.39 0.59,-7.43 0,-2.57 0,-5.15 -0.45,-7.34 -0.7,-3.17 -3.06,-3.94 -4.47,-3.94 h 0 c -1.59,0 -3.72,0.94 -4.42,3.8 -0.49,2.05 -0.49,4.91 -0.49,7.48 0,2.55 0,5.21 0.52,7.11 0.73,2.75 2.97,3.49 4.39,3.49 v 0.98 c -8.08,0 -8.08,-9.51 -8.08,-12.03 0,-2.5 0,-11.81 8.08,-11.81 8.09,0 8.09,9.31 8.09,11.81 z"
           inkscape:connector-curvature="0"
           style="fill:#000000;stroke-width:0" /><path
           id="path5819"
           d="m 505.95,406.25 0,0.3 -0.02,0.3 -0.01,0.29 -0.03,0.28 -0.03,0.27 -0.04,0.26 -0.04,0.26 -0.05,0.24 -0.06,0.24 -0.07,0.23 -0.07,0.22 -0.07,0.21 -0.09,0.2 -0.09,0.19 -0.09,0.19 -0.1,0.17 -0.11,0.16 -0.11,0.16 -0.12,0.14 -0.12,0.13 -0.13,0.13 -0.13,0.11 -0.14,0.1 -0.15,0.1 -0.14,0.08 -0.16,0.07 -0.16,0.06 -0.16,0.05 -0.17,0.04 -0.17,0.03 -0.18,0.01 -0.18,0.01 c -1.64,0 -2.64,-1.25 -2.64,-2.64 0,-1.34 1,-2.64 2.64,-2.64 0.6,0 1.25,0.2 1.75,0.64 0.14,0.11 0.2,0.16 0.25,0.16 0.05,0 0.1,-0.05 0.1,-0.75 0,-3.69 -1.74,-6.68 -3.4,-8.32 -0.54,-0.54 -0.54,-0.65 -0.54,-0.79 0,-0.36 0.25,-0.55 0.5,-0.55 0.54,0 4.53,3.83 4.53,9.66 z"
           inkscape:connector-curvature="0"
           style="fill:#000000;stroke-width:0" /><path
           id="path5821"
           d="m 549.2,434.54 0.23,0.36 0.22,0.33 0.23,0.31 0.22,0.29 0.22,0.28 0.22,0.25 0.22,0.24 0.21,0.22 0.22,0.2 0.21,0.19 0.21,0.17 0.2,0.16 0.21,0.14 0.2,0.13 0.2,0.12 0.2,0.11 0.2,0.09 0.2,0.09 0.19,0.07 0.19,0.07 0.2,0.06 0.18,0.05 0.19,0.04 0.19,0.03 0.18,0.03 0.19,0.03 0.36,0.04 0.35,0.02 0.35,0.02 c 0.59,0.05 0.64,0.89 0.64,0.96 0,0.39 -0.25,0.59 -0.64,0.59 -1.3,0 -2.75,-0.16 -4.09,-0.16 -1.65,0 -3.35,0.16 -4.94,0.16 -0.3,0 -0.94,0 -0.94,-0.95 0,-0.55 0.45,-0.6 0.8,-0.6 1.34,-0.09 2.3,-0.59 2.3,-1.64 0,-0.75 -0.75,-1.84 -0.75,-1.89 l -15.3,-24.31 -3.39,26.34 c 0,0.85 1.14,1.5 3.44,1.5 0.7,0 1.25,0 1.25,1 0,0.44 -0.41,0.55 -0.71,0.55 -1.98,0 -4.14,-0.16 -6.17,-0.16 -0.91,0 -1.84,0.05 -2.75,0.05 -0.89,0 -1.84,0.11 -2.69,0.11 -0.34,0 -0.93,0 -0.93,-0.95 0,-0.6 0.43,-0.6 1.23,-0.6 2.8,0 2.84,-0.45 3,-1.68 l 3.92,-30.75 c 0.16,-1 0.36,-1.14 1,-1.14 0.8,0 1,0.25 1.41,0.89 z"
           inkscape:connector-curvature="0"
           style="fill:#000000;stroke-width:0" /><path
           id="path5823"
           d="m 564.95,409.87 -0.01,0.71 -0.02,0.68 -0.03,0.66 -0.04,0.64 -0.06,0.62 -0.07,0.6 -0.09,0.57 -0.11,0.56 -0.13,0.55 -0.15,0.53 -0.17,0.51 -0.19,0.5 -0.21,0.49 -0.24,0.48 -0.26,0.47 -0.14,0.23 -0.15,0.23 c -1.08,1.61 -3.23,3 -6.03,3 v -0.98 c 1.89,0 3.7,-1.14 4.33,-3.17 0.56,-1.88 0.59,-4.39 0.59,-7.43 0,-2.57 0,-5.15 -0.45,-7.34 -0.7,-3.17 -3.06,-3.94 -4.47,-3.94 h 0 c -1.59,0 -3.72,0.94 -4.42,3.8 -0.48,2.05 -0.48,4.91 -0.48,7.48 0,2.55 0,5.21 0.51,7.11 0.74,2.75 2.97,3.49 4.39,3.49 v 0.98 c -8.08,0 -8.08,-9.51 -8.08,-12.03 0,-2.5 0,-11.81 8.08,-11.81 8.1,0 8.1,9.31 8.1,11.81 z"
           inkscape:connector-curvature="0"
           style="fill:#000000;stroke-width:0" /><path
           id="path5825"
           d="m 579.51,406.25 -0.01,0.3 -0.01,0.3 -0.01,0.29 -0.03,0.28 -0.03,0.27 -0.04,0.26 -0.04,0.26 -0.06,0.24 -0.05,0.24 -0.07,0.23 -0.07,0.22 -0.08,0.21 -0.08,0.2 -0.09,0.19 -0.09,0.19 -0.1,0.17 -0.11,0.16 -0.11,0.16 -0.12,0.14 -0.12,0.13 -0.13,0.13 -0.14,0.11 -0.13,0.1 -0.15,0.1 -0.15,0.08 -0.15,0.07 -0.16,0.06 -0.16,0.05 -0.17,0.04 -0.17,0.03 -0.18,0.01 -0.18,0.01 c -1.64,0 -2.64,-1.25 -2.64,-2.64 0,-1.34 1,-2.64 2.64,-2.64 0.59,0 1.25,0.2 1.75,0.64 0.14,0.11 0.2,0.16 0.25,0.16 0.05,0 0.09,-0.05 0.09,-0.75 0,-3.69 -1.73,-6.68 -3.39,-8.32 -0.54,-0.54 -0.54,-0.65 -0.54,-0.79 0,-0.36 0.25,-0.55 0.5,-0.55 0.54,0 4.53,3.83 4.53,9.66 z"
           inkscape:connector-curvature="0"
           style="fill:#000000;stroke-width:0" /><path
           id="path5827"
           d="m 618.43,436.59 0.04,0.15 0.03,0.14 0.04,0.14 0.03,0.13 0.04,0.12 0.03,0.12 0.04,0.11 0.04,0.11 0.04,0.1 0.05,0.09 0.05,0.09 0.05,0.08 0.06,0.08 0.06,0.07 0.07,0.07 0.07,0.06 0.09,0.06 0.08,0.05 0.1,0.05 0.11,0.04 0.11,0.04 0.12,0.04 0.14,0.03 0.07,0.01 0.07,0.02 0.08,0.01 0.08,0.01 0.08,0.01 0.09,0.01 0.08,0.01 0.09,0.01 0.1,0.01 0.1,0 0.1,0.01 0.1,0 0.11,0.01 0.11,0 0.12,0 0.12,0 0.12,0 0.12,0 c 0.8,0 1.35,0 1.35,0.96 0,0.43 -0.3,0.59 -0.69,0.59 -1.25,0 -4.28,-0.16 -5.53,-0.16 -1.64,0 -5.69,0.16 -7.33,0.16 -0.45,0 -1.05,0 -1.05,-1 0,-0.55 0.41,-0.55 1.71,-0.55 1.14,0 1.64,0 2.87,-0.09 1.21,-0.16 1.55,-0.31 1.55,-1 0,-0.3 -0.09,-0.66 -0.19,-1.05 l -5.73,-22.87 c -1.21,-4.83 -4.58,-7.47 -7.17,-7.47 -1.3,0 -3.94,0.5 -4.74,3.09 0.14,-0.04 0.5,-0.04 0.59,-0.04 1.94,0 3.24,1.68 3.24,3.18 0,1.6 -1.34,2.08 -2.19,2.08 -0.89,0 -3.34,-0.59 -3.34,-3.98 0,-3.08 2.64,-5.42 6.58,-5.42 4.59,0 9.76,3.28 11.01,8.21 z"
           inkscape:connector-curvature="0"
           style="fill:#000000;stroke-width:0" /><path
           id="path5829"
           d="m 627.75,402.45 -0.03,-0.11 -0.04,-0.12 -0.05,-0.12 -0.05,-0.12 -0.05,-0.12 -0.06,-0.13 -0.06,-0.13 -0.07,-0.12 -0.07,-0.13 -0.07,-0.13 -0.08,-0.13 -0.09,-0.12 -0.09,-0.13 -0.09,-0.12 -0.1,-0.12 -0.1,-0.12 -0.11,-0.12 -0.11,-0.11 -0.11,-0.1 -0.12,-0.1 -0.12,-0.1 -0.13,-0.09 -0.13,-0.08 -0.13,-0.08 -0.14,-0.07 -0.14,-0.06 -0.14,-0.05 -0.15,-0.05 -0.16,-0.04 -0.15,-0.02 -0.16,-0.02 -0.17,0 c -0.1,0 -1.15,0 -1.89,0.48 1.44,0.45 1.53,1.72 1.53,1.92 0,0.77 -0.59,1.3 -1.39,1.3 -0.96,0 -1.98,-0.84 -1.98,-2.14 0,-1.74 1.95,-2.53 3.66,-2.53 1.61,0 3.03,1 3.9,2.47 0.83,-1.85 2.75,-2.47 4.14,-2.47 4.02,0 6.14,4.34 6.14,5.33 0,0.45 -0.45,0.45 -0.56,0.45 -0.48,0 -0.51,-0.17 -0.65,-0.59 -0.74,-2.41 -2.83,-4.22 -4.79,-4.22 -1.39,0 -2.12,0.93 -2.12,2.26 0,0.91 0.84,4.08 1.81,7.96 0.7,2.67 2.27,3.54 3.42,3.54 0.07,0 1.14,0 1.88,-0.48 -1.11,-0.31 -1.53,-1.3 -1.53,-1.92 0,-0.77 0.59,-1.29 1.39,-1.29 0.81,0 1.95,0.66 1.95,2.13 0,1.95 -2.23,2.53 -3.62,2.53 -1.74,0 -3.15,-1.14 -3.91,-2.47 -0.63,1.44 -2.22,2.47 -4.17,2.47 -3.91,0 -6.14,-4.28 -6.14,-5.33 0,-0.45 0.5,-0.45 0.59,-0.45 0.45,0 0.48,0.14 0.67,0.59 0.86,2.72 3.07,4.22 4.77,4.22 1.15,0 2.09,-0.62 2.09,-2.29 0,-0.71 -0.42,-2.44 -0.73,-3.63 z"
           inkscape:connector-curvature="0"
           style="fill:#000000;stroke-width:0" /><path
           id="path5831"
           d="m 659.62,409.87 0,0.71 -0.02,0.68 -0.03,0.66 -0.04,0.64 -0.06,0.62 -0.08,0.6 -0.09,0.57 -0.11,0.56 -0.12,0.55 -0.15,0.53 -0.17,0.51 -0.19,0.5 -0.21,0.49 -0.24,0.48 -0.26,0.47 -0.14,0.23 -0.15,0.23 c -1.08,1.61 -3.24,3 -6.03,3 v -0.98 c 1.89,0 3.7,-1.14 4.32,-3.17 0.57,-1.88 0.6,-4.39 0.6,-7.43 0,-2.57 0,-5.15 -0.45,-7.34 -0.71,-3.17 -3.07,-3.94 -4.47,-3.94 h 0 c -1.6,0 -3.72,0.94 -4.43,3.8 -0.48,2.05 -0.48,4.91 -0.48,7.48 0,2.55 0,5.21 0.52,7.11 0.73,2.75 2.96,3.49 4.39,3.49 v 0.98 c -8.08,0 -8.08,-9.51 -8.08,-12.03 0,-2.5 0,-11.81 8.08,-11.81 8.09,0 8.09,9.31 8.09,11.81 z"
           inkscape:connector-curvature="0"
           style="fill:#000000;stroke-width:0" /><path
           id="path5833"
           d="m 674.19,406.25 -0.01,0.3 -0.01,0.3 -0.01,0.29 -0.03,0.28 -0.03,0.27 -0.04,0.26 -0.04,0.26 -0.06,0.24 -0.05,0.24 -0.07,0.23 -0.07,0.22 -0.08,0.21 -0.08,0.2 -0.09,0.19 -0.09,0.19 -0.1,0.17 -0.11,0.16 -0.11,0.16 -0.12,0.14 -0.12,0.13 -0.13,0.13 -0.14,0.11 -0.13,0.1 -0.15,0.1 -0.15,0.08 -0.15,0.07 -0.16,0.06 -0.16,0.05 -0.17,0.04 -0.17,0.03 -0.18,0.01 -0.18,0.01 c -1.64,0 -2.64,-1.25 -2.64,-2.64 0,-1.34 1,-2.64 2.64,-2.64 0.59,0 1.25,0.2 1.75,0.64 0.14,0.11 0.2,0.16 0.25,0.16 0.05,0 0.09,-0.05 0.09,-0.75 0,-3.69 -1.73,-6.68 -3.39,-8.32 -0.54,-0.54 -0.54,-0.65 -0.54,-0.79 0,-0.36 0.25,-0.55 0.5,-0.55 0.54,0 4.53,3.83 4.53,9.66 z"
           inkscape:connector-curvature="0"
           style="fill:#000000;stroke-width:0" /><path
           id="path5835"
           d="m 713.11,436.59 0.04,0.15 0.03,0.14 0.04,0.14 0.03,0.13 0.04,0.12 0.03,0.12 0.04,0.11 0.04,0.11 0.04,0.1 0.05,0.09 0.05,0.09 0.05,0.08 0.06,0.08 0.06,0.07 0.07,0.07 0.07,0.06 0.09,0.06 0.08,0.05 0.1,0.05 0.11,0.04 0.11,0.04 0.12,0.04 0.14,0.03 0.07,0.01 0.07,0.02 0.08,0.01 0.08,0.01 0.08,0.01 0.08,0.01 0.09,0.01 0.09,0.01 0.1,0.01 0.1,0 0.1,0.01 0.1,0 0.11,0.01 0.11,0 0.12,0 0.12,0 0.12,0 0.12,0 c 0.8,0 1.35,0 1.35,0.96 0,0.43 -0.3,0.59 -0.69,0.59 -1.25,0 -4.28,-0.16 -5.53,-0.16 -1.64,0 -5.69,0.16 -7.33,0.16 -0.45,0 -1.05,0 -1.05,-1 0,-0.55 0.41,-0.55 1.71,-0.55 1.14,0 1.64,0 2.87,-0.09 1.21,-0.16 1.55,-0.31 1.55,-1 0,-0.3 -0.1,-0.66 -0.19,-1.05 l -5.73,-22.87 c -1.21,-4.83 -4.58,-7.47 -7.18,-7.47 -1.29,0 -3.93,0.5 -4.73,3.09 0.14,-0.04 0.5,-0.04 0.59,-0.04 1.94,0 3.24,1.68 3.24,3.18 0,1.6 -1.34,2.08 -2.19,2.08 -0.89,0 -3.34,-0.59 -3.34,-3.98 0,-3.08 2.64,-5.42 6.58,-5.42 4.59,0 9.76,3.28 11.01,8.21 z"
           inkscape:connector-curvature="0"
           style="fill:#000000;stroke-width:0" /><path
           id="path5837"
           d="m 733.14,411.9 0,0.02 0.01,0.03 0.01,0.02 0,0.02 0.01,0.02 0,0.02 0.01,0.04 0.01,0.03 0.01,0.03 0.01,0.04 0.01,0.03 0.01,0.02 0,0.03 0.01,0.03 0,0.02 0.01,0.02 0,0.02 0.01,0.02 0,0.02 0,0.02 0.01,0.02 0,0.02 0,0.02 0,0.03 0,0.03 0.01,0.04 0,0.03 0,0.02 0,0.02 0,0.02 0,0.02 c 0,0.69 -0.56,1.11 -1.16,1.11 -0.37,0 -1.05,-0.17 -1.42,-0.83 -0.11,-0.22 -0.39,-1.33 -0.56,-2.03 l -0.74,-2.89 c -0.2,-0.83 -1.28,-5.22 -1.39,-5.61 -0.03,0 -1.56,-3.03 -4.28,-3.03 -2.38,0 -2.38,2.26 -2.38,2.89 0,1.89 0.8,4.08 1.85,6.76 0.42,1.11 0.59,1.53 0.59,2.13 0,1.67 -1.42,2.95 -3.31,2.95 -3.51,0 -5.08,-4.73 -5.08,-5.33 0,-0.45 0.49,-0.45 0.6,-0.45 0.48,0 0.51,0.17 0.62,0.56 0.88,2.89 2.38,4.25 3.77,4.25 0.59,0 0.86,-0.39 0.86,-1.22 0,-0.79 -0.32,-1.56 -0.49,-2.01 -1.67,-4.25 -2.01,-5.55 -2.01,-7.08 0,-0.59 0,-2.23 1.35,-3.34 1.08,-0.91 2.55,-1.08 3.49,-1.08 1.39,0 2.64,0.51 3.8,1.56 -0.46,-1.92 -0.85,-3.37 -2.3,-5.12 -0.94,-1.08 -2.34,-2.22 -4.19,-2.22 -0.23,0 -1.87,0 -2.61,1.14 1.88,0.2 1.88,1.89 1.88,1.92 0,1.11 -1,1.31 -1.36,1.31 -0.86,0 -2.02,-0.69 -2.02,-2.3 0,-1.76 1.68,-3.06 4.14,-3.06 3.54,0 7.82,2.72 8.89,7.08 z"
           inkscape:connector-curvature="0"
           style="fill:#000000;stroke-width:0" /><path
           id="path5839"
           d="m 753.1,409.87 0,0.71 -0.02,0.68 -0.03,0.66 -0.04,0.64 -0.06,0.62 -0.08,0.6 -0.09,0.57 -0.11,0.56 -0.12,0.55 -0.15,0.53 -0.17,0.51 -0.19,0.5 -0.21,0.49 -0.24,0.48 -0.26,0.47 -0.14,0.23 -0.15,0.23 c -1.08,1.61 -3.24,3 -6.03,3 v -0.98 c 1.89,0 3.7,-1.14 4.33,-3.17 0.56,-1.88 0.59,-4.39 0.59,-7.43 0,-2.57 0,-5.15 -0.45,-7.34 -0.71,-3.17 -3.07,-3.94 -4.47,-3.94 h 0 c -1.6,0 -3.72,0.94 -4.42,3.8 -0.49,2.05 -0.49,4.91 -0.49,7.48 0,2.55 0,5.21 0.52,7.11 0.73,2.75 2.97,3.49 4.39,3.49 v 0.98 c -8.08,0 -8.08,-9.51 -8.08,-12.03 0,-2.5 0,-11.81 8.08,-11.81 8.09,0 8.09,9.31 8.09,11.81 z"
           inkscape:connector-curvature="0"
           style="fill:#000000;stroke-width:0" /><path
           id="path5841"
           d="m 767.79,406.25 0,0.3 -0.02,0.3 -0.01,0.29 -0.03,0.28 -0.03,0.27 -0.04,0.26 -0.04,0.26 -0.05,0.24 -0.06,0.24 -0.07,0.23 -0.07,0.22 -0.07,0.21 -0.09,0.2 -0.09,0.19 -0.09,0.19 -0.1,0.17 -0.11,0.16 -0.11,0.16 -0.12,0.14 -0.12,0.13 -0.13,0.13 -0.13,0.11 -0.14,0.1 -0.15,0.1 -0.14,0.08 -0.16,0.07 -0.16,0.06 -0.16,0.05 -0.17,0.04 -0.17,0.03 -0.18,0.01 -0.18,0.01 c -1.64,0 -2.64,-1.25 -2.64,-2.64 0,-1.34 1,-2.64 2.64,-2.64 0.6,0 1.25,0.2 1.75,0.64 0.14,0.11 0.2,0.16 0.25,0.16 0.05,0 0.1,-0.05 0.1,-0.75 0,-3.69 -1.74,-6.68 -3.4,-8.32 -0.54,-0.54 -0.54,-0.65 -0.54,-0.79 0,-0.36 0.25,-0.55 0.5,-0.55 0.54,0 4.53,3.83 4.53,9.66 z"
           inkscape:connector-curvature="0"
           style="fill:#000000;stroke-width:0" /><path
           id="path5843"
           d="m 806.71,436.59 0.04,0.15 0.03,0.14 0.04,0.14 0.03,0.13 0.04,0.12 0.04,0.12 0.03,0.11 0.04,0.11 0.05,0.1 0.04,0.09 0.05,0.09 0.05,0.08 0.06,0.08 0.06,0.07 0.07,0.07 0.08,0.06 0.08,0.06 0.09,0.05 0.09,0.05 0.11,0.04 0.11,0.04 0.13,0.04 0.13,0.03 0.07,0.01 0.07,0.02 0.08,0.01 0.08,0.01 0.08,0.01 0.09,0.01 0.08,0.01 0.1,0.01 0.09,0.01 0.1,0 0.1,0.01 0.1,0 0.11,0.01 0.11,0 0.12,0 0.12,0 0.12,0 0.13,0 c 0.79,0 1.34,0 1.34,0.96 0,0.43 -0.3,0.59 -0.69,0.59 -1.25,0 -4.28,-0.16 -5.53,-0.16 -1.64,0 -5.69,0.16 -7.33,0.16 -0.45,0 -1.04,0 -1.04,-1 0,-0.55 0.4,-0.55 1.7,-0.55 1.14,0 1.64,0 2.87,-0.09 1.21,-0.16 1.55,-0.31 1.55,-1 0,-0.3 -0.09,-0.66 -0.19,-1.05 l -5.73,-22.87 c -1.2,-4.83 -4.58,-7.47 -7.17,-7.47 -1.3,0 -3.94,0.5 -4.74,3.09 0.14,-0.04 0.5,-0.04 0.6,-0.04 1.93,0 3.23,1.68 3.23,3.18 0,1.6 -1.34,2.08 -2.19,2.08 -0.89,0 -3.34,-0.59 -3.34,-3.98 0,-3.08 2.64,-5.42 6.58,-5.42 4.59,0 9.76,3.28 11.01,8.21 z"
           inkscape:connector-curvature="0"
           style="fill:#000000;stroke-width:0" /><path
           id="path5845"
           d="m 813.22,401.82 0.17,0.17 0.16,0.17 0.17,0.16 0.17,0.17 0.18,0.17 0.09,0.09 0.1,0.1 0.1,0.09 0.11,0.1 0.11,0.1 0.11,0.11 0.13,0.11 0.13,0.11 0.13,0.12 0.15,0.13 0.15,0.13 0.16,0.14 0.17,0.14 0.17,0.15 0.19,0.16 0.2,0.16 0.21,0.17 0.22,0.18 0.23,0.19 0.25,0.2 0.25,0.21 0.27,0.21 c 0.74,0.6 3.35,2.69 4.36,3.66 2.13,2.09 3.46,3.87 3.46,4.29 0,0.41 -0.46,0.41 -0.6,0.41 -0.31,0 -0.42,-0.06 -0.59,-0.34 -1.08,-1.6 -1.81,-2.13 -2.64,-2.13 -0.42,0 -0.96,0.03 -2,1.05 -1.17,1.19 -1.94,1.42 -2.75,1.42 -2.78,0 -4.67,-3.03 -4.67,-4.06 0,-0.33 0.35,-0.42 0.59,-0.42 0.42,0 0.5,0.09 0.62,0.48 0.54,1.22 2.49,1.3 3.05,1.3 0.8,0 1.7,-0.22 2.19,-0.33 1.92,-0.41 2.16,-0.41 3.03,-0.41 -0.91,-0.95 -1.53,-1.57 -4.84,-4.22 -2.72,-2.15 -3.66,-3.03 -4.32,-3.73 -2.09,-2.05 -3.11,-3.58 -3.11,-3.91 0,-0.4 0.46,-0.4 0.6,-0.4 0.34,0 0.42,0.06 0.59,0.34 0.94,1.33 2.02,2.13 3.21,2.13 0.42,0 0.93,-0.03 1.87,-0.91 1.09,-1.05 1.78,-1.56 2.91,-1.56 3.72,0 6.06,4.22 6.06,5.39 0,0.42 -0.39,0.45 -0.6,0.45 -0.42,0 -0.5,-0.17 -0.62,-0.55 -0.67,-1.75 -2.72,-2.57 -4.44,-2.57 -0.79,0 -1.67,0.17 -2.53,0.37 -1.61,0.35 -1.89,0.35 -2.51,0.35 -0.08,0 -0.6,0 -0.8,-0.04 z"
           inkscape:connector-curvature="0"
           style="fill:#000000;stroke-width:0" /><path
           id="path5847"
           d="m 845.86,409.87 0,0.71 -0.02,0.68 -0.03,0.66 -0.04,0.64 -0.06,0.62 -0.08,0.6 -0.09,0.57 -0.1,0.56 -0.13,0.55 -0.15,0.53 -0.17,0.51 -0.19,0.5 -0.21,0.49 -0.24,0.48 -0.26,0.47 -0.14,0.23 -0.15,0.23 c -1.08,1.61 -3.23,3 -6.03,3 v -0.98 c 1.89,0 3.7,-1.14 4.33,-3.17 0.56,-1.88 0.59,-4.39 0.59,-7.43 0,-2.57 0,-5.15 -0.45,-7.34 -0.71,-3.17 -3.06,-3.94 -4.47,-3.94 h 0 c -1.59,0 -3.72,0.94 -4.42,3.8 -0.49,2.05 -0.49,4.91 -0.49,7.48 0,2.55 0,5.21 0.52,7.11 0.73,2.75 2.97,3.49 4.39,3.49 v 0.98 c -8.08,0 -8.08,-9.51 -8.08,-12.03 0,-2.5 0,-11.81 8.08,-11.81 8.09,0 8.09,9.31 8.09,11.81 z"
           inkscape:connector-curvature="0"
           style="fill:#000000;stroke-width:0" /></g></g><g
       transform="matrix(1,0,0,-1,367.7822,460.73596)"
       id="g6305"><g
         style="font-style:normal;font-variant:normal;font-weight:normal;font-stretch:normal;letter-spacing:normal;word-spacing:normal;text-anchor:start;fill:none;stroke:#000000;stroke-linecap:butt;stroke-linejoin:miter;stroke-miterlimit:10.43299961;stroke-opacity:1;stroke-dasharray:none;stroke-dashoffset:0"
         id="g6307"
         transform="matrix(0.45357143,0,0,-0.45357143,-79.375,605.625)"
         xml:space="preserve"
         stroke-miterlimit="10.433"
         font-style="normal"
         font-variant="normal"
         font-weight="normal"
         font-stretch="normal"
         font-size-adjust="none"
         letter-spacing="normal"
         word-spacing="normal"><path
           style="fill:#000000;stroke-width:0"
           inkscape:connector-curvature="0"
           d="m 465.79,426.12 h 4.68 c 0.99,0 1.49,0 1.49,1 0,0.55 -0.5,0.55 -1.39,0.55 h -4.39 c 1.79,7.08 2.04,8.08 2.04,8.37 0,0.85 -0.59,1.35 -1.43,1.35 -0.16,0 -1.55,-0.05 -2,-1.8 l -1.94,-7.92 h -4.69 c -1,0 -1.5,0 -1.5,-0.94 0,-0.61 0.41,-0.61 1.41,-0.61 h 4.37 c -3.58,-14.14 -3.78,-14.98 -3.78,-15.89 0,-2.69 1.89,-4.58 4.58,-4.58 5.08,0 7.92,7.27 7.92,7.67 0,0.5 -0.39,0.5 -0.59,0.5 -0.46,0 -0.5,-0.15 -0.75,-0.7 -2.14,-5.17 -4.78,-6.37 -6.47,-6.37 -1.05,0 -1.55,0.65 -1.55,2.29 0,1.19 0.09,1.55 0.3,2.39 z"
           id="path6309" /><path
           style="fill:#000000;stroke-width:0"
           inkscape:connector-curvature="0"
           d="m 485.19,420.92 0,0.04 0,0.04 0,0.05 0,0.04 0,0.03 0,0.04 0,0.04 0,0.03 -0.01,0.04 0,0.03 0,0.03 0,0.03 0,0.03 -0.01,0.03 0,0.03 0,0.02 -0.01,0.03 0,0.02 -0.01,0.03 0,0.02 -0.02,0.04 -0.01,0.04 -0.02,0.03 -0.02,0.03 -0.02,0.03 -0.02,0.03 -0.03,0.02 -0.03,0.02 -0.03,0.02 -0.04,0.01 -0.04,0.01 -0.05,0.02 -0.02,0 -0.02,0 -0.03,0.01 -0.03,0 -0.02,0.01 -0.03,0 -0.03,0 -0.03,0 -0.03,0 -0.04,0.01 -0.03,0 -0.04,0 -0.03,0 -0.04,0 -0.04,0 -0.04,0 -0.04,0 -0.05,0 -0.04,0 -0.05,0 c -2.23,-2.2 -5.39,-2.23 -6.82,-2.23 v -1.25 c 0.84,0 3.14,0 5.04,0.97 v -17.77 c 0,-1.16 0,-1.61 -3.48,-1.61 h -1.31 v -1.25 c 0.62,0.03 4.9,0.14 6.2,0.14 1.08,0 5.47,-0.11 6.23,-0.14 v 1.25 h -1.32 c -3.49,0 -3.49,0.45 -3.49,1.61 z"
           id="path6311" /><path
           style="fill:#000000;stroke-width:0"
           inkscape:connector-curvature="0"
           d="m 505.95,406.25 0,0.3 -0.02,0.3 -0.01,0.29 -0.03,0.28 -0.03,0.27 -0.04,0.26 -0.04,0.26 -0.05,0.24 -0.06,0.24 -0.07,0.23 -0.07,0.22 -0.07,0.21 -0.09,0.2 -0.09,0.19 -0.09,0.19 -0.1,0.17 -0.11,0.16 -0.11,0.16 -0.12,0.14 -0.12,0.13 -0.13,0.13 -0.13,0.11 -0.14,0.1 -0.15,0.1 -0.14,0.08 -0.16,0.07 -0.16,0.06 -0.16,0.05 -0.17,0.04 -0.17,0.03 -0.18,0.01 -0.18,0.01 c -1.64,0 -2.64,-1.25 -2.64,-2.64 0,-1.34 1,-2.64 2.64,-2.64 0.6,0 1.25,0.2 1.75,0.64 0.14,0.11 0.2,0.16 0.25,0.16 0.05,0 0.1,-0.05 0.1,-0.75 0,-3.69 -1.74,-6.68 -3.4,-8.32 -0.54,-0.54 -0.54,-0.65 -0.54,-0.79 0,-0.36 0.25,-0.55 0.5,-0.55 0.54,0 4.53,3.83 4.53,9.66 z"
           id="path6313" /><path
           style="fill:#000000;stroke-width:0"
           inkscape:connector-curvature="0"
           d="m 549.2,434.54 0.23,0.36 0.22,0.33 0.23,0.31 0.22,0.29 0.22,0.28 0.22,0.25 0.22,0.24 0.21,0.22 0.22,0.2 0.21,0.19 0.21,0.17 0.2,0.16 0.21,0.14 0.2,0.13 0.2,0.12 0.2,0.11 0.2,0.09 0.2,0.09 0.19,0.07 0.19,0.07 0.2,0.06 0.18,0.05 0.19,0.04 0.19,0.03 0.18,0.03 0.19,0.03 0.36,0.04 0.35,0.02 0.35,0.02 c 0.59,0.05 0.64,0.89 0.64,0.96 0,0.39 -0.25,0.59 -0.64,0.59 -1.3,0 -2.75,-0.16 -4.09,-0.16 -1.65,0 -3.35,0.16 -4.94,0.16 -0.3,0 -0.94,0 -0.94,-0.95 0,-0.55 0.45,-0.6 0.8,-0.6 1.34,-0.09 2.3,-0.59 2.3,-1.64 0,-0.75 -0.75,-1.84 -0.75,-1.89 l -15.3,-24.31 -3.39,26.34 c 0,0.85 1.14,1.5 3.44,1.5 0.7,0 1.25,0 1.25,1 0,0.44 -0.41,0.55 -0.71,0.55 -1.98,0 -4.14,-0.16 -6.17,-0.16 -0.91,0 -1.84,0.05 -2.75,0.05 -0.89,0 -1.84,0.11 -2.69,0.11 -0.34,0 -0.93,0 -0.93,-0.95 0,-0.6 0.43,-0.6 1.23,-0.6 2.8,0 2.84,-0.45 3,-1.68 l 3.92,-30.75 c 0.16,-1 0.36,-1.14 1,-1.14 0.8,0 1,0.25 1.41,0.89 z"
           id="path6315" /><path
           style="fill:#000000;stroke-width:0"
           inkscape:connector-curvature="0"
           d="m 558.63,420.92 0,0.04 0,0.04 0,0.05 0,0.04 0,0.03 0,0.04 0,0.04 0,0.03 0,0.04 0,0.03 -0.01,0.03 0,0.03 0,0.03 -0.01,0.03 0,0.03 0,0.02 -0.01,0.03 0,0.02 -0.01,0.03 0,0.02 -0.01,0.04 -0.02,0.04 -0.02,0.03 -0.02,0.03 -0.02,0.03 -0.02,0.03 -0.03,0.02 -0.03,0.02 -0.03,0.02 -0.04,0.01 -0.04,0.01 -0.05,0.02 -0.02,0 -0.02,0 -0.03,0.01 -0.03,0 -0.02,0.01 -0.03,0 -0.03,0 -0.03,0 -0.03,0 -0.04,0.01 -0.03,0 -0.04,0 -0.03,0 -0.04,0 -0.04,0 -0.04,0 -0.04,0 -0.04,0 -0.05,0 -0.04,0 c -2.24,-2.2 -5.39,-2.23 -6.83,-2.23 v -1.25 c 0.84,0 3.14,0 5.04,0.97 v -17.77 c 0,-1.16 0,-1.61 -3.48,-1.61 h -1.31 v -1.25 c 0.62,0.03 4.9,0.14 6.2,0.14 1.08,0 5.47,-0.11 6.24,-0.14 v 1.25 h -1.33 c -3.49,0 -3.49,0.45 -3.49,1.61 z"
           id="path6317" /><path
           style="fill:#000000;stroke-width:0"
           inkscape:connector-curvature="0"
           d="m 579.51,406.25 -0.01,0.3 -0.01,0.3 -0.01,0.29 -0.03,0.28 -0.03,0.27 -0.04,0.26 -0.04,0.26 -0.06,0.24 -0.05,0.24 -0.07,0.23 -0.07,0.22 -0.08,0.21 -0.08,0.2 -0.09,0.19 -0.09,0.19 -0.1,0.17 -0.11,0.16 -0.11,0.16 -0.12,0.14 -0.12,0.13 -0.13,0.13 -0.14,0.11 -0.13,0.1 -0.15,0.1 -0.15,0.08 -0.15,0.07 -0.16,0.06 -0.16,0.05 -0.17,0.04 -0.17,0.03 -0.18,0.01 -0.18,0.01 c -1.64,0 -2.64,-1.25 -2.64,-2.64 0,-1.34 1,-2.64 2.64,-2.64 0.59,0 1.25,0.2 1.75,0.64 0.14,0.11 0.2,0.16 0.25,0.16 0.05,0 0.09,-0.05 0.09,-0.75 0,-3.69 -1.73,-6.68 -3.39,-8.32 -0.54,-0.54 -0.54,-0.65 -0.54,-0.79 0,-0.36 0.25,-0.55 0.5,-0.55 0.54,0 4.53,3.83 4.53,9.66 z"
           id="path6319" /><path
           style="fill:#000000;stroke-width:0"
           inkscape:connector-curvature="0"
           d="m 618.43,436.59 0.04,0.15 0.03,0.14 0.04,0.14 0.03,0.13 0.04,0.12 0.03,0.12 0.04,0.11 0.04,0.11 0.04,0.1 0.05,0.09 0.05,0.09 0.05,0.08 0.06,0.08 0.06,0.07 0.07,0.07 0.07,0.06 0.09,0.06 0.08,0.05 0.1,0.05 0.11,0.04 0.11,0.04 0.12,0.04 0.14,0.03 0.07,0.01 0.07,0.02 0.08,0.01 0.08,0.01 0.08,0.01 0.09,0.01 0.08,0.01 0.09,0.01 0.1,0.01 0.1,0 0.1,0.01 0.1,0 0.11,0.01 0.11,0 0.12,0 0.12,0 0.12,0 0.12,0 c 0.8,0 1.35,0 1.35,0.96 0,0.43 -0.3,0.59 -0.69,0.59 -1.25,0 -4.28,-0.16 -5.53,-0.16 -1.64,0 -5.69,0.16 -7.33,0.16 -0.45,0 -1.05,0 -1.05,-1 0,-0.55 0.41,-0.55 1.71,-0.55 1.14,0 1.64,0 2.87,-0.09 1.21,-0.16 1.55,-0.31 1.55,-1 0,-0.3 -0.09,-0.66 -0.19,-1.05 l -5.73,-22.87 c -1.21,-4.83 -4.58,-7.47 -7.17,-7.47 -1.3,0 -3.94,0.5 -4.74,3.09 0.14,-0.04 0.5,-0.04 0.59,-0.04 1.94,0 3.24,1.68 3.24,3.18 0,1.6 -1.34,2.08 -2.19,2.08 -0.89,0 -3.34,-0.59 -3.34,-3.98 0,-3.08 2.64,-5.42 6.58,-5.42 4.59,0 9.76,3.28 11.01,8.21 z"
           id="path6321" /><path
           style="fill:#000000;stroke-width:0"
           inkscape:connector-curvature="0"
           d="m 627.75,402.45 -0.03,-0.11 -0.04,-0.12 -0.05,-0.12 -0.05,-0.12 -0.05,-0.12 -0.06,-0.13 -0.06,-0.13 -0.07,-0.12 -0.07,-0.13 -0.07,-0.13 -0.08,-0.13 -0.09,-0.12 -0.09,-0.13 -0.09,-0.12 -0.1,-0.12 -0.1,-0.12 -0.11,-0.12 -0.11,-0.11 -0.11,-0.1 -0.12,-0.1 -0.12,-0.1 -0.13,-0.09 -0.13,-0.08 -0.13,-0.08 -0.14,-0.07 -0.14,-0.06 -0.14,-0.05 -0.15,-0.05 -0.16,-0.04 -0.15,-0.02 -0.16,-0.02 -0.17,0 c -0.1,0 -1.15,0 -1.89,0.48 1.44,0.45 1.53,1.72 1.53,1.92 0,0.77 -0.59,1.3 -1.39,1.3 -0.96,0 -1.98,-0.84 -1.98,-2.14 0,-1.74 1.95,-2.53 3.66,-2.53 1.61,0 3.03,1 3.9,2.47 0.83,-1.85 2.75,-2.47 4.14,-2.47 4.02,0 6.14,4.34 6.14,5.33 0,0.45 -0.45,0.45 -0.56,0.45 -0.48,0 -0.51,-0.17 -0.65,-0.59 -0.74,-2.41 -2.83,-4.22 -4.79,-4.22 -1.39,0 -2.12,0.93 -2.12,2.26 0,0.91 0.84,4.08 1.81,7.96 0.7,2.67 2.27,3.54 3.42,3.54 0.07,0 1.14,0 1.88,-0.48 -1.11,-0.31 -1.53,-1.3 -1.53,-1.92 0,-0.77 0.59,-1.29 1.39,-1.29 0.81,0 1.95,0.66 1.95,2.13 0,1.95 -2.23,2.53 -3.62,2.53 -1.74,0 -3.15,-1.14 -3.91,-2.47 -0.63,1.44 -2.22,2.47 -4.17,2.47 -3.91,0 -6.14,-4.28 -6.14,-5.33 0,-0.45 0.5,-0.45 0.59,-0.45 0.45,0 0.48,0.14 0.67,0.59 0.86,2.72 3.07,4.22 4.77,4.22 1.15,0 2.09,-0.62 2.09,-2.29 0,-0.71 -0.42,-2.44 -0.73,-3.63 z"
           id="path6323" /><path
           style="fill:#000000;stroke-width:0"
           inkscape:connector-curvature="0"
           d="m 653.31,420.92 0,0.04 0,0.04 0,0.05 0,0.04 0,0.03 0,0.04 0,0.04 -0.01,0.03 0,0.04 0,0.03 0,0.03 0,0.03 -0.01,0.03 0,0.03 0,0.03 -0.01,0.02 0,0.03 -0.01,0.02 0,0.03 -0.01,0.02 -0.01,0.04 -0.01,0.04 -0.02,0.03 -0.02,0.03 -0.02,0.03 -0.03,0.03 -0.02,0.02 -0.03,0.02 -0.04,0.02 -0.03,0.01 -0.04,0.01 -0.05,0.02 -0.02,0 -0.03,0 -0.02,0.01 -0.03,0 -0.03,0.01 -0.03,0 -0.03,0 -0.03,0 -0.03,0 -0.03,0.01 -0.04,0 -0.03,0 -0.04,0 -0.03,0 -0.04,0 -0.04,0 -0.05,0 -0.04,0 -0.04,0 -0.05,0 c -2.23,-2.2 -5.39,-2.23 -6.83,-2.23 v -1.25 c 0.85,0 3.14,0 5.05,0.97 v -17.77 c 0,-1.16 0,-1.61 -3.48,-1.61 h -1.32 v -1.25 c 0.63,0.03 4.91,0.14 6.21,0.14 1.08,0 5.46,-0.11 6.23,-0.14 v 1.25 h -1.33 c -3.48,0 -3.48,0.45 -3.48,1.61 z"
           id="path6325" /><path
           style="fill:#000000;stroke-width:0"
           inkscape:connector-curvature="0"
           d="m 674.19,406.25 -0.01,0.3 -0.01,0.3 -0.01,0.29 -0.03,0.28 -0.03,0.27 -0.04,0.26 -0.04,0.26 -0.06,0.24 -0.05,0.24 -0.07,0.23 -0.07,0.22 -0.08,0.21 -0.08,0.2 -0.09,0.19 -0.09,0.19 -0.1,0.17 -0.11,0.16 -0.11,0.16 -0.12,0.14 -0.12,0.13 -0.13,0.13 -0.14,0.11 -0.13,0.1 -0.15,0.1 -0.15,0.08 -0.15,0.07 -0.16,0.06 -0.16,0.05 -0.17,0.04 -0.17,0.03 -0.18,0.01 -0.18,0.01 c -1.64,0 -2.64,-1.25 -2.64,-2.64 0,-1.34 1,-2.64 2.64,-2.64 0.59,0 1.25,0.2 1.75,0.64 0.14,0.11 0.2,0.16 0.25,0.16 0.05,0 0.09,-0.05 0.09,-0.75 0,-3.69 -1.73,-6.68 -3.39,-8.32 -0.54,-0.54 -0.54,-0.65 -0.54,-0.79 0,-0.36 0.25,-0.55 0.5,-0.55 0.54,0 4.53,3.83 4.53,9.66 z"
           id="path6327" /><path
           style="fill:#000000;stroke-width:0"
           inkscape:connector-curvature="0"
           d="m 713.11,436.59 0.04,0.15 0.03,0.14 0.04,0.14 0.03,0.13 0.04,0.12 0.03,0.12 0.04,0.11 0.04,0.11 0.04,0.1 0.05,0.09 0.05,0.09 0.05,0.08 0.06,0.08 0.06,0.07 0.07,0.07 0.07,0.06 0.09,0.06 0.08,0.05 0.1,0.05 0.11,0.04 0.11,0.04 0.12,0.04 0.14,0.03 0.07,0.01 0.07,0.02 0.08,0.01 0.08,0.01 0.08,0.01 0.08,0.01 0.09,0.01 0.09,0.01 0.1,0.01 0.1,0 0.1,0.01 0.1,0 0.11,0.01 0.11,0 0.12,0 0.12,0 0.12,0 0.12,0 c 0.8,0 1.35,0 1.35,0.96 0,0.43 -0.3,0.59 -0.69,0.59 -1.25,0 -4.28,-0.16 -5.53,-0.16 -1.64,0 -5.69,0.16 -7.33,0.16 -0.45,0 -1.05,0 -1.05,-1 0,-0.55 0.41,-0.55 1.71,-0.55 1.14,0 1.64,0 2.87,-0.09 1.21,-0.16 1.55,-0.31 1.55,-1 0,-0.3 -0.1,-0.66 -0.19,-1.05 l -5.73,-22.87 c -1.21,-4.83 -4.58,-7.47 -7.18,-7.47 -1.29,0 -3.93,0.5 -4.73,3.09 0.14,-0.04 0.5,-0.04 0.59,-0.04 1.94,0 3.24,1.68 3.24,3.18 0,1.6 -1.34,2.08 -2.19,2.08 -0.89,0 -3.34,-0.59 -3.34,-3.98 0,-3.08 2.64,-5.42 6.58,-5.42 4.59,0 9.76,3.28 11.01,8.21 z"
           id="path6329" /><path
           style="fill:#000000;stroke-width:0"
           inkscape:connector-curvature="0"
           d="m 733.14,411.9 0,0.02 0.01,0.03 0.01,0.02 0,0.02 0.01,0.02 0,0.02 0.01,0.04 0.01,0.03 0.01,0.03 0.01,0.04 0.01,0.03 0.01,0.02 0,0.03 0.01,0.03 0,0.02 0.01,0.02 0,0.02 0.01,0.02 0,0.02 0,0.02 0.01,0.02 0,0.02 0,0.02 0,0.03 0,0.03 0.01,0.04 0,0.03 0,0.02 0,0.02 0,0.02 0,0.02 c 0,0.69 -0.56,1.11 -1.16,1.11 -0.37,0 -1.05,-0.17 -1.42,-0.83 -0.11,-0.22 -0.39,-1.33 -0.56,-2.03 l -0.74,-2.89 c -0.2,-0.83 -1.28,-5.22 -1.39,-5.61 -0.03,0 -1.56,-3.03 -4.28,-3.03 -2.38,0 -2.38,2.26 -2.38,2.89 0,1.89 0.8,4.08 1.85,6.76 0.42,1.11 0.59,1.53 0.59,2.13 0,1.67 -1.42,2.95 -3.31,2.95 -3.51,0 -5.08,-4.73 -5.08,-5.33 0,-0.45 0.49,-0.45 0.6,-0.45 0.48,0 0.51,0.17 0.62,0.56 0.88,2.89 2.38,4.25 3.77,4.25 0.59,0 0.86,-0.39 0.86,-1.22 0,-0.79 -0.32,-1.56 -0.49,-2.01 -1.67,-4.25 -2.01,-5.55 -2.01,-7.08 0,-0.59 0,-2.23 1.35,-3.34 1.08,-0.91 2.55,-1.08 3.49,-1.08 1.39,0 2.64,0.51 3.8,1.56 -0.46,-1.92 -0.85,-3.37 -2.3,-5.12 -0.94,-1.08 -2.34,-2.22 -4.19,-2.22 -0.23,0 -1.87,0 -2.61,1.14 1.88,0.2 1.88,1.89 1.88,1.92 0,1.11 -1,1.31 -1.36,1.31 -0.86,0 -2.02,-0.69 -2.02,-2.3 0,-1.76 1.68,-3.06 4.14,-3.06 3.54,0 7.82,2.72 8.89,7.08 z"
           id="path6331" /><path
           style="fill:#000000;stroke-width:0"
           inkscape:connector-curvature="0"
           d="m 746.79,420.92 0,0.04 0,0.04 0,0.05 0,0.04 0,0.03 0,0.04 0,0.04 -0.01,0.03 0,0.04 0,0.03 0,0.03 0,0.03 -0.01,0.03 0,0.03 0,0.03 -0.01,0.02 0,0.03 0,0.02 -0.01,0.03 -0.01,0.02 -0.01,0.04 -0.01,0.04 -0.02,0.03 -0.02,0.03 -0.02,0.03 -0.03,0.03 -0.02,0.02 -0.03,0.02 -0.04,0.02 -0.03,0.01 -0.04,0.01 -0.05,0.02 -0.02,0 -0.03,0 -0.02,0.01 -0.03,0 -0.03,0.01 -0.03,0 -0.02,0 -0.04,0 -0.03,0 -0.03,0.01 -0.03,0 -0.04,0 -0.04,0 -0.03,0 -0.04,0 -0.04,0 -0.05,0 -0.04,0 -0.04,0 -0.05,0 c -2.23,-2.2 -5.39,-2.23 -6.83,-2.23 v -1.25 c 0.85,0 3.14,0 5.05,0.97 v -17.77 c 0,-1.16 0,-1.61 -3.48,-1.61 h -1.32 v -1.25 c 0.63,0.03 4.91,0.14 6.21,0.14 1.08,0 5.47,-0.11 6.23,-0.14 v 1.25 h -1.33 c -3.48,0 -3.48,0.45 -3.48,1.61 z"
           id="path6333" /><path
           style="fill:#000000;stroke-width:0"
           inkscape:connector-curvature="0"
           d="m 767.79,406.25 0,0.3 -0.02,0.3 -0.01,0.29 -0.03,0.28 -0.03,0.27 -0.04,0.26 -0.04,0.26 -0.05,0.24 -0.06,0.24 -0.07,0.23 -0.07,0.22 -0.07,0.21 -0.09,0.2 -0.09,0.19 -0.09,0.19 -0.1,0.17 -0.11,0.16 -0.11,0.16 -0.12,0.14 -0.12,0.13 -0.13,0.13 -0.13,0.11 -0.14,0.1 -0.15,0.1 -0.14,0.08 -0.16,0.07 -0.16,0.06 -0.16,0.05 -0.17,0.04 -0.17,0.03 -0.18,0.01 -0.18,0.01 c -1.64,0 -2.64,-1.25 -2.64,-2.64 0,-1.34 1,-2.64 2.64,-2.64 0.6,0 1.25,0.2 1.75,0.64 0.14,0.11 0.2,0.16 0.25,0.16 0.05,0 0.1,-0.05 0.1,-0.75 0,-3.69 -1.74,-6.68 -3.4,-8.32 -0.54,-0.54 -0.54,-0.65 -0.54,-0.79 0,-0.36 0.25,-0.55 0.5,-0.55 0.54,0 4.53,3.83 4.53,9.66 z"
           id="path6335" /><path
           style="fill:#000000;stroke-width:0"
           inkscape:connector-curvature="0"
           d="m 806.71,436.59 0.04,0.15 0.03,0.14 0.04,0.14 0.03,0.13 0.04,0.12 0.04,0.12 0.03,0.11 0.04,0.11 0.05,0.1 0.04,0.09 0.05,0.09 0.05,0.08 0.06,0.08 0.06,0.07 0.07,0.07 0.08,0.06 0.08,0.06 0.09,0.05 0.09,0.05 0.11,0.04 0.11,0.04 0.13,0.04 0.13,0.03 0.07,0.01 0.07,0.02 0.08,0.01 0.08,0.01 0.08,0.01 0.09,0.01 0.08,0.01 0.1,0.01 0.09,0.01 0.1,0 0.1,0.01 0.1,0 0.11,0.01 0.11,0 0.12,0 0.12,0 0.12,0 0.13,0 c 0.79,0 1.34,0 1.34,0.96 0,0.43 -0.3,0.59 -0.69,0.59 -1.25,0 -4.28,-0.16 -5.53,-0.16 -1.64,0 -5.69,0.16 -7.33,0.16 -0.45,0 -1.04,0 -1.04,-1 0,-0.55 0.4,-0.55 1.7,-0.55 1.14,0 1.64,0 2.87,-0.09 1.21,-0.16 1.55,-0.31 1.55,-1 0,-0.3 -0.09,-0.66 -0.19,-1.05 l -5.73,-22.87 c -1.2,-4.83 -4.58,-7.47 -7.17,-7.47 -1.3,0 -3.94,0.5 -4.74,3.09 0.14,-0.04 0.5,-0.04 0.6,-0.04 1.93,0 3.23,1.68 3.23,3.18 0,1.6 -1.34,2.08 -2.19,2.08 -0.89,0 -3.34,-0.59 -3.34,-3.98 0,-3.08 2.64,-5.42 6.58,-5.42 4.59,0 9.76,3.28 11.01,8.21 z"
           id="path6337" /><path
           style="fill:#000000;stroke-width:0"
           inkscape:connector-curvature="0"
           d="m 813.22,401.82 0.17,0.17 0.16,0.17 0.17,0.16 0.17,0.17 0.18,0.17 0.09,0.09 0.1,0.1 0.1,0.09 0.11,0.1 0.11,0.1 0.11,0.11 0.13,0.11 0.13,0.11 0.13,0.12 0.15,0.13 0.15,0.13 0.16,0.14 0.17,0.14 0.17,0.15 0.19,0.16 0.2,0.16 0.21,0.17 0.22,0.18 0.23,0.19 0.25,0.2 0.25,0.21 0.27,0.21 c 0.74,0.6 3.35,2.69 4.36,3.66 2.13,2.09 3.46,3.87 3.46,4.29 0,0.41 -0.46,0.41 -0.6,0.41 -0.31,0 -0.42,-0.06 -0.59,-0.34 -1.08,-1.6 -1.81,-2.13 -2.64,-2.13 -0.42,0 -0.96,0.03 -2,1.05 -1.17,1.19 -1.94,1.42 -2.75,1.42 -2.78,0 -4.67,-3.03 -4.67,-4.06 0,-0.33 0.35,-0.42 0.59,-0.42 0.42,0 0.5,0.09 0.62,0.48 0.54,1.22 2.49,1.3 3.05,1.3 0.8,0 1.7,-0.22 2.19,-0.33 1.92,-0.41 2.16,-0.41 3.03,-0.41 -0.91,-0.95 -1.53,-1.57 -4.84,-4.22 -2.72,-2.15 -3.66,-3.03 -4.32,-3.73 -2.09,-2.05 -3.11,-3.58 -3.11,-3.91 0,-0.4 0.46,-0.4 0.6,-0.4 0.34,0 0.42,0.06 0.59,0.34 0.94,1.33 2.02,2.13 3.21,2.13 0.42,0 0.93,-0.03 1.87,-0.91 1.09,-1.05 1.78,-1.56 2.91,-1.56 3.72,0 6.06,4.22 6.06,5.39 0,0.42 -0.39,0.45 -0.6,0.45 -0.42,0 -0.5,-0.17 -0.62,-0.55 -0.67,-1.75 -2.72,-2.57 -4.44,-2.57 -0.79,0 -1.67,0.17 -2.53,0.37 -1.61,0.35 -1.89,0.35 -2.51,0.35 -0.08,0 -0.6,0 -0.8,-0.04 z"
           id="path6339" /><path
           style="fill:#000000;stroke-width:0"
           inkscape:connector-curvature="0"
           d="m 839.55,420.92 0,0.04 0,0.04 0,0.05 0,0.04 0,0.03 0,0.04 0,0.04 0,0.03 -0.01,0.04 0,0.03 0,0.03 0,0.03 0,0.03 -0.01,0.03 0,0.03 0,0.02 -0.01,0.03 0,0.02 -0.01,0.03 0,0.02 -0.02,0.04 -0.01,0.04 -0.02,0.03 -0.02,0.03 -0.02,0.03 -0.02,0.03 -0.03,0.02 -0.03,0.02 -0.04,0.02 -0.03,0.01 -0.04,0.01 -0.05,0.02 -0.02,0 -0.03,0 -0.02,0.01 -0.03,0 -0.02,0.01 -0.03,0 -0.03,0 -0.03,0 -0.04,0 -0.03,0.01 -0.03,0 -0.04,0 -0.04,0 -0.03,0 -0.04,0 -0.04,0 -0.04,0 -0.05,0 -0.04,0 -0.05,0 c -2.23,-2.2 -5.39,-2.23 -6.82,-2.23 v -1.25 c 0.84,0 3.14,0 5.04,0.97 v -17.77 c 0,-1.16 0,-1.61 -3.48,-1.61 h -1.31 v -1.25 c 0.62,0.03 4.9,0.14 6.2,0.14 1.08,0 5.47,-0.11 6.23,-0.14 v 1.25 h -1.33 c -3.48,0 -3.48,0.45 -3.48,1.61 z"
           id="path6341" /></g></g><g
       id="g6837"
       transform="matrix(1,0,0,-1,367.7822,432.48383)"><g
         word-spacing="normal"
         letter-spacing="normal"
         font-size-adjust="none"
         font-stretch="normal"
         font-weight="normal"
         font-variant="normal"
         font-style="normal"
         stroke-miterlimit="10.433"
         xml:space="preserve"
         transform="matrix(0.45357143,0,0,-0.45357143,-79.375,605.625)"
         id="g6839"
         style="font-style:normal;font-variant:normal;font-weight:normal;font-stretch:normal;letter-spacing:normal;word-spacing:normal;text-anchor:start;fill:none;stroke:#000000;stroke-linecap:butt;stroke-linejoin:miter;stroke-miterlimit:10.43299961;stroke-opacity:1;stroke-dasharray:none;stroke-dashoffset:0"><path
           id="path6841"
           d="m 465.79,426.12 h 4.68 c 0.99,0 1.49,0 1.49,1 0,0.55 -0.5,0.55 -1.39,0.55 h -4.39 c 1.79,7.08 2.04,8.08 2.04,8.37 0,0.85 -0.59,1.35 -1.43,1.35 -0.16,0 -1.55,-0.05 -2,-1.8 l -1.94,-7.92 h -4.69 c -1,0 -1.5,0 -1.5,-0.94 0,-0.61 0.41,-0.61 1.41,-0.61 h 4.37 c -3.58,-14.14 -3.78,-14.98 -3.78,-15.89 0,-2.69 1.89,-4.58 4.58,-4.58 5.08,0 7.92,7.27 7.92,7.67 0,0.5 -0.39,0.5 -0.59,0.5 -0.46,0 -0.5,-0.15 -0.75,-0.7 -2.14,-5.17 -4.78,-6.37 -6.47,-6.37 -1.05,0 -1.55,0.65 -1.55,2.29 0,1.19 0.09,1.55 0.3,2.39 z"
           inkscape:connector-curvature="0"
           style="fill:#000000;stroke-width:0" /><path
           id="path6843"
           d="m 491.11,405.11 h -1.18 c -0.1,-0.77 -0.46,-2.83 -0.91,-3.18 -0.27,-0.2 -2.95,-0.2 -3.44,-0.2 h -6.42 c 3.66,3.23 4.88,4.2 6.97,5.84 2.58,2.07 4.98,4.22 4.98,7.54 0,4.21 -3.68,6.79 -8.15,6.79 -4.32,0 -7.25,-3.03 -7.25,-6.23 0,-1.78 1.5,-1.96 1.86,-1.96 0.82,0 1.84,0.6 1.84,1.85 0,0.62 -0.25,1.84 -2.06,1.84 1.08,2.47 3.45,3.24 5.09,3.24 3.49,0 5.3,-2.71 5.3,-5.53 0,-3.04 -2.16,-5.44 -3.28,-6.69 l -8.39,-8.3 c -0.36,-0.31 -0.36,-0.39 -0.36,-1.36 h 14.36 z"
           inkscape:connector-curvature="0"
           style="fill:#000000;stroke-width:0" /><path
           id="path6845"
           d="m 505.95,406.25 0,0.3 -0.02,0.3 -0.01,0.29 -0.03,0.28 -0.03,0.27 -0.04,0.26 -0.04,0.26 -0.05,0.24 -0.06,0.24 -0.07,0.23 -0.07,0.22 -0.07,0.21 -0.09,0.2 -0.09,0.19 -0.09,0.19 -0.1,0.17 -0.11,0.16 -0.11,0.16 -0.12,0.14 -0.12,0.13 -0.13,0.13 -0.13,0.11 -0.14,0.1 -0.15,0.1 -0.14,0.08 -0.16,0.07 -0.16,0.06 -0.16,0.05 -0.17,0.04 -0.17,0.03 -0.18,0.01 -0.18,0.01 c -1.64,0 -2.64,-1.25 -2.64,-2.64 0,-1.34 1,-2.64 2.64,-2.64 0.6,0 1.25,0.2 1.75,0.64 0.14,0.11 0.2,0.16 0.25,0.16 0.05,0 0.1,-0.05 0.1,-0.75 0,-3.69 -1.74,-6.68 -3.4,-8.32 -0.54,-0.54 -0.54,-0.65 -0.54,-0.79 0,-0.36 0.25,-0.55 0.5,-0.55 0.54,0 4.53,3.83 4.53,9.66 z"
           inkscape:connector-curvature="0"
           style="fill:#000000;stroke-width:0" /><path
           id="path6847"
           d="m 549.2,434.54 0.23,0.36 0.22,0.33 0.23,0.31 0.22,0.29 0.22,0.28 0.22,0.25 0.22,0.24 0.21,0.22 0.22,0.2 0.21,0.19 0.21,0.17 0.2,0.16 0.21,0.14 0.2,0.13 0.2,0.12 0.2,0.11 0.2,0.09 0.2,0.09 0.19,0.07 0.19,0.07 0.2,0.06 0.18,0.05 0.19,0.04 0.19,0.03 0.18,0.03 0.19,0.03 0.36,0.04 0.35,0.02 0.35,0.02 c 0.59,0.05 0.64,0.89 0.64,0.96 0,0.39 -0.25,0.59 -0.64,0.59 -1.3,0 -2.75,-0.16 -4.09,-0.16 -1.65,0 -3.35,0.16 -4.94,0.16 -0.3,0 -0.94,0 -0.94,-0.95 0,-0.55 0.45,-0.6 0.8,-0.6 1.34,-0.09 2.3,-0.59 2.3,-1.64 0,-0.75 -0.75,-1.84 -0.75,-1.89 l -15.3,-24.31 -3.39,26.34 c 0,0.85 1.14,1.5 3.44,1.5 0.7,0 1.25,0 1.25,1 0,0.44 -0.41,0.55 -0.71,0.55 -1.98,0 -4.14,-0.16 -6.17,-0.16 -0.91,0 -1.84,0.05 -2.75,0.05 -0.89,0 -1.84,0.11 -2.69,0.11 -0.34,0 -0.93,0 -0.93,-0.95 0,-0.6 0.43,-0.6 1.23,-0.6 2.8,0 2.84,-0.45 3,-1.68 l 3.92,-30.75 c 0.16,-1 0.36,-1.14 1,-1.14 0.8,0 1,0.25 1.41,0.89 z"
           inkscape:connector-curvature="0"
           style="fill:#000000;stroke-width:0" /><path
           id="path6849"
           d="m 564.55,405.11 h -1.18 c -0.1,-0.77 -0.46,-2.83 -0.91,-3.18 -0.26,-0.2 -2.95,-0.2 -3.44,-0.2 h -6.42 c 3.66,3.23 4.88,4.2 6.97,5.84 2.58,2.07 4.98,4.22 4.98,7.54 0,4.21 -3.68,6.79 -8.15,6.79 -4.31,0 -7.25,-3.03 -7.25,-6.23 0,-1.78 1.5,-1.96 1.86,-1.96 0.83,0 1.84,0.6 1.84,1.85 0,0.62 -0.25,1.84 -2.06,1.84 1.08,2.47 3.45,3.24 5.09,3.24 3.49,0 5.3,-2.71 5.3,-5.53 0,-3.04 -2.16,-5.44 -3.28,-6.69 l -8.39,-8.3 c -0.36,-0.31 -0.36,-0.39 -0.36,-1.36 h 14.36 z"
           inkscape:connector-curvature="0"
           style="fill:#000000;stroke-width:0" /><path
           id="path6851"
           d="m 579.51,406.25 -0.01,0.3 -0.01,0.3 -0.01,0.29 -0.03,0.28 -0.03,0.27 -0.04,0.26 -0.04,0.26 -0.06,0.24 -0.05,0.24 -0.07,0.23 -0.07,0.22 -0.08,0.21 -0.08,0.2 -0.09,0.19 -0.09,0.19 -0.1,0.17 -0.11,0.16 -0.11,0.16 -0.12,0.14 -0.12,0.13 -0.13,0.13 -0.14,0.11 -0.13,0.1 -0.15,0.1 -0.15,0.08 -0.15,0.07 -0.16,0.06 -0.16,0.05 -0.17,0.04 -0.17,0.03 -0.18,0.01 -0.18,0.01 c -1.64,0 -2.64,-1.25 -2.64,-2.64 0,-1.34 1,-2.64 2.64,-2.64 0.59,0 1.25,0.2 1.75,0.64 0.14,0.11 0.2,0.16 0.25,0.16 0.05,0 0.09,-0.05 0.09,-0.75 0,-3.69 -1.73,-6.68 -3.39,-8.32 -0.54,-0.54 -0.54,-0.65 -0.54,-0.79 0,-0.36 0.25,-0.55 0.5,-0.55 0.54,0 4.53,3.83 4.53,9.66 z"
           inkscape:connector-curvature="0"
           style="fill:#000000;stroke-width:0" /><path
           id="path6853"
           d="m 618.43,436.59 0.04,0.15 0.03,0.14 0.04,0.14 0.03,0.13 0.04,0.12 0.03,0.12 0.04,0.11 0.04,0.11 0.04,0.1 0.05,0.09 0.05,0.09 0.05,0.08 0.06,0.08 0.06,0.07 0.07,0.07 0.07,0.06 0.09,0.06 0.08,0.05 0.1,0.05 0.11,0.04 0.11,0.04 0.12,0.04 0.14,0.03 0.07,0.01 0.07,0.02 0.08,0.01 0.08,0.01 0.08,0.01 0.09,0.01 0.08,0.01 0.09,0.01 0.1,0.01 0.1,0 0.1,0.01 0.1,0 0.11,0.01 0.11,0 0.12,0 0.12,0 0.12,0 0.12,0 c 0.8,0 1.35,0 1.35,0.96 0,0.43 -0.3,0.59 -0.69,0.59 -1.25,0 -4.28,-0.16 -5.53,-0.16 -1.64,0 -5.69,0.16 -7.33,0.16 -0.45,0 -1.05,0 -1.05,-1 0,-0.55 0.41,-0.55 1.71,-0.55 1.14,0 1.64,0 2.87,-0.09 1.21,-0.16 1.55,-0.31 1.55,-1 0,-0.3 -0.09,-0.66 -0.19,-1.05 l -5.73,-22.87 c -1.21,-4.83 -4.58,-7.47 -7.17,-7.47 -1.3,0 -3.94,0.5 -4.74,3.09 0.14,-0.04 0.5,-0.04 0.59,-0.04 1.94,0 3.24,1.68 3.24,3.18 0,1.6 -1.34,2.08 -2.19,2.08 -0.89,0 -3.34,-0.59 -3.34,-3.98 0,-3.08 2.64,-5.42 6.58,-5.42 4.59,0 9.76,3.28 11.01,8.21 z"
           inkscape:connector-curvature="0"
           style="fill:#000000;stroke-width:0" /><path
           id="path6855"
           d="m 627.75,402.45 -0.03,-0.11 -0.04,-0.12 -0.05,-0.12 -0.05,-0.12 -0.05,-0.12 -0.06,-0.13 -0.06,-0.13 -0.07,-0.12 -0.07,-0.13 -0.07,-0.13 -0.08,-0.13 -0.09,-0.12 -0.09,-0.13 -0.09,-0.12 -0.1,-0.12 -0.1,-0.12 -0.11,-0.12 -0.11,-0.11 -0.11,-0.1 -0.12,-0.1 -0.12,-0.1 -0.13,-0.09 -0.13,-0.08 -0.13,-0.08 -0.14,-0.07 -0.14,-0.06 -0.14,-0.05 -0.15,-0.05 -0.16,-0.04 -0.15,-0.02 -0.16,-0.02 -0.17,0 c -0.1,0 -1.15,0 -1.89,0.48 1.44,0.45 1.53,1.72 1.53,1.92 0,0.77 -0.59,1.3 -1.39,1.3 -0.96,0 -1.98,-0.84 -1.98,-2.14 0,-1.74 1.95,-2.53 3.66,-2.53 1.61,0 3.03,1 3.9,2.47 0.83,-1.85 2.75,-2.47 4.14,-2.47 4.02,0 6.14,4.34 6.14,5.33 0,0.45 -0.45,0.45 -0.56,0.45 -0.48,0 -0.51,-0.17 -0.65,-0.59 -0.74,-2.41 -2.83,-4.22 -4.79,-4.22 -1.39,0 -2.12,0.93 -2.12,2.26 0,0.91 0.84,4.08 1.81,7.96 0.7,2.67 2.27,3.54 3.42,3.54 0.07,0 1.14,0 1.88,-0.48 -1.11,-0.31 -1.53,-1.3 -1.53,-1.92 0,-0.77 0.59,-1.29 1.39,-1.29 0.81,0 1.95,0.66 1.95,2.13 0,1.95 -2.23,2.53 -3.62,2.53 -1.74,0 -3.15,-1.14 -3.91,-2.47 -0.63,1.44 -2.22,2.47 -4.17,2.47 -3.91,0 -6.14,-4.28 -6.14,-5.33 0,-0.45 0.5,-0.45 0.59,-0.45 0.45,0 0.48,0.14 0.67,0.59 0.86,2.72 3.07,4.22 4.77,4.22 1.15,0 2.09,-0.62 2.09,-2.29 0,-0.71 -0.42,-2.44 -0.73,-3.63 z"
           inkscape:connector-curvature="0"
           style="fill:#000000;stroke-width:0" /><path
           id="path6857"
           d="m 659.23,405.11 h -1.19 c -0.09,-0.77 -0.45,-2.83 -0.9,-3.18 -0.27,-0.2 -2.96,-0.2 -3.44,-0.2 h -6.42 c 3.65,3.23 4.87,4.2 6.97,5.84 2.57,2.07 4.98,4.22 4.98,7.54 0,4.21 -3.69,6.79 -8.16,6.79 -4.31,0 -7.25,-3.03 -7.25,-6.23 0,-1.78 1.5,-1.96 1.86,-1.96 0.83,0 1.85,0.6 1.85,1.85 0,0.62 -0.25,1.84 -2.06,1.84 1.07,2.47 3.45,3.24 5.09,3.24 3.48,0 5.29,-2.71 5.29,-5.53 0,-3.04 -2.15,-5.44 -3.28,-6.69 l -8.39,-8.3 c -0.36,-0.31 -0.36,-0.39 -0.36,-1.36 h 14.36 z"
           inkscape:connector-curvature="0"
           style="fill:#000000;stroke-width:0" /><path
           id="path6859"
           d="m 674.19,406.25 -0.01,0.3 -0.01,0.3 -0.01,0.29 -0.03,0.28 -0.03,0.27 -0.04,0.26 -0.04,0.26 -0.06,0.24 -0.05,0.24 -0.07,0.23 -0.07,0.22 -0.08,0.21 -0.08,0.2 -0.09,0.19 -0.09,0.19 -0.1,0.17 -0.11,0.16 -0.11,0.16 -0.12,0.14 -0.12,0.13 -0.13,0.13 -0.14,0.11 -0.13,0.1 -0.15,0.1 -0.15,0.08 -0.15,0.07 -0.16,0.06 -0.16,0.05 -0.17,0.04 -0.17,0.03 -0.18,0.01 -0.18,0.01 c -1.64,0 -2.64,-1.25 -2.64,-2.64 0,-1.34 1,-2.64 2.64,-2.64 0.59,0 1.25,0.2 1.75,0.64 0.14,0.11 0.2,0.16 0.25,0.16 0.05,0 0.09,-0.05 0.09,-0.75 0,-3.69 -1.73,-6.68 -3.39,-8.32 -0.54,-0.54 -0.54,-0.65 -0.54,-0.79 0,-0.36 0.25,-0.55 0.5,-0.55 0.54,0 4.53,3.83 4.53,9.66 z"
           inkscape:connector-curvature="0"
           style="fill:#000000;stroke-width:0" /><path
           id="path6861"
           d="m 713.11,436.59 0.04,0.15 0.03,0.14 0.04,0.14 0.03,0.13 0.04,0.12 0.03,0.12 0.04,0.11 0.04,0.11 0.04,0.1 0.05,0.09 0.05,0.09 0.05,0.08 0.06,0.08 0.06,0.07 0.07,0.07 0.07,0.06 0.09,0.06 0.08,0.05 0.1,0.05 0.11,0.04 0.11,0.04 0.12,0.04 0.14,0.03 0.07,0.01 0.07,0.02 0.08,0.01 0.08,0.01 0.08,0.01 0.08,0.01 0.09,0.01 0.09,0.01 0.1,0.01 0.1,0 0.1,0.01 0.1,0 0.11,0.01 0.11,0 0.12,0 0.12,0 0.12,0 0.12,0 c 0.8,0 1.35,0 1.35,0.96 0,0.43 -0.3,0.59 -0.69,0.59 -1.25,0 -4.28,-0.16 -5.53,-0.16 -1.64,0 -5.69,0.16 -7.33,0.16 -0.45,0 -1.05,0 -1.05,-1 0,-0.55 0.41,-0.55 1.71,-0.55 1.14,0 1.64,0 2.87,-0.09 1.21,-0.16 1.55,-0.31 1.55,-1 0,-0.3 -0.1,-0.66 -0.19,-1.05 l -5.73,-22.87 c -1.21,-4.83 -4.58,-7.47 -7.18,-7.47 -1.29,0 -3.93,0.5 -4.73,3.09 0.14,-0.04 0.5,-0.04 0.59,-0.04 1.94,0 3.24,1.68 3.24,3.18 0,1.6 -1.34,2.08 -2.19,2.08 -0.89,0 -3.34,-0.59 -3.34,-3.98 0,-3.08 2.64,-5.42 6.58,-5.42 4.59,0 9.76,3.28 11.01,8.21 z"
           inkscape:connector-curvature="0"
           style="fill:#000000;stroke-width:0" /><path
           id="path6863"
           d="m 733.14,411.9 0,0.02 0.01,0.03 0.01,0.02 0,0.02 0.01,0.02 0,0.02 0.01,0.04 0.01,0.03 0.01,0.03 0.01,0.04 0.01,0.03 0.01,0.02 0,0.03 0.01,0.03 0,0.02 0.01,0.02 0,0.02 0.01,0.02 0,0.02 0,0.02 0.01,0.02 0,0.02 0,0.02 0,0.03 0,0.03 0.01,0.04 0,0.03 0,0.02 0,0.02 0,0.02 0,0.02 c 0,0.69 -0.56,1.11 -1.16,1.11 -0.37,0 -1.05,-0.17 -1.42,-0.83 -0.11,-0.22 -0.39,-1.33 -0.56,-2.03 l -0.74,-2.89 c -0.2,-0.83 -1.28,-5.22 -1.39,-5.61 -0.03,0 -1.56,-3.03 -4.28,-3.03 -2.38,0 -2.38,2.26 -2.38,2.89 0,1.89 0.8,4.08 1.85,6.76 0.42,1.11 0.59,1.53 0.59,2.13 0,1.67 -1.42,2.95 -3.31,2.95 -3.51,0 -5.08,-4.73 -5.08,-5.33 0,-0.45 0.49,-0.45 0.6,-0.45 0.48,0 0.51,0.17 0.62,0.56 0.88,2.89 2.38,4.25 3.77,4.25 0.59,0 0.86,-0.39 0.86,-1.22 0,-0.79 -0.32,-1.56 -0.49,-2.01 -1.67,-4.25 -2.01,-5.55 -2.01,-7.08 0,-0.59 0,-2.23 1.35,-3.34 1.08,-0.91 2.55,-1.08 3.49,-1.08 1.39,0 2.64,0.51 3.8,1.56 -0.46,-1.92 -0.85,-3.37 -2.3,-5.12 -0.94,-1.08 -2.34,-2.22 -4.19,-2.22 -0.23,0 -1.87,0 -2.61,1.14 1.88,0.2 1.88,1.89 1.88,1.92 0,1.11 -1,1.31 -1.36,1.31 -0.86,0 -2.02,-0.69 -2.02,-2.3 0,-1.76 1.68,-3.06 4.14,-3.06 3.54,0 7.82,2.72 8.89,7.08 z"
           inkscape:connector-curvature="0"
           style="fill:#000000;stroke-width:0" /><path
           id="path6865"
           d="m 752.71,405.11 h -1.19 c -0.09,-0.77 -0.45,-2.83 -0.9,-3.18 -0.27,-0.2 -2.96,-0.2 -3.44,-0.2 h -6.42 c 3.65,3.23 4.87,4.2 6.97,5.84 2.57,2.07 4.98,4.22 4.98,7.54 0,4.21 -3.69,6.79 -8.16,6.79 -4.31,0 -7.25,-3.03 -7.25,-6.23 0,-1.78 1.5,-1.96 1.86,-1.96 0.83,0 1.85,0.6 1.85,1.85 0,0.62 -0.25,1.84 -2.06,1.84 1.07,2.47 3.45,3.24 5.09,3.24 3.48,0 5.3,-2.71 5.3,-5.53 0,-3.04 -2.16,-5.44 -3.29,-6.69 l -8.39,-8.3 c -0.36,-0.31 -0.36,-0.39 -0.36,-1.36 h 14.36 z"
           inkscape:connector-curvature="0"
           style="fill:#000000;stroke-width:0" /><path
           id="path6867"
           d="m 767.79,406.25 0,0.3 -0.02,0.3 -0.01,0.29 -0.03,0.28 -0.03,0.27 -0.04,0.26 -0.04,0.26 -0.05,0.24 -0.06,0.24 -0.07,0.23 -0.07,0.22 -0.07,0.21 -0.09,0.2 -0.09,0.19 -0.09,0.19 -0.1,0.17 -0.11,0.16 -0.11,0.16 -0.12,0.14 -0.12,0.13 -0.13,0.13 -0.13,0.11 -0.14,0.1 -0.15,0.1 -0.14,0.08 -0.16,0.07 -0.16,0.06 -0.16,0.05 -0.17,0.04 -0.17,0.03 -0.18,0.01 -0.18,0.01 c -1.64,0 -2.64,-1.25 -2.64,-2.64 0,-1.34 1,-2.64 2.64,-2.64 0.6,0 1.25,0.2 1.75,0.64 0.14,0.11 0.2,0.16 0.25,0.16 0.05,0 0.1,-0.05 0.1,-0.75 0,-3.69 -1.74,-6.68 -3.4,-8.32 -0.54,-0.54 -0.54,-0.65 -0.54,-0.79 0,-0.36 0.25,-0.55 0.5,-0.55 0.54,0 4.53,3.83 4.53,9.66 z"
           inkscape:connector-curvature="0"
           style="fill:#000000;stroke-width:0" /><path
           id="path6869"
           d="m 806.71,436.59 0.04,0.15 0.03,0.14 0.04,0.14 0.03,0.13 0.04,0.12 0.04,0.12 0.03,0.11 0.04,0.11 0.05,0.1 0.04,0.09 0.05,0.09 0.05,0.08 0.06,0.08 0.06,0.07 0.07,0.07 0.08,0.06 0.08,0.06 0.09,0.05 0.09,0.05 0.11,0.04 0.11,0.04 0.13,0.04 0.13,0.03 0.07,0.01 0.07,0.02 0.08,0.01 0.08,0.01 0.08,0.01 0.09,0.01 0.08,0.01 0.1,0.01 0.09,0.01 0.1,0 0.1,0.01 0.1,0 0.11,0.01 0.11,0 0.12,0 0.12,0 0.12,0 0.13,0 c 0.79,0 1.34,0 1.34,0.96 0,0.43 -0.3,0.59 -0.69,0.59 -1.25,0 -4.28,-0.16 -5.53,-0.16 -1.64,0 -5.69,0.16 -7.33,0.16 -0.45,0 -1.04,0 -1.04,-1 0,-0.55 0.4,-0.55 1.7,-0.55 1.14,0 1.64,0 2.87,-0.09 1.21,-0.16 1.55,-0.31 1.55,-1 0,-0.3 -0.09,-0.66 -0.19,-1.05 l -5.73,-22.87 c -1.2,-4.83 -4.58,-7.47 -7.17,-7.47 -1.3,0 -3.94,0.5 -4.74,3.09 0.14,-0.04 0.5,-0.04 0.6,-0.04 1.93,0 3.23,1.68 3.23,3.18 0,1.6 -1.34,2.08 -2.19,2.08 -0.89,0 -3.34,-0.59 -3.34,-3.98 0,-3.08 2.64,-5.42 6.58,-5.42 4.59,0 9.76,3.28 11.01,8.21 z"
           inkscape:connector-curvature="0"
           style="fill:#000000;stroke-width:0" /><path
           id="path6871"
           d="m 813.22,401.82 0.17,0.17 0.16,0.17 0.17,0.16 0.17,0.17 0.18,0.17 0.09,0.09 0.1,0.1 0.1,0.09 0.11,0.1 0.11,0.1 0.11,0.11 0.13,0.11 0.13,0.11 0.13,0.12 0.15,0.13 0.15,0.13 0.16,0.14 0.17,0.14 0.17,0.15 0.19,0.16 0.2,0.16 0.21,0.17 0.22,0.18 0.23,0.19 0.25,0.2 0.25,0.21 0.27,0.21 c 0.74,0.6 3.35,2.69 4.36,3.66 2.13,2.09 3.46,3.87 3.46,4.29 0,0.41 -0.46,0.41 -0.6,0.41 -0.31,0 -0.42,-0.06 -0.59,-0.34 -1.08,-1.6 -1.81,-2.13 -2.64,-2.13 -0.42,0 -0.96,0.03 -2,1.05 -1.17,1.19 -1.94,1.42 -2.75,1.42 -2.78,0 -4.67,-3.03 -4.67,-4.06 0,-0.33 0.35,-0.42 0.59,-0.42 0.42,0 0.5,0.09 0.62,0.48 0.54,1.22 2.49,1.3 3.05,1.3 0.8,0 1.7,-0.22 2.19,-0.33 1.92,-0.41 2.16,-0.41 3.03,-0.41 -0.91,-0.95 -1.53,-1.57 -4.84,-4.22 -2.72,-2.15 -3.66,-3.03 -4.32,-3.73 -2.09,-2.05 -3.11,-3.58 -3.11,-3.91 0,-0.4 0.46,-0.4 0.6,-0.4 0.34,0 0.42,0.06 0.59,0.34 0.94,1.33 2.02,2.13 3.21,2.13 0.42,0 0.93,-0.03 1.87,-0.91 1.09,-1.05 1.78,-1.56 2.91,-1.56 3.72,0 6.06,4.22 6.06,5.39 0,0.42 -0.39,0.45 -0.6,0.45 -0.42,0 -0.5,-0.17 -0.62,-0.55 -0.67,-1.75 -2.72,-2.57 -4.44,-2.57 -0.79,0 -1.67,0.17 -2.53,0.37 -1.61,0.35 -1.89,0.35 -2.51,0.35 -0.08,0 -0.6,0 -0.8,-0.04 z"
           inkscape:connector-curvature="0"
           style="fill:#000000;stroke-width:0" /><path
           id="path6873"
           d="m 845.47,405.11 h -1.19 c -0.09,-0.77 -0.45,-2.83 -0.9,-3.18 -0.27,-0.2 -2.95,-0.2 -3.44,-0.2 h -6.42 c 3.66,3.23 4.88,4.2 6.97,5.84 2.58,2.07 4.98,4.22 4.98,7.54 0,4.21 -3.69,6.79 -8.15,6.79 -4.32,0 -7.25,-3.03 -7.25,-6.23 0,-1.78 1.5,-1.96 1.86,-1.96 0.82,0 1.84,0.6 1.84,1.85 0,0.62 -0.25,1.84 -2.06,1.84 1.07,2.47 3.45,3.24 5.09,3.24 3.48,0 5.3,-2.71 5.3,-5.53 0,-3.04 -2.16,-5.44 -3.28,-6.69 l -8.39,-8.3 c -0.36,-0.31 -0.36,-0.39 -0.36,-1.36 h 14.36 z"
           inkscape:connector-curvature="0"
           style="fill:#000000;stroke-width:0" /></g></g><path
       sodipodi:nodetypes="cc"
       inkscape:connector-curvature="0"
       id="path3332-56-3-9-05-3-57-2"
       d="m 423.97658,73.18644 62.0248,1.02e-4"
       style="fill:none;stroke:#e511f4;stroke-width:1.60000002;stroke-linecap:butt;stroke-linejoin:miter;stroke-miterlimit:4;stroke-opacity:1;stroke-dasharray:none;stroke-dashoffset:0" /><path
       sodipodi:nodetypes="cc"
       inkscape:connector-curvature="0"
       id="path3332-56-3-9-05-3-32-1-88-7"
       d="m 423.97658,44.703342 62.0248,0"
       style="fill:none;stroke:#0cc419;stroke-width:1.60000002;stroke-linecap:butt;stroke-linejoin:miter;stroke-miterlimit:4;stroke-opacity:1;stroke-dasharray:4.8, 4.8;stroke-dashoffset:0" /><path
       sodipodi:nodetypes="cc"
       inkscape:connector-curvature="0"
       id="path3332-56-3-9-6-4"
       d="m 423.97658,16.961742 62.0248,0"
       style="fill:none;stroke:#0011f4;stroke-width:1.60000002;stroke-linecap:butt;stroke-linejoin:miter;stroke-miterlimit:4;stroke-opacity:1;stroke-dasharray:6.4, 3.2, 1.6, 3.2;stroke-dashoffset:0" /><text
       xml:space="preserve"
       style="font-size:38.40000153px;font-style:normal;font-variant:normal;font-weight:normal;font-stretch:normal;line-height:125%;letter-spacing:0px;word-spacing:0px;fill:#fffafd;fill-opacity:1;stroke:#fdfef1;stroke-width:0.80000001;stroke-opacity:0.99369082;font-family:'Takao P';-inkscape-font-specification:'Takao P'"
       x="79.730385"
       y="-125.16067"
       id="text9630"
       sodipodi:linespacing="125%"
       inkscape:transform-center-x="-6.0609153"
       inkscape:transform-center-y="14.142132"
       transform="scale(1,-1)"><tspan
         sodipodi:role="line"
         id="tspan9632"
         x="79.730385"
         y="-125.16067"
         style="font-size:17.60000038px;font-style:normal;font-variant:normal;font-weight:normal;font-stretch:normal;fill:#fffafd;fill-opacity:1;stroke:#fdfef1;stroke-width:0.80000001;stroke-opacity:0.99369082;font-family:cmr10;-inkscape-font-specification:cmr10">1</tspan></text>
<text
       xml:space="preserve"
       style="font-size:38.40000153px;font-style:normal;font-variant:normal;font-weight:normal;font-stretch:normal;line-height:125%;letter-spacing:0px;word-spacing:0px;fill:#fffafd;fill-opacity:1;stroke:#fdfef1;stroke-width:0.80000001;stroke-opacity:0.99369082;font-family:'Takao P';-inkscape-font-specification:'Takao P'"
       x="140.06456"
       y="-124.63699"
       id="text9630-1"
       sodipodi:linespacing="125%"
       inkscape:transform-center-x="-6.0609154"
       inkscape:transform-center-y="14.142132"
       transform="scale(1,-1)"><tspan
         sodipodi:role="line"
         id="tspan9632-9"
         x="140.06456"
         y="-124.63699"
         style="font-size:17.60000038px;font-style:normal;font-variant:normal;font-weight:normal;font-stretch:normal;fill:#fffafd;fill-opacity:1;stroke:#fdfef1;stroke-width:0.80000001;stroke-opacity:0.99369082;font-family:cmr10;-inkscape-font-specification:cmr10">2</tspan></text>
<text
       xml:space="preserve"
       style="font-size:38.40000153px;font-style:normal;font-variant:normal;font-weight:normal;font-stretch:normal;line-height:125%;letter-spacing:0px;word-spacing:0px;fill:#fffafd;fill-opacity:1;stroke:#fdfef1;stroke-width:0.80000001;stroke-opacity:0.99369082;font-family:'Takao P';-inkscape-font-specification:'Takao P'"
       x="158.36124"
       y="-83.662933"
       id="text9630-5"
       sodipodi:linespacing="125%"
       inkscape:transform-center-x="-6.0609154"
       inkscape:transform-center-y="14.142132"
       transform="scale(1,-1)"><tspan
         sodipodi:role="line"
         id="tspan9632-4"
         x="158.36124"
         y="-83.662933"
         style="font-size:17.60000038px;font-style:normal;font-variant:normal;font-weight:normal;font-stretch:normal;fill:#fffafd;fill-opacity:1;stroke:#fdfef1;stroke-width:0.80000001;stroke-opacity:0.99369082;font-family:cmr10;-inkscape-font-specification:cmr10">3</tspan></text>
<text
       xml:space="preserve"
       style="font-size:38.40000153px;font-style:normal;font-variant:normal;font-weight:normal;font-stretch:normal;line-height:125%;letter-spacing:0px;word-spacing:0px;fill:#fffafd;fill-opacity:1;stroke:#fdfef1;stroke-width:0.80000001;stroke-opacity:0.99369082;font-family:'Takao P';-inkscape-font-specification:'Takao P'"
       x="218.36334"
       y="-83.2005"
       id="text9630-9"
       sodipodi:linespacing="125%"
       inkscape:transform-center-x="-6.0609154"
       inkscape:transform-center-y="14.142132"
       transform="scale(1,-1)"><tspan
         sodipodi:role="line"
         id="tspan9632-8"
         x="218.36334"
         y="-83.2005"
         style="font-size:17.60000038px;font-style:normal;font-variant:normal;font-weight:normal;font-stretch:normal;fill:#fffafd;fill-opacity:1;stroke:#fdfef1;stroke-width:0.80000001;stroke-opacity:0.99369082;font-family:cmr10;-inkscape-font-specification:cmr10">4</tspan></text>
<text
       xml:space="preserve"
       style="font-size:38.40000153px;font-style:normal;font-variant:normal;font-weight:normal;font-stretch:normal;line-height:125%;letter-spacing:0px;word-spacing:0px;fill:#fffafd;fill-opacity:1;stroke:#fdfef1;stroke-width:0.80000001;stroke-opacity:0.99369082;font-family:'Takao P';-inkscape-font-specification:'Takao P'"
       x="159.4375"
       y="-164.38324"
       id="text9630-2"
       sodipodi:linespacing="125%"
       inkscape:transform-center-x="-6.0609154"
       inkscape:transform-center-y="14.142132"
       transform="scale(1,-1)"><tspan
         sodipodi:role="line"
         id="tspan9632-47"
         x="159.4375"
         y="-164.38324"
         style="font-size:17.60000038px;font-style:normal;font-variant:normal;font-weight:normal;font-stretch:normal;fill:#fffafd;fill-opacity:1;stroke:#fdfef1;stroke-width:0.80000001;stroke-opacity:0.99369082;font-family:cmr10;-inkscape-font-specification:cmr10">5</tspan></text>
<text
       xml:space="preserve"
       style="font-size:38.40000153px;font-style:normal;font-variant:normal;font-weight:normal;font-stretch:normal;line-height:125%;letter-spacing:0px;word-spacing:0px;fill:#fffafd;fill-opacity:1;stroke:#fdfef1;stroke-width:0.80000001;stroke-opacity:0.99369082;font-family:'Takao P';-inkscape-font-specification:'Takao P'"
       x="218.36331"
       y="-165.99763"
       id="text9630-4"
       sodipodi:linespacing="125%"
       inkscape:transform-center-x="-6.0609154"
       inkscape:transform-center-y="14.142132"
       transform="scale(1,-1)"><tspan
         sodipodi:role="line"
         id="tspan9632-2"
         x="218.36331"
         y="-165.99763"
         style="font-size:17.60000038px;font-style:normal;font-variant:normal;font-weight:normal;font-stretch:normal;fill:#fffafd;fill-opacity:1;stroke:#fdfef1;stroke-width:0.80000001;stroke-opacity:0.99369082;font-family:cmr10;-inkscape-font-specification:cmr10">6</tspan></text>
<text
       xml:space="preserve"
       style="font-size:38.40000153px;font-style:normal;font-variant:normal;font-weight:normal;font-stretch:normal;line-height:125%;letter-spacing:0px;word-spacing:0px;fill:#fffafd;fill-opacity:1;stroke:#fdfef1;stroke-width:0.80000001;stroke-opacity:0.99369082;font-family:'Takao P';-inkscape-font-specification:'Takao P'"
       x="236.55952"
       y="-122.59183"
       id="text9630-6"
       sodipodi:linespacing="125%"
       inkscape:transform-center-x="-6.0609154"
       inkscape:transform-center-y="14.142131"
       transform="scale(1,-1)"><tspan
         sodipodi:role="line"
         id="tspan9632-0"
         x="236.55952"
         y="-122.59183"
         style="font-size:17.60000038px;font-style:normal;font-variant:normal;font-weight:normal;font-stretch:normal;fill:#fffafd;fill-opacity:1;stroke:#fdfef1;stroke-width:0.80000001;stroke-opacity:0.99369082;font-family:cmr10;-inkscape-font-specification:cmr10">7</tspan></text>
<text
       xml:space="preserve"
       style="font-size:38.40000153px;font-style:normal;font-variant:normal;font-weight:normal;font-stretch:normal;line-height:125%;letter-spacing:0px;word-spacing:0px;fill:#fffafd;fill-opacity:1;stroke:#fdfef1;stroke-width:0.80000001;stroke-opacity:0.99369082;font-family:'Takao P';-inkscape-font-specification:'Takao P'"
       x="300.16003"
       y="-123.75401"
       id="text9630-53"
       sodipodi:linespacing="125%"
       inkscape:transform-center-x="-6.0609154"
       inkscape:transform-center-y="14.142132"
       transform="scale(1,-1)"><tspan
         sodipodi:role="line"
         id="tspan9632-46"
         x="300.16003"
         y="-123.75401"
         style="font-size:17.60000038px;font-style:normal;font-variant:normal;font-weight:normal;font-stretch:normal;fill:#fffafd;fill-opacity:1;stroke:#fdfef1;stroke-width:0.80000001;stroke-opacity:0.99369082;font-family:cmr10;-inkscape-font-specification:cmr10">8</tspan></text>
<text
       xml:space="preserve"
       style="font-size:38.40000153px;font-style:normal;font-variant:normal;font-weight:normal;font-stretch:normal;line-height:125%;letter-spacing:0px;word-spacing:0px;fill:#fffafd;fill-opacity:1;stroke:#fdfef1;stroke-width:0.80000001;stroke-opacity:0.99369082;font-family:'Takao P';-inkscape-font-specification:'Takao P'"
       x="238.81255"
       y="-207.16505"
       id="text9630-69"
       sodipodi:linespacing="125%"
       inkscape:transform-center-x="-6.0609154"
       inkscape:transform-center-y="14.142132"
       transform="scale(1,-1)"><tspan
         sodipodi:role="line"
         id="tspan9632-5"
         x="238.81255"
         y="-207.16505"
         style="font-size:17.60000038px;font-style:normal;font-variant:normal;font-weight:normal;font-stretch:normal;fill:#fffafd;fill-opacity:1;stroke:#fdfef1;stroke-width:0.80000001;stroke-opacity:0.99369082;font-family:cmr10;-inkscape-font-specification:cmr10">9</tspan></text>
<text
       xml:space="preserve"
       style="font-size:38.40000153px;font-style:normal;font-variant:normal;font-weight:normal;font-stretch:normal;line-height:125%;letter-spacing:0px;word-spacing:0px;fill:#fffafd;fill-opacity:1;stroke:#fdfef1;stroke-width:0.80000001;stroke-opacity:0.99369082;font-family:'Takao P';-inkscape-font-specification:'Takao P'"
       x="296.47577"
       y="-207.92644"
       id="text9630-94"
       sodipodi:linespacing="125%"
       inkscape:transform-center-x="-6.060915"
       inkscape:transform-center-y="14.142144"
       transform="scale(1,-1)"><tspan
         sodipodi:role="line"
         id="tspan9632-02"
         x="296.47577"
         y="-207.92644"
         style="font-size:14.39999962px;font-style:normal;font-variant:normal;font-weight:normal;font-stretch:normal;fill:#fffafd;fill-opacity:1;stroke:#fdfef1;stroke-width:0.80000001;stroke-opacity:0.99369082;font-family:cmr10;-inkscape-font-specification:cmr10">10</tspan></text>
<text
       xml:space="preserve"
       style="font-size:38.40000153px;font-style:normal;font-variant:normal;font-weight:normal;font-stretch:normal;line-height:125%;letter-spacing:0px;word-spacing:0px;fill:#fffafd;fill-opacity:1;stroke:#fdfef1;stroke-width:0.80000001;stroke-opacity:0.99369082;font-family:'Takao P';-inkscape-font-specification:'Takao P'"
       x="313.70825"
       y="-166.60092"
       id="text9630-46"
       sodipodi:linespacing="125%"
       inkscape:transform-center-x="-6.060915"
       inkscape:transform-center-y="14.142144"
       transform="scale(1,-1)"><tspan
         sodipodi:role="line"
         id="tspan9632-6"
         x="313.70825"
         y="-166.60092"
         style="font-size:14.39999962px;font-style:normal;font-variant:normal;font-weight:normal;font-stretch:normal;fill:#fffafd;fill-opacity:1;stroke:#fdfef1;stroke-width:0.80000001;stroke-opacity:0.99369082;font-family:cmr10;-inkscape-font-specification:cmr10">11</tspan></text>
<text
       xml:space="preserve"
       style="font-size:38.40000153px;font-style:normal;font-variant:normal;font-weight:normal;font-stretch:normal;line-height:125%;letter-spacing:0px;word-spacing:0px;fill:#fffafd;fill-opacity:1;stroke:#fdfef1;stroke-width:0.80000001;stroke-opacity:0.99369082;font-family:'Takao P';-inkscape-font-specification:'Takao P'"
       x="376.46625"
       y="-166.3318"
       id="text9630-47"
       sodipodi:linespacing="125%"
       inkscape:transform-center-x="-6.060915"
       inkscape:transform-center-y="14.142144"
       transform="scale(1,-1)"><tspan
         sodipodi:role="line"
         id="tspan9632-3"
         x="376.46625"
         y="-166.3318"
         style="font-size:14.39999962px;font-style:normal;font-variant:normal;font-weight:normal;font-stretch:normal;fill:#fffafd;fill-opacity:1;stroke:#fdfef1;stroke-width:0.80000001;stroke-opacity:0.99369082;font-family:cmr10;-inkscape-font-specification:cmr10">12</tspan></text>
<text
       xml:space="preserve"
       style="font-size:38.40000153px;font-style:normal;font-variant:normal;font-weight:normal;font-stretch:normal;line-height:125%;letter-spacing:0px;word-spacing:0px;fill:#fffafd;fill-opacity:1;stroke:#fdfef1;stroke-width:0.80000001;stroke-opacity:0.99369082;font-family:'Takao P';-inkscape-font-specification:'Takao P'"
       x="239.54237"
       y="-41.494999"
       id="text9630-7"
       sodipodi:linespacing="125%"
       inkscape:transform-center-x="-4.8487323"
       inkscape:transform-center-y="-11.31371"
       transform="scale(1,-1)"><tspan
         sodipodi:role="line"
         id="tspan9632-7"
         x="239.54237"
         y="-41.494999"
         style="font-size:17.60000038px;font-style:normal;font-variant:normal;font-weight:normal;font-stretch:normal;fill:#fffafd;fill-opacity:1;stroke:#fdfef1;stroke-width:0.80000001;stroke-opacity:0.99369082;font-family:cmr10;-inkscape-font-specification:cmr10">1</tspan></text>
<text
       xml:space="preserve"
       style="font-size:38.40000153px;font-style:normal;font-variant:normal;font-weight:normal;font-stretch:normal;line-height:125%;letter-spacing:0px;word-spacing:0px;fill:#fffafd;fill-opacity:1;stroke:#fdfef1;stroke-width:0.80000001;stroke-opacity:0.99369082;font-family:'Takao P';-inkscape-font-specification:'Takao P'"
       x="300.42908"
       y="-42.033134"
       id="text9630-1-2"
       sodipodi:linespacing="125%"
       inkscape:transform-center-x="-4.8487324"
       inkscape:transform-center-y="-11.31371"
       transform="scale(1,-1)"><tspan
         sodipodi:role="line"
         id="tspan9632-9-0"
         x="300.42908"
         y="-42.033134"
         style="font-size:17.60000038px;font-style:normal;font-variant:normal;font-weight:normal;font-stretch:normal;fill:#fffafd;fill-opacity:1;stroke:#fdfef1;stroke-width:0.80000001;stroke-opacity:0.99369082;font-family:cmr10;-inkscape-font-specification:cmr10">2</tspan></text>
<text
       xml:space="preserve"
       style="font-size:38.40000153px;font-style:normal;font-variant:normal;font-weight:normal;font-stretch:normal;line-height:125%;letter-spacing:0px;word-spacing:0px;fill:#fffafd;fill-opacity:1;stroke:#fdfef1;stroke-width:0.80000001;stroke-opacity:0.99369082;font-family:'Takao P';-inkscape-font-specification:'Takao P'"
       x="319.26379"
       y="-79.626907"
       id="text9630-2-3"
       sodipodi:linespacing="125%"
       inkscape:transform-center-x="-4.8487324"
       inkscape:transform-center-y="-11.31371"
       transform="scale(1,-1)"><tspan
         sodipodi:role="line"
         id="tspan9632-47-2"
         x="319.26379"
         y="-79.626907"
         style="font-size:17.60000038px;font-style:normal;font-variant:normal;font-weight:normal;font-stretch:normal;fill:#fffafd;fill-opacity:1;stroke:#fdfef1;stroke-width:0.80000001;stroke-opacity:0.99369082;font-family:cmr10;-inkscape-font-specification:cmr10">5</tspan></text>
<text
       xml:space="preserve"
       style="font-size:38.40000153px;font-style:normal;font-variant:normal;font-weight:normal;font-stretch:normal;line-height:125%;letter-spacing:0px;word-spacing:0px;fill:#fffafd;fill-opacity:1;stroke:#fdfef1;stroke-width:0.80000001;stroke-opacity:0.99369082;font-family:'Takao P';-inkscape-font-specification:'Takao P'"
       x="378.45868"
       y="-82.317589"
       id="text9630-4-7"
       sodipodi:linespacing="125%"
       inkscape:transform-center-x="-4.8487324"
       inkscape:transform-center-y="-11.31371"
       transform="scale(1,-1)"><tspan
         sodipodi:role="line"
         id="tspan9632-2-3"
         x="378.45868"
         y="-82.317589"
         style="font-size:17.60000038px;font-style:normal;font-variant:normal;font-weight:normal;font-stretch:normal;fill:#fffafd;fill-opacity:1;stroke:#fdfef1;stroke-width:0.80000001;stroke-opacity:0.99369082;font-family:cmr10;-inkscape-font-specification:cmr10">6</tspan></text>
<text
       xml:space="preserve"
       style="font-size:38.40000153px;font-style:normal;font-variant:normal;font-weight:normal;font-stretch:normal;line-height:125%;letter-spacing:0px;word-spacing:0px;fill:#fffafd;fill-opacity:1;stroke:#fdfef1;stroke-width:0.80000001;stroke-opacity:0.99369082;font-family:'Takao P';-inkscape-font-specification:'Takao P'"
       x="398.63882"
       y="-122.94682"
       id="text9630-69-7"
       sodipodi:linespacing="125%"
       inkscape:transform-center-x="-4.8487324"
       inkscape:transform-center-y="-11.31371"
       transform="scale(1,-1)"><tspan
         sodipodi:role="line"
         id="tspan9632-5-6"
         x="398.63882"
         y="-122.94682"
         style="font-size:17.60000038px;font-style:normal;font-variant:normal;font-weight:normal;font-stretch:normal;fill:#fffafd;fill-opacity:1;stroke:#fdfef1;stroke-width:0.80000001;stroke-opacity:0.99369082;font-family:cmr10;-inkscape-font-specification:cmr10">9</tspan></text>
<text
       xml:space="preserve"
       style="font-size:38.40000153px;font-style:normal;font-variant:normal;font-weight:normal;font-stretch:normal;line-height:125%;letter-spacing:0px;word-spacing:0px;fill:#fffafd;fill-opacity:1;stroke:#fdfef1;stroke-width:0.80000001;stroke-opacity:0.99369082;font-family:'Takao P';-inkscape-font-specification:'Takao P'"
       x="457.37827"
       y="-123.97728"
       id="text9630-94-8"
       sodipodi:linespacing="125%"
       inkscape:transform-center-x="-4.8487318"
       inkscape:transform-center-y="-11.313707"
       transform="scale(1,-1)"><tspan
         sodipodi:role="line"
         id="tspan9632-02-3"
         x="457.37827"
         y="-123.97728"
         style="font-size:14.39999962px;font-style:normal;font-variant:normal;font-weight:normal;font-stretch:normal;fill:#fffafd;fill-opacity:1;stroke:#fdfef1;stroke-width:0.80000001;stroke-opacity:0.99369082;font-family:cmr10;-inkscape-font-specification:cmr10">10</tspan></text>
<text
       xml:space="preserve"
       style="font-size:38.40000153px;font-style:normal;font-variant:normal;font-weight:normal;font-stretch:normal;line-height:125%;letter-spacing:0px;word-spacing:0px;fill:#000000;fill-opacity:1;stroke:none;font-family:'Takao P';-inkscape-font-specification:'Takao P'"
       x="57.923759"
       y="-45.241405"
       id="text3299"
       sodipodi:linespacing="125%"
       transform="scale(1,-1)"
       inkscape:transform-center-x="-25.209405"
       inkscape:transform-center-y="-9.5634764"><tspan
         sodipodi:role="line"
         id="tspan3301"
         x="57.923759"
         y="-45.241405"
         style="font-size:22.39999962px;font-style:normal;font-variant:normal;font-weight:normal;font-stretch:normal;font-family:cmmi10;-inkscape-font-specification:cmmi10">L</tspan></text>
<text
       xml:space="preserve"
       style="font-size:38.40000153px;font-style:normal;font-variant:normal;font-weight:normal;font-stretch:normal;line-height:125%;letter-spacing:0px;word-spacing:0px;fill:#000000;fill-opacity:1;stroke:none;font-family:'Takao P';-inkscape-font-specification:'Takao P'"
       x="97.982582"
       y="-229.95563"
       id="text3303"
       sodipodi:linespacing="125%"
       transform="scale(1,-1)"><tspan
         sodipodi:role="line"
         id="tspan3305"
         x="97.982582"
         y="-229.95563"
         style="font-size:19.20000076px;font-style:normal;font-variant:normal;font-weight:normal;font-stretch:normal;font-family:cmmi10;-inkscape-font-specification:cmmi10">W</tspan></text>
<path
       style="fill:none;stroke:#000000;stroke-width:1.51999998;stroke-linecap:butt;stroke-linejoin:miter;stroke-miterlimit:4;stroke-opacity:1;stroke-dasharray:none"
       d="M 20.422639,135.58048 C -2.378731,110.52394 87.400539,86.837095 76.019118,61.528539 104.15126,72.31669 191.65465,7.967063 212.68207,25.990911"
       id="path3307"
       inkscape:connector-curvature="0"
       sodipodi:nodetypes="ccc" /><path
       style="fill:none;stroke:#000000;stroke-width:1.51999998;stroke-linecap:butt;stroke-linejoin:miter;stroke-miterlimit:4;stroke-opacity:1;stroke-dasharray:none"
       d="m 9.348599,128.69619 c -23.942928,21.36681 122.533721,67.31501 109.630221,99.08435 31.93734,-23.83911 128.57319,60.2138 162.91878,37.9026"
       id="path3307-0"
       inkscape:connector-curvature="0"
       sodipodi:nodetypes="ccc" /></g></svg>