<?xml version="1.0" encoding="utf-8"?>
<!-- Generator: Adobe Illustrator 18.0.0, SVG Export Plug-In . SVG Version: 6.00 Build 0)  -->
<!DOCTYPE svg PUBLIC "-//W3C//DTD SVG 1.1//EN" "http://www.w3.org/Graphics/SVG/1.1/DTD/svg11.dtd">
<svg version="1.1" id="レイヤー_1" xmlns="http://www.w3.org/2000/svg" xmlns:xlink="http://www.w3.org/1999/xlink" x="0px"
	 y="0px" viewBox="0 0 160 110" enable-background="new 0 0 160 110" xml:space="preserve">
<g>
	<path fill="#231815" d="M116.6,45.1c0-5.2-2.5-10-6.7-13.9c-0.7-0.7-0.7-1.8-0.1-2.4c0,0,0,0,0,0c0.5-0.5,0.7-1.3,0.5-2
		c-0.2-0.7-0.8-1.2-1.5-1.4c-4-0.7-6.8-1.3-9.4-0.9c-0.3,0-0.6,0-0.9-0.1c-5.4-2.1-11.8-3.3-18.5-3.3c-5.4,0-10.5,0.8-15.1,2.1
		c-0.3,0.1-0.6,0.1-0.9,0c-1.2-0.3-3.4-1.5-5.8-0.8c-4,1.4-5.2,4.1-5.5,5.7c0,0.1,0,0.2-0.1,0.4c-0.1,0.4-0.3,0.9-0.6,1.1
		c-5.4,4.2-8.6,9.6-8.6,15.5c0,11,11.3,18.5,26.8,20.7c0.6,0.1,1,0.7,0.8,1.3c-1.2,3.7-4.9,8.2-5.5,14.2c-0.7,6.9,2,12.5,5.3,12.5
		c3,0,2.1-2.5,9.5-2.5c7.5,0,6.5,2.5,9.5,2.5c3.2,0,6-5.6,5.3-12.5c-0.6-6-4.5-10.4-5.6-14.3c-0.2-0.6,0.2-1.2,0.8-1.3
		C105.5,63.5,116.6,56.1,116.6,45.1z"/>
	<path fill="#FFFFFF" d="M105.9,46.5c0-3.5-3.4-6.4-8-7c-0.1,0-0.2-0.1-0.3-0.2c-0.3-0.6-1-1.1-1.8-1.1c-0.8,0-1.4,0.4-1.8,1.1
		c-0.1,0.1-0.2,0.2-0.3,0.2c-4.6,0.7-8,3.5-8,7c0,3.5,3.3,6.3,7.9,7c0.1,0,0.2,0.1,0.3,0.2c0.3,0.7,1,1.3,1.9,1.3
		c0.8,0,1.6-0.5,1.9-1.3c0-0.1,0.1-0.2,0.3-0.2C102.6,52.9,105.9,50,105.9,46.5z M89.9,46.5c0-1.1,1.4-2.4,3.6-2.9
		c0.2-0.1,0.4,0.1,0.4,0.3v5c0,0.3-0.3,0.5-0.6,0.5C91.3,48.8,89.9,47.6,89.9,46.5z M97.9,48.9v-4.8c0-0.3,0.3-0.5,0.6-0.5
		c2.1,0.6,3.4,1.8,3.4,2.9c0,1.1-1.4,2.3-3.4,2.9C98.2,49.5,97.9,49.2,97.9,48.9z"/>
	<path fill="#231815" d="M80,88c-28.5,0-51.7-16.6-51.7-37.1S51.5,13.8,80,13.8s51.7,16.6,51.7,37.1c0,14.7-12.1,28-30.8,34
		c-1,0.3-2.2-0.2-2.5-1.3s0.2-2.2,1.3-2.5c17-5.4,28-17.2,28-30.2c0-18.3-21.4-33.1-47.8-33.1S32.2,32.7,32.2,50.9
		S53.7,84.1,80,84.1c1.1,0,2,0.9,2,2C82,87.2,81.1,88,80,88z"/>
	<path fill="#FFFFFF" d="M74.3,42.4c0-1.1-1-2.1-2.1-2c-1.1,0.1-1.9,1-1.9,2.1l0,1.5c0,0.4-0.2,0.5-0.6,0.5l-8,0
		c-0.1,0-0.3-0.1-0.3-0.2c-0.3-0.7-1.1-2.7-1.1-2.7c-0.4-1-1.6-1.5-2.6-1.1c-1,0.4-1.5,1.6-1.1,2.6c0,0,1.4,2.9,1.4,3.5
		s-1.6,3.6-1.6,3.6c-0.4,1,0,2.2,1,2.6c0.3,0.1,0.5,0.2,0.8,0.2c0.8,0,1.5-0.4,1.8-1.2l1.4-3.2c0.1-0.1,0.2-0.2,0.3-0.2h7.9
		c0.6,0,0.6,0.4,0.6,0.6l0,1.9c0,1.1,0.8,2,1.9,2.1c1.2,0.1,2.1-0.8,2.1-2V42.4z"/>
</g>
</svg>
